<?xml version="1.0" encoding="UTF-8"?>
<svg version="1.1" xmlns="http://www.w3.org/2000/svg" width="500" height="400">
<path d="M0 0 C3 0 3 0 4.38476562 1.31054688 C4.88685547 1.94025391 5.38894531 2.56996094 5.90625 3.21875 C9.07234387 6.99677798 12.40875183 10.50253246 15.90625 13.96875 C16.43839111 14.49750732 16.97053223 15.02626465 17.51879883 15.57104492 C19.1771694 17.21609525 20.83813594 18.85847936 22.5 20.5 C24.70097054 22.67402773 26.89835788 24.85159066 29.09375 27.03125 C29.5825061 27.51170776 30.07126221 27.99216553 30.5748291 28.48718262 C34.62161418 32.50596699 38.21374179 36.67284776 42 41 C48.93 47.93 55.86 54.86 63 62 C63.33 42.2 63.66 22.4 64 2 C68.29 2 72.58 2 77 2 C77 31.7 77 61.4 77 92 C73.08298121 90.04149061 70.57664768 87.85390336 67.56054688 84.8034668 C67.02994156 84.27475983 66.49933624 83.74605286 65.95265198 83.20132446 C64.20309671 81.45546808 62.46083801 79.70252388 60.71875 77.94921875 C59.50130095 76.73057695 58.28348129 75.51230528 57.06530762 74.29438782 C54.51357177 71.74108846 51.96522819 69.18446708 49.41943359 66.62524414 C46.16295329 63.35180141 42.89995672 60.08495231 39.63460541 56.82036114 C37.11895768 54.30444083 34.60592988 51.78591736 32.09376526 49.26651955 C30.89192677 48.06150787 29.68948961 46.85709299 28.48643494 45.65329552 C26.80158164 43.96626276 25.1200685 42.27597009 23.43945312 40.5847168 C22.94582779 40.09154465 22.45220245 39.5983725 21.94361877 39.09025574 C19.05282359 36.17280263 16.58663848 33.2332981 14 30 C13.67 49.8 13.34 69.6 13 90 C9.04 90 5.08 90 1 90 C-0.82238662 88.17761338 -0.11997696 85.65243917 -0.12442017 83.2275238 C-0.12082489 82.39890335 -0.11722961 81.5702829 -0.11352539 80.71655273 C-0.11367142 79.84833893 -0.11381744 78.98012512 -0.1139679 78.08560181 C-0.11326846 75.20157414 -0.10547463 72.3176102 -0.09765625 69.43359375 C-0.09579218 67.43962133 -0.09436823 65.44564845 -0.09336853 63.45167542 C-0.08954248 58.19254298 -0.07971145 52.93343797 -0.06866455 47.67431641 C-0.0584523 42.31217825 -0.05387131 36.95003569 -0.04882812 31.58789062 C-0.03808926 21.05858167 -0.0210118 10.52929311 0 0 Z " fill="#E2E2E2" transform="translate(285,152)"/>
<path d="M0 0 C-0.50797009 4.3177458 -1.19682779 8.03302114 -3 12 C-6.30468756 11.40073447 -9.33899015 10.55792644 -12.5 9.4375 C-21.86976436 6.60705035 -32.04290209 6.93556345 -41 11 C-48.42234999 15.19467315 -52.48350387 20.739368 -55.3125 28.6875 C-57.6294341 40.15969795 -56.02546213 50.33282835 -50 60.3125 C-44.4817219 66.24464896 -35.3957696 69.6435974 -27.45703125 70.16796875 C-21.02094989 70.21550259 -15.2717368 69.45431578 -9 68 C-9 62.39 -9 56.78 -9 51 C-17.415 51.495 -17.415 51.495 -26 52 C-26 47.71 -26 43.42 -26 39 C-16.1 39 -6.2 39 4 39 C4.13788435 44.05575957 4.25724899 49.10498954 4.32958984 54.16113281 C4.35974161 55.88010771 4.4006713 57.59892902 4.45263672 59.31738281 C4.52553181 61.79009864 4.55946901 64.26077994 4.5859375 66.734375 C4.61690521 67.50118591 4.64787292 68.26799683 4.67977905 69.05804443 C4.68115234 71.24121094 4.68115234 71.24121094 4 75 C-6.27487518 83.73801991 -20.02807798 83.89479221 -32.81689453 83.18017578 C-43.5150424 82.29723761 -53.23167484 76.63915982 -60.47265625 68.8359375 C-69.54651656 57.92873969 -71.0157484 45.78913242 -70 32 C-68.10421005 20.14029077 -62.0965107 9.19993956 -52.33984375 2.05078125 C-36.12124351 -8.1419359 -17.12456448 -8.56228224 0 0 Z " fill="#E8E8E8" transform="translate(209,159)"/>
<path d="M0 0 C1.65 0 3.3 0 5 0 C5 64.02 5 128.04 5 194 C3.02 194 1.04 194 -1 194 C-1.02332597 168.85319785 -1.04097769 143.70639731 -1.05181217 118.55958652 C-1.05697577 106.88436586 -1.06401969 95.20915191 -1.07543945 83.53393555 C-1.08538434 73.36177327 -1.09185296 63.18961585 -1.09408849 53.01744884 C-1.09539594 47.6278075 -1.09848388 42.23818006 -1.10573006 36.84854317 C-1.11248719 31.78188566 -1.11461759 26.71524786 -1.11310768 21.64858627 C-1.11338415 19.78327642 -1.11539108 17.91796596 -1.11920547 16.05265999 C-1.12413794 13.51750892 -1.12299996 10.98243349 -1.12025452 8.44728088 C-1.12316736 7.6992407 -1.1260802 6.95120052 -1.12908131 6.18049246 C-1.11412121 1.11412121 -1.11412121 1.11412121 0 0 Z " fill="#A8A8A8" transform="translate(248,103)"/>
<path d="M0 0 C0.99 0 1.98 0 3 0 C3.09579384 8.07861415 3.12513633 15.98340366 2 24 C0.68 24.33 -0.64 24.66 -2 25 C-4.64 20.71 -7.28 16.42 -10 12 C-11.99616554 13.99616554 -11.40983427 17.81701963 -11.5625 20.5625 C-11.60568359 21.27341797 -11.64886719 21.98433594 -11.69335938 22.71679688 C-11.79971777 24.47761912 -11.90038846 26.2387832 -12 28 C-13.32 28.33 -14.64 28.66 -16 29 C-18.03754833 25.90650571 -20.05204221 22.79865535 -22.0625 19.6875 C-22.64322266 18.80642578 -23.22394531 17.92535156 -23.82226562 17.01757812 C-24.36689453 16.17001953 -24.91152344 15.32246094 -25.47265625 14.44921875 C-25.98062744 13.66893311 -26.48859863 12.88864746 -27.01196289 12.0847168 C-28 10 -28 10 -27 7 C-22.93435268 8.35521577 -21.8649215 11.04035171 -19.8125 14.5625 C-19.44447266 15.17802734 -19.07644531 15.79355469 -18.69726562 16.42773438 C-17.790321 17.94716109 -16.89411832 19.47299033 -16 21 C-15.93941406 20.02417969 -15.87882812 19.04835938 -15.81640625 18.04296875 C-15.73261719 16.77066406 -15.64882813 15.49835938 -15.5625 14.1875 C-15.48128906 12.92292969 -15.40007812 11.65835937 -15.31640625 10.35546875 C-15 7 -15 7 -14 4 C-12.68 4 -11.36 4 -10 4 C-8.37227202 6.16238316 -7.06336197 8.16026997 -5.75 10.5 C-5.38648438 11.12003906 -5.02296875 11.74007813 -4.6484375 12.37890625 C-3.75239409 13.91161208 -2.87444253 15.45486854 -2 17 C-1.90912109 15.66195313 -1.90912109 15.66195313 -1.81640625 14.296875 C-1.73261719 13.12640625 -1.64882813 11.9559375 -1.5625 10.75 C-1.48128906 9.58984375 -1.40007812 8.4296875 -1.31640625 7.234375 C-1.06752213 4.69022624 -0.71885058 2.44046752 0 0 Z " fill="#B8B8B8" transform="translate(301,348)"/>
<path d="M0 0 C0.66 0 1.32 0 2 0 C1.46014954 4.61872062 -0.43965817 7.52395069 -3.0625 11.3125 C-3.79597656 12.38113281 -4.52945312 13.44976562 -5.28515625 14.55078125 C-5.85105469 15.35902344 -6.41695313 16.16726562 -7 17 C-5.95199219 16.55527344 -4.90398437 16.11054687 -3.82421875 15.65234375 C-2.44551937 15.0802304 -1.06660161 14.50864309 0.3125 13.9375 C1.00279297 13.64294922 1.69308594 13.34839844 2.40429688 13.04492188 C7.66015625 10.88671875 7.66015625 10.88671875 11 12 C10.47515308 16.55700425 8.68492697 19.192874 5.9375 22.8125 C4.83728516 24.27623047 4.83728516 24.27623047 3.71484375 25.76953125 C3.14894531 26.50558594 2.58304687 27.24164063 2 28 C2.96421875 27.6390625 3.9284375 27.278125 4.921875 26.90625 C6.19779268 26.43716262 7.47384129 25.96843127 8.75 25.5 C9.38421875 25.26152344 10.0184375 25.02304688 10.671875 24.77734375 C14.03286607 23.55198242 16.36871587 23 20 23 C20 23.99 20 24.98 20 26 C9.11 29.96 9.11 29.96 -2 34 C-2.66 32.68 -3.32 31.36 -4 30 C-1.03 25.71 1.94 21.42 5 17 C0.5681377 18.67853967 0.5681377 18.67853967 -3.85449219 20.38110352 C-7.243994 21.62845192 -9.58629379 22.43961853 -13 21 C-12.38481202 17.86975323 -11.35320511 15.75231886 -9.53125 13.14453125 C-9.04269531 12.44005859 -8.55414063 11.73558594 -8.05078125 11.00976562 C-7.28314453 9.92211914 -7.28314453 9.92211914 -6.5 8.8125 C-5.98824219 8.07580078 -5.47648437 7.33910156 -4.94921875 6.58007812 C-1.19179806 1.19179806 -1.19179806 1.19179806 0 0 Z " fill="#A5A5A5" transform="translate(384,73)"/>
<path d="M0 0 C0 1.32 0 2.64 0 4 C-0.94875 4.28875 -1.8975 4.5775 -2.875 4.875 C-6.05211578 5.76825109 -6.05211578 5.76825109 -8 8 C-8.42431591 11.81884318 -8.5390434 14.12405448 -6.5 17.4375 C-2.72171101 19.79893062 -0.42209561 19.56153595 4 19 C6.16666667 17.5 6.16666667 17.5 7 15 C7.25086724 11.83267579 7.25086724 11.83267579 7 9 C6.34 8.67 5.68 8.34 5 8 C4.01 10.31 3.02 12.62 2 15 C1.01 14.67 0.02 14.34 -1 14 C-0.33501617 9.61110675 1.18757677 6.0188515 3 2 C5.70502403 2.87730509 7.68400006 3.71668971 9.8125 5.625 C11.5381867 9.0763734 11.65321684 12.26733234 11 16 C9.37609951 19.13180809 7.99733974 21.24339744 5.1875 23.375 C0.50341799 24.71330915 -2.88430606 24.55784697 -7.25 22.375 C-10.35526323 19.69318176 -11.70339826 17.88980521 -13 14 C-12.90703756 8.70114083 -11.74492906 5.74492906 -8 2 C-4.94024557 -0.00796384 -3.85514114 0 0 0 Z " fill="#A3A3A3" transform="translate(94,115)"/>
<path d="M0 0 C1.875 1.1875 1.875 1.1875 3 3 C2.95875 3.804375 2.9175 4.60875 2.875 5.4375 C2.91625 6.283125 2.9575 7.12875 3 8 C4.65002828 9.35386936 6.3174387 10.68678142 8 12 C9.125 14.4375 9.125 14.4375 9 17 C5.39139955 21.93175394 0.52085282 23.84698768 -5 26 C-6.29673602 23.46080994 -7.58747837 20.91885762 -8.875 18.375 C-9.23980469 17.66214844 -9.60460937 16.94929688 -9.98046875 16.21484375 C-12.00000927 12.21248163 -13.7081111 8.31082927 -15 4 C-5.2173913 -0.86956522 -5.2173913 -0.86956522 0 0 Z M-10 6 C-9.34 7.98 -8.68 9.96 -8 12 C-3.58477891 10.73025028 -3.58477891 10.73025028 0 8 C-0.3185177 5.89179203 -0.3185177 5.89179203 -1 4 C-4.91503564 2.40498548 -6.66483376 3.68391233 -10 6 Z M-6 15 C-5.34 16.98 -4.68 18.96 -4 21 C-0.17902761 20.46930939 2.06171403 19.50298434 5 17 C4.67 15.35 4.34 13.7 4 12 C-0.33094958 12 -2.27034861 12.96564469 -6 15 Z " fill="#A9A9A9" transform="translate(180,31)"/>
<path d="M0 0 C1.89575195 0.26367188 1.89575195 0.26367188 4 1 C4.98901367 2.65820312 4.98901367 2.65820312 5.66796875 4.78125 C5.92126953 5.54050781 6.17457031 6.29976563 6.43554688 7.08203125 C6.68369141 7.87996094 6.93183594 8.67789062 7.1875 9.5 C8.4590634 14.64252855 8.4590634 14.64252855 11 19 C12.32 14.38 13.64 9.76 15 5 C15.99 5 16.98 5 18 5 C17.44636539 13.02770189 15.34312056 20.33854067 13 28 C11.12890625 27.78125 11.12890625 27.78125 9 27 C7.83984375 25.03125 7.83984375 25.03125 6.9375 22.5 C6.61136719 21.60539062 6.28523437 20.71078125 5.94921875 19.7890625 C5.63597656 18.86867188 5.32273438 17.94828125 5 17 C4.69707031 16.12085938 4.39414063 15.24171875 4.08203125 14.3359375 C3.37001091 12.22996184 2.68249324 10.11572905 2 8 C0.35 13.28 -1.3 18.56 -3 24 C-3.99 23.67 -4.98 23.34 -6 23 C-4.64741104 15.11583017 -2.45600648 7.60646666 0 0 Z " fill="#C2C2C2" transform="translate(196,348)"/>
<path d="M0 0 C1.32 0 2.64 0 4 0 C5.66666667 6.66666667 7.33333333 13.33333333 9 20 C10.98 15.38 12.96 10.76 15 6 C15.99 6 16.98 6 18 6 C17.40644629 11.30018387 15.62627368 15.58136893 13.4375 20.375 C13.10814453 21.11105469 12.77878906 21.84710938 12.43945312 22.60546875 C11.63252195 24.40644557 10.8171174 26.20362181 10 28 C8.68 27.67 7.36 27.34 6 27 C4.68 21.06 3.36 15.12 2 9 C-0.31954564 12.09272752 -1.71720383 14.30240897 -3.1875 17.75 C-3.53167969 18.54921875 -3.87585938 19.3484375 -4.23046875 20.171875 C-4.48441406 20.77515625 -4.73835938 21.3784375 -5 22 C-5.99 21.67 -6.98 21.34 -8 21 C-5.72564796 13.81783567 -2.96415819 6.9241798 0 0 Z " fill="#ADADAD" transform="translate(313,27)"/>
<path d="M0 0 C3.07469523 1.70251719 5.40613254 3.81226508 7 7 C7.63573056 10.95118615 7.77620458 14.50026187 5.90625 18.11328125 C3.3548909 21.39069201 1.55943827 22.81691111 -2.4375 24.125 C-6.70363534 23.97531104 -9.3040919 23.13225467 -13 21 C-16.23014356 17.45726191 -16.5689765 13.85788462 -16.4296875 9.22265625 C-15.69387346 5.41649091 -13.77545759 3.64329294 -11 1 C-7.51556578 -0.74221711 -3.80112955 -0.58675154 0 0 Z M-10.3125 4.625 C-12.38404071 7.54050173 -12.85446009 9.4342722 -13 13 C-11.95102418 16.84624466 -11.39462539 17.73691641 -8 20 C-4.48021449 20.3199805 -1.90298219 20.38020303 1.375 19 C3.85045612 15.95328478 4.07015062 12.85828416 4 9 C3.20872067 6.26648957 2.54481894 5.38915639 0.25 3.75 C-3.79949215 2.40016928 -6.74080994 2.11516374 -10.3125 4.625 Z " fill="#A5A5A5" transform="translate(249,357)"/>
<path d="M0 0 C3.41776957 2.44747058 5.55099986 5.13616488 6.54296875 9.25390625 C6.80544764 13.44647453 6.27902741 16.19633005 3.625 19.5 C0.05269055 22.90219948 -1.94055699 23.34825655 -6.8984375 23.28515625 C-11.01786567 22.72620038 -13.86163445 20.44882888 -16.375 17.25 C-17.65916889 12.62699199 -17.6348239 8.58705974 -15.875 4.1875 C-11.55269834 -0.85518527 -6.1645838 -2.37287551 0 0 Z M-12.5 5.125 C-14.26739304 8.51250333 -14.6277457 10.2335258 -14 14 C-11.91786087 17.74785043 -10.7052961 18.79482295 -6.5625 20 C-2.62891627 20 -1.04574825 19.41868244 2 17 C3.56935594 13.86128812 3.35201103 11.46144178 3 8 C1.00100675 5.06397866 -0.44520943 3.37869156 -3.97265625 2.51953125 C-7.71918474 2.26042554 -9.64054378 2.69446221 -12.5 5.125 Z " fill="#AFAFAF" transform="translate(147,54)"/>
<path d="M0 0 C4.13539405 3.85224995 7.22275174 7.96819563 10.3125 12.6875 C10.9940918 13.70166992 10.9940918 13.70166992 11.68945312 14.73632812 C15 19.73948543 15 19.73948543 15 22 C13.125 21.6875 13.125 21.6875 11 21 C10.34 20.01 9.68 19.02 9 18 C5.04 18.33 1.08 18.66 -3 19 C-3.33 20.98 -3.66 22.96 -4 25 C-5.32 25.33 -6.64 25.66 -8 26 C-7.24930343 22.03756958 -6.47107603 18.08104863 -5.6875 14.125 C-5.47416016 12.99707031 -5.26082031 11.86914062 -5.04101562 10.70703125 C-4.82509766 9.63066406 -4.60917969 8.55429687 -4.38671875 7.4453125 C-4.19295654 6.45031738 -3.99919434 5.45532227 -3.79956055 4.43017578 C-3 2 -3 2 0 0 Z M0 5 C-0.66 8.63 -1.32 12.26 -2 16 C0.3431213 15.74438677 2.67843403 15.40729228 5 15 C5.33 14.34 5.66 13.68 6 13 C5.04408807 10.96981101 5.04408807 10.96981101 3.625 8.875 C3.16351563 8.15054687 2.70203125 7.42609375 2.2265625 6.6796875 C1.82179687 6.12539063 1.41703125 5.57109375 1 5 C0.67 5 0.34 5 0 5 Z " fill="#CBCBCB" transform="translate(214,18)"/>
<path d="M0 0 C2.95158991 1.44297377 5.58972554 3.00141137 8.25 4.9375 C8.95640625 5.44152344 9.6628125 5.94554687 10.390625 6.46484375 C10.92171875 6.97144531 11.4528125 7.47804688 12 8 C12 8.99 12 9.98 12 11 C8.00499382 9.6302836 5.19990508 7.74277578 2 5 C0.68 6.65 -0.64 8.3 -2 10 C0.64 11.98 3.28 13.96 6 16 C5.67 16.66 5.34 17.32 5 18 C1.54074837 16.7508258 -1.14693203 15.32472205 -4 13 C-5.32 14.65 -6.64 16.3 -8 18 C-7.4225 18.39832031 -6.845 18.79664062 -6.25 19.20703125 C-5.13625 20.00173828 -5.13625 20.00173828 -4 20.8125 C-3.2575 21.33457031 -2.515 21.85664062 -1.75 22.39453125 C-1.1725 22.92433594 -0.595 23.45414063 0 24 C0 24.99 0 25.98 0 27 C-3.70503641 26.39665691 -5.85968148 24.77525763 -8.75 22.4375 C-9.94882812 21.47650391 -9.94882812 21.47650391 -11.171875 20.49609375 C-11.77515625 20.00238281 -12.3784375 19.50867188 -13 19 C-11.68779266 16.22561876 -10.22517631 13.79209828 -8.3984375 11.328125 C-7.90859375 10.66425781 -7.41875 10.00039063 -6.9140625 9.31640625 C-6.40617187 8.63449219 -5.89828125 7.95257813 -5.375 7.25 C-4.859375 6.55261719 -4.34375 5.85523438 -3.8125 5.13671875 C-2.54440881 3.42244733 -1.2725711 1.71094844 0 0 Z " fill="#C2C2C2" transform="translate(354,48)"/>
<path d="M0 0 C3.37121503 0.75852338 4.48547409 1.7565532 6.5 4.5625 C7.375 8.125 7.375 8.125 7.5 11.5625 C6.51 13.0475 6.51 13.0475 5.5 14.5625 C4.51 14.2325 3.52 13.9025 2.5 13.5625 C2.5 10.9225 2.5 8.2825 2.5 5.5625 C0.025 5.0675 0.025 5.0675 -2.5 4.5625 C-2.46519531 5.39394531 -2.43039062 6.22539063 -2.39453125 7.08203125 C-2.36746094 8.16871094 -2.34039062 9.25539062 -2.3125 10.375 C-2.27769531 11.45394531 -2.24289062 12.53289062 -2.20703125 13.64453125 C-2.5 16.5625 -2.5 16.5625 -3.828125 18.421875 C-6.47526059 20.2278647 -8.38640589 20.00729916 -11.5 19.5625 C-14.48496444 17.46495742 -15.35227852 16.06897364 -16.375 12.5625 C-16.5040057 9.4663633 -16.17059759 8.11753162 -14.5 5.5625 C-13.18 5.8925 -11.86 6.2225 -10.5 6.5625 C-10.83 7.2225 -11.16 7.8825 -11.5 8.5625 C-11.539992 10.56210012 -11.54346799 12.56297242 -11.5 14.5625 C-9.025 15.5525 -9.025 15.5525 -6.5 16.5625 C-6.54640625 15.82644531 -6.5928125 15.09039062 -6.640625 14.33203125 C-6.93462752 6.3834631 -6.93462752 6.3834631 -4.8125 2.375 C-2.5 0.5625 -2.5 0.5625 0 0 Z " fill="#C5C5C5" transform="translate(412.5,120.4375)"/>
<path d="M0 0 C1.32 0 2.64 0 4 0 C4.02703562 2.58340384 4.04685611 5.16652308 4.0625 7.75 C4.07087891 8.47960938 4.07925781 9.20921875 4.08789062 9.9609375 C4.10391684 13.48670558 3.95292713 16.61034916 3 20 C3.62648437 19.98839844 4.25296875 19.97679688 4.8984375 19.96484375 C5.71570313 19.95582031 6.53296875 19.94679688 7.375 19.9375 C8.18710937 19.92589844 8.99921875 19.91429688 9.8359375 19.90234375 C12 20 12 20 14 21 C14 21.99 14 22.98 14 24 C11.85423363 24.02685938 9.70837355 24.04633088 7.5625 24.0625 C6.36753906 24.07410156 5.17257813 24.08570312 3.94140625 24.09765625 C1 24 1 24 0 23 C-0.08713831 21.29227642 -0.10700007 19.58101351 -0.09765625 17.87109375 C-0.09443359 16.83662109 -0.09121094 15.80214844 -0.08789062 14.73632812 C-0.07951172 13.64771484 -0.07113281 12.55910156 -0.0625 11.4375 C-0.05798828 10.34501953 -0.05347656 9.25253906 -0.04882812 8.12695312 C-0.03699826 5.41791505 -0.02051543 2.70898401 0 0 Z " fill="#969696" transform="translate(248,15)"/>
<path d="M0 0 C4.06564732 1.35521577 5.1350785 4.04035171 7.1875 7.5625 C7.55552734 8.17802734 7.92355469 8.79355469 8.30273438 9.42773438 C9.209679 10.94716109 10.10588168 12.47299033 11 14 C11.33 9.38 11.66 4.76 12 0 C12.33 0 12.66 0 13 0 C13.33 2.97 13.66 5.94 14 9 C14.33 9 14.66 9 15 9 C15 12.96 15 16.92 15 21 C13.68 21.33 12.36 21.66 11 22 C8.96245167 18.90650571 6.94795779 15.79865535 4.9375 12.6875 C4.35677734 11.80642578 3.77605469 10.92535156 3.17773438 10.01757812 C2.63310547 9.17001953 2.08847656 8.32246094 1.52734375 7.44921875 C1.01937256 6.66893311 0.51140137 5.88864746 -0.01196289 5.0847168 C-1 3 -1 3 0 0 Z " fill="#9F9F9F" transform="translate(274,355)"/>
<path d="M0 0 C0 1.32 0 2.64 0 4 C-0.94875 4.28875 -1.8975 4.5775 -2.875 4.875 C-6.05211578 5.76825109 -6.05211578 5.76825109 -8 8 C-8.42551066 11.82959591 -8.58691385 14.10789095 -6.4375 17.375 C-3.3214771 19.4523486 -0.69536586 19.71574109 3 20 C3 20.33 3 20.66 3 21 C0.69 21 -1.62 21 -4 21 C-4 21.66 -4 22.32 -4 23 C-7.81821593 22.04544602 -8.97747646 21.03022896 -11.375 17.8125 C-13.36105513 13.92919708 -13.2513093 11.2231689 -12 7 C-8.67302155 1.83744724 -6.1266343 0 0 0 Z " fill="#A7A7A7" transform="translate(94,115)"/>
<path d="M0 0 C4.35647645 1.44950405 7.31757289 3.67747112 10.8125 6.625 C11.78832031 7.44226563 12.76414062 8.25953125 13.76953125 9.1015625 C14.87361328 10.04128906 14.87361328 10.04128906 16 11 C16.77730469 10.20207031 17.55460937 9.40414062 18.35546875 8.58203125 C20.60319453 6.38742749 22.1465849 5.16250245 25 4 C25 7.80345877 23.86213669 8.77701015 21.5 11.6875 C20.8503125 12.49574219 20.200625 13.30398437 19.53125 14.13671875 C19.0259375 14.75160156 18.520625 15.36648437 18 16 C14.2462258 14.33567602 11.19222602 11.98440053 7.9375 9.5 C4.99204276 7.2572291 2.08053182 5.05368788 -1 3 C-0.67 2.01 -0.34 1.02 0 0 Z " fill="#B8B8B8" transform="translate(102,89)"/>
<path d="M0 0 C1.32 0.99 2.64 1.98 4 3 C3.01 6.63 2.02 10.26 1 14 C1.928125 13.773125 2.85625 13.54625 3.8125 13.3125 C4.864375 13.209375 5.91625 13.10625 7 13 C7.99 13.99 8.98 14.98 10 16 C5.05 16.495 5.05 16.495 0 17 C-0.33 18.98 -0.66 20.96 -1 23 C-2.32 23.33 -3.64 23.66 -5 24 C-3.35 16.08 -1.7 8.16 0 0 Z " fill="#B1B1B1" transform="translate(211,20)"/>
<path d="M0 0 C0.99 0 1.98 0 3 0 C2.40644629 5.30018387 0.62627368 9.58136893 -1.5625 14.375 C-2.0565332 15.47908203 -2.0565332 15.47908203 -2.56054688 16.60546875 C-3.36747805 18.40644557 -4.1828826 20.20362181 -5 22 C-6.32 21.67 -7.64 21.34 -9 21 C-9 18.36 -9 15.72 -9 13 C-8.34 13.66 -7.68 14.32 -7 15 C-3.535 7.575 -3.535 7.575 0 0 Z " fill="#A3A3A3" transform="translate(328,33)"/>
<path d="M0 0 C1.875 1.1875 1.875 1.1875 3 3 C3.1875 5.6875 3.1875 5.6875 3 8 C2.01 8 1.02 8 0 8 C-0.66 6.68 -1.32 5.36 -2 4 C-5.60992379 4.65585189 -5.60992379 4.65585189 -9 6 C-8.67 7.98 -8.34 9.96 -8 12 C-8.99 12.66 -9.98 13.32 -11 14 C-11.67154933 12.71086513 -12.33708859 11.41859796 -13 10.125 C-13.37125 9.40570313 -13.7425 8.68640625 -14.125 7.9453125 C-15 6 -15 6 -15 4 C-5.2173913 -0.86956522 -5.2173913 -0.86956522 0 0 Z " fill="#9B9B9B" transform="translate(180,31)"/>
<path d="M0 0 C1.32 0 2.64 0 4 0 C5.703125 2.046875 5.703125 2.046875 7.25 4.75 C7.77078125 5.63171875 8.2915625 6.5134375 8.828125 7.421875 C10 10 10 10 10 14 C6.26360784 12.75453595 5.81243487 11.36595047 4 8 C1.60926555 11.82517513 1.44033448 15.59665524 1 20 C0.67 20 0.34 20 0 20 C0 13.4 0 6.8 0 0 Z " fill="#C4C4C4" transform="translate(287,352)"/>
<path d="M0 0 C1 3 1 3 1.3125 6.5 C1.64165168 10.0566163 1.64165168 10.0566163 4.0625 11.8125 C4.701875 12.204375 5.34125 12.59625 6 13 C6 13.66 6 14.32 6 15 C8.64 15 11.28 15 14 15 C12.9375 16.5625 12.9375 16.5625 11 18 C6.53964838 18 4.55207743 17.46806564 1.125 14.5625 C-1.68377058 11.17545312 -2.12391304 9.67391297 -2.0625 5.375 C-2.05347656 4.55773437 -2.04445312 3.74046875 -2.03515625 2.8984375 C-2.02355469 2.27195312 -2.01195312 1.64546875 -2 1 C-1.34 0.67 -0.68 0.34 0 0 Z " fill="#C4C4C4" transform="translate(235,363)"/>
<path d="M0 0 C0 0.99 0 1.98 0 3 C-2.60197202 4.00605593 -5.20629362 5.00502525 -7.8125 6 C-8.91948242 6.42925781 -8.91948242 6.42925781 -10.04882812 6.8671875 C-10.76103516 7.13789062 -11.47324219 7.40859375 -12.20703125 7.6875 C-12.8616333 7.93886719 -13.51623535 8.19023438 -14.19067383 8.44921875 C-16 9 -16 9 -19 9 C-19.33 8.01 -19.66 7.02 -20 6 C-17.41958904 4.99183944 -14.83613056 3.9932889 -12.25 3 C-11.15558594 2.57074219 -11.15558594 2.57074219 -10.0390625 2.1328125 C-9.33007812 1.86210938 -8.62109375 1.59140625 -7.890625 1.3125 C-7.24125977 1.06113281 -6.59189453 0.80976562 -5.92285156 0.55078125 C-4 0 -4 0 0 0 Z " fill="#A3A3A3" transform="translate(404,96)"/>
<path d="M0 0 C2.97037488 1.39821701 5.59592533 3.00592343 8.25 4.9375 C8.95640625 5.44152344 9.6628125 5.94554687 10.390625 6.46484375 C10.92171875 6.97144531 11.4528125 7.47804688 12 8 C12 8.99 12 9.98 12 11 C8.00499382 9.6302836 5.19990508 7.74277578 2 5 C1.01 5.66 0.02 6.32 -1 7 C-1.99 7 -2.98 7 -4 7 C-2.79618552 4.50638429 -1.54571278 2.31856917 0 0 Z " fill="#B4B4B4" transform="translate(354,48)"/>
<path d="M0 0 C2 2 2 2 2.125 4.3125 C0.03339485 9.3091123 -5.23573281 11.2281331 -10 13.3125 C-10.99 13.6528125 -10.99 13.6528125 -12 14 C-12.33 13.01 -12.66 12.02 -13 11 C-10.47879086 9.48727451 -7.980417 7.98974224 -5.375 6.625 C-2.63736052 4.75187825 -1.50144239 2.9238615 0 0 Z " fill="#A9A9A9" transform="translate(187,43)"/>
<path d="M0 0 C0 1.32 0 2.64 0 4 C-0.94875 4.28875 -1.8975 4.5775 -2.875 4.875 C-6.05211578 5.76825109 -6.05211578 5.76825109 -8 8 C-8.40047444 10.32275177 -8.7397104 12.65739357 -9 15 C-9.33 15 -9.66 15 -10 15 C-10.144375 14.05125 -10.28875 13.1025 -10.4375 12.125 C-10.82935399 9.1065506 -10.82935399 9.1065506 -12 7 C-8.29688852 1.97434871 -6.33425539 0 0 0 Z " fill="#919191" transform="translate(94,115)"/>
<path d="M0 0 C0.65234375 1.77734375 0.65234375 1.77734375 1 4 C0.00390625 5.81640625 0.00390625 5.81640625 -1.4375 7.5625 C-3.76010942 10.33929632 -3.76010942 10.33929632 -4 14 C-4.99 14.33 -5.98 14.66 -7 15 C-7.66 13.68 -8.32 12.36 -9 11 C-7.88037801 9.35050343 -6.75413155 7.70550162 -5.625 6.0625 C-4.99851562 5.14597656 -4.37203125 4.22945313 -3.7265625 3.28515625 C-2 1 -2 1 0 0 Z " fill="#B7B7B7" transform="translate(389,92)"/>
<path d="M0 0 C2.475 0.99 2.475 0.99 5 2 C3.84826645 4.46800047 2.95216435 6.04783565 1 8 C0.29289322 9.64991582 -0.37943989 11.31562256 -1 13 C-1.99 12.67 -2.98 12.34 -4 12 C-3.33501617 7.61110675 -1.81242323 4.0188515 0 0 Z " fill="#A3A3A3" transform="translate(97,117)"/>
<path d="M0 0 C0.99 0 1.98 0 3 0 C2.52013969 5.56890517 1.70084819 10.67067568 0 16 C-0.99 15.34 -1.98 14.68 -3 14 C-2.48594831 9.03083364 -1.76615118 4.70973649 0 0 Z " fill="#B2B2B2" transform="translate(211,353)"/>
<path d="M0 0 C0.33 0 0.66 0 1 0 C1.14285714 8.57142857 1.14285714 8.57142857 0 12 C-3.875 11.125 -3.875 11.125 -5 10 C-5.04092937 7.66702567 -5.04241723 5.33294775 -5 3 C-3.33333333 3 -1.66666667 3 0 3 C0 2.01 0 1.02 0 0 Z " fill="#BEBEBE" transform="translate(209,364)"/>
<path d="M0 0 C1.32 0.33 2.64 0.66 4 1 C3.67 1.66 3.34 2.32 3 3 C2.75212983 7.14503661 2.75212983 7.14503661 4 11 C3.67 11.66 3.34 12.32 3 13 C0 12 0 12 -1.25 10.3125 C-2.43779402 6.65013509 -1.70045696 3.40091392 0 0 Z " fill="#ADADAD" transform="translate(398,126)"/>
<path d="M0 0 C0.33 0 0.66 0 1 0 C1.36504603 1.58086048 1.71660506 3.16483907 2.0625 4.75 C2.25972656 5.63171875 2.45695312 6.5134375 2.66015625 7.421875 C3.00416684 10.03161048 2.92938216 11.55705262 2 14 C1.34 14.66 0.68 15.32 0 16 C-1.41690212 10.7305293 -2.48735057 6.40854752 -1 1 C-0.67 0.67 -0.34 0.34 0 0 Z " fill="#B8B8B8" transform="translate(318,34)"/>
<path d="M0 0 C0.33 0 0.66 0 1 0 C1.76681614 7.66816143 1.76681614 7.66816143 -0.11328125 10.93359375 C-1.5 12.5625 -1.5 12.5625 -4 15 C-5.32 14.34 -6.64 13.68 -8 13 C-6.7934375 11.948125 -6.7934375 11.948125 -5.5625 10.875 C-2.7212835 7.68729368 -2.45886528 6.12978756 -2 2 C-1.34 1.34 -0.68 0.68 0 0 Z " fill="#A1A1A1" transform="translate(152,61)"/>
<path d="M0 0 C0.33 0 0.66 0 1 0 C1.02696009 2.7708983 1.04681952 5.5415345 1.0625 8.3125 C1.07087891 9.09818359 1.07925781 9.88386719 1.08789062 10.69335938 C1.09111328 11.45068359 1.09433594 12.20800781 1.09765625 12.98828125 C1.10289307 13.68477783 1.10812988 14.38127441 1.11352539 15.09887695 C1 17 1 17 0 20 C0.66 20.33 1.32 20.66 2 21 C1.01 21 0.02 21 -1 21 C-2.32 18.69 -3.64 16.38 -5 14 C-4.34 14 -3.68 14 -3 14 C-2.67 13.34 -2.34 12.68 -2 12 C-1.67 12.33 -1.34 12.66 -1 13 C-0.67 8.71 -0.34 4.42 0 0 Z " fill="#7A7A7A" transform="translate(300,352)"/>
<path d="M0 0 C2.4375 0.625 2.4375 0.625 5 2 C5.75 4.875 5.75 4.875 6 8 C6.31674575 9.33737094 6.64270064 10.67288808 7 12 C5.1875 11.875 5.1875 11.875 3 11 C0.61517162 7.25241255 -0.39145737 4.43651689 0 0 Z " fill="#C8C8C8" transform="translate(170,42)"/>
<path d="M0 0 C5.22151733 0.40953077 8.29954246 1.18740739 12 5 C12 5.99 12 6.98 12 8 C8.58846252 7.38530856 6.48230844 6.10488946 3.75 4 C3.04359375 3.46375 2.3371875 2.9275 1.609375 2.375 C1.07828125 1.92125 0.5471875 1.4675 0 1 C0 0.67 0 0.34 0 0 Z " fill="#A6A6A6" transform="translate(342,67)"/>
<path d="M0 0 C3.39417765 3.12621626 5.6062718 5.56541027 7 10 C6.01 10.33 5.02 10.66 4 11 C1 7.375 1 7.375 1 4 C0.34 4 -0.32 4 -1 4 C-1.33 4.66 -1.66 5.32 -2 6 C-2 4.35 -2 2.7 -2 1 C-1.34 0.67 -0.68 0.34 0 0 Z " fill="#B4B4B4" transform="translate(214,18)"/>
<path d="M0 0 C2.88956687 1.29532308 5.01041688 2.5130211 7 5 C7.29296875 7.26171875 7.29296875 7.26171875 7.1875 9.6875 C7.16042969 10.49574219 7.13335937 11.30398437 7.10546875 12.13671875 C7.07066406 12.75160156 7.03585938 13.36648437 7 14 C6.67 14 6.34 14 6 14 C5.6596875 12.6696875 5.6596875 12.6696875 5.3125 11.3125 C3.82811487 7.56619468 1.97596515 5.66270566 -1 3 C-0.67 2.01 -0.34 1.02 0 0 Z " fill="#D0D0D0" transform="translate(145,54)"/>
<path d="M0 0 C0.66 0 1.32 0 2 0 C1.46884894 4.51478398 -0.36620292 7.34666857 -3 11 C-3.33 10.34 -3.66 9.68 -4 9 C-4.66 8.67 -5.32 8.34 -6 8 C-5.04956626 6.66102417 -4.08940853 5.32894573 -3.125 4 C-2.59132813 3.2575 -2.05765625 2.515 -1.5078125 1.75 C-1.01023437 1.1725 -0.51265625 0.595 0 0 Z " fill="#A5A5A5" transform="translate(384,73)"/>
<path d="M0 0 C0.33 0.66 0.66 1.32 1 2 C0.67 2.66 0.34 3.32 0 4 C-7.3625 5.425 -7.3625 5.425 -11 3 C-7.14243493 0.84694043 -4.44870215 -0.39253254 0 0 Z " fill="#C8C8C8" transform="translate(144,53)"/>
<path d="M0 0 C0.33 0.66 0.66 1.32 1 2 C1.66 2 2.32 2 3 2 C1.71054953 4.87646644 0.52656137 7.07062586 -2 9 C-4.26171875 8.85546875 -4.26171875 8.85546875 -6.6875 8.1875 C-7.49574219 7.97480469 -8.30398437 7.76210938 -9.13671875 7.54296875 C-9.75160156 7.36378906 -10.36648437 7.18460937 -11 7 C-11 6.67 -11 6.34 -11 6 C-10.37351563 5.90203125 -9.74703125 5.8040625 -9.1015625 5.703125 C-7.87566406 5.47882813 -7.87566406 5.47882813 -6.625 5.25 C-5.81289062 5.11078125 -5.00078125 4.9715625 -4.1640625 4.828125 C-1.82290908 4.18250739 -1.82290908 4.18250739 -0.7109375 1.921875 C-0.47632813 1.28765625 -0.24171875 0.6534375 0 0 Z " fill="#9A9A9A" transform="translate(252,371)"/>
<path d="M0 0 C2.18975773 3.28463659 2.99806563 6.20696275 4 10 C3.01 10.99 2.02 11.98 1 13 C0.01 9.37 -0.98 5.74 -2 2 C-1.34 2 -0.68 2 0 2 C0 1.34 0 0.68 0 0 Z " fill="#9B9B9B" transform="translate(202,358)"/>
<path d="M0 0 C0 0.99 0 1.98 0 3 C-4.29 3 -8.58 3 -13 3 C-12 1 -12 1 -10.4375 0.375 C-6.93601819 -0.16368951 -3.54193167 -0.05903219 0 0 Z " fill="#9B9B9B" transform="translate(262,36)"/>
<path d="M0 0 C0.639375 0.33 1.27875 0.66 1.9375 1 C3.76794567 2.07271225 3.76794567 2.07271225 5 2 C4.67 4.31 4.34 6.62 4 9 C2.68 8.67 1.36 8.34 0 8 C0 5.36 0 2.72 0 0 Z " fill="#CDCDCD" transform="translate(319,46)"/>
<path d="M0 0 C0.99 0.66 1.98 1.32 3 2 C2.34 4.97 1.68 7.94 1 11 C0.01 10.67 -0.98 10.34 -2 10 C-1.34 6.7 -0.68 3.4 0 0 Z " fill="#979797" transform="translate(192,361)"/>
<path d="M0 0 C0.66 0.33 1.32 0.66 2 1 C-1.96 4.96 -5.92 8.92 -10 13 C-10 9.28115772 -9.1259934 8.63852271 -6.6875 5.9375 C-5.76517578 4.89916016 -5.76517578 4.89916016 -4.82421875 3.83984375 C-3 2 -3 2 0 0 Z " fill="#A8A8A8" transform="translate(157,161)"/>
<path d="M0 0 C0.99 0.33 1.98 0.66 3 1 C1.02 3.97 -0.96 6.94 -3 10 C-3.33 9.34 -3.66 8.68 -4 8 C-4.66 7.67 -5.32 7.34 -6 7 C-4.02 4.69 -2.04 2.38 0 0 Z " fill="#ABABAB" transform="translate(125,93)"/>
<path d="M0 0 C0.66 0 1.32 0 2 0 C1.45276317 3.37462715 0.9451 5.08235 -1 8 C-1.66 8 -2.32 8 -3 8 C-3.33 8.66 -3.66 9.32 -4 10 C-4.33 9.01 -4.66 8.02 -5 7 C-4.07421875 5.17578125 -4.07421875 5.17578125 -2.6875 3.3125 C-2.23761719 2.68988281 -1.78773438 2.06726563 -1.32421875 1.42578125 C-0.88722656 0.95527344 -0.45023437 0.48476562 0 0 Z " fill="#C9C9C9" transform="translate(378,82)"/>
<path d="M0 0 C1.32 0 2.64 0 4 0 C3.5359375 1.051875 3.5359375 1.051875 3.0625 2.125 C1.96697322 5.08936657 1.43577008 7.87698108 1 11 C0.34 11 -0.32 11 -1 11 C-1.0270043 9.54176788 -1.04639787 8.08339325 -1.0625 6.625 C-1.07410156 5.81289063 -1.08570313 5.00078125 -1.09765625 4.1640625 C-1 2 -1 2 0 0 Z " fill="#BFBFBF" transform="translate(132,57)"/>
<path d="M0 0 C1.32 0 2.64 0 4 0 C5.38125018 2.76250036 5.19079306 4.94731099 5 8 C4.34 8.66 3.68 9.32 3 10 C3 8.02 3 6.04 3 4 C2.01 4 1.02 4 0 4 C0 2.68 0 1.36 0 0 Z " fill="#C2C2C2" transform="translate(313,27)"/>
<path d="M0 0 C0.99 0 1.98 0 3 0 C3 2.97 3 5.94 3 9 C2.01 9 1.02 9 0 9 C0 6.03 0 3.06 0 0 Z " fill="#C5C5C5" transform="translate(253,364)"/>
<path d="M0 0 C0 0.99 0 1.98 0 3 C-2.95664519 4.4783226 -5.74229737 4.06032783 -9 4 C-9 3.01 -9 2.02 -9 1 C-2.25 0 -2.25 0 0 0 Z " fill="#C2C2C2" transform="translate(99,135)"/>
<path d="M0 0 C1.33333333 0 2.66666667 0 4 0 C3.67 2.31 3.34 4.62 3 7 C1.68 7 0.36 7 -1 7 C-0.67 4.69 -0.34 2.38 0 0 Z " fill="#848484" transform="translate(416,127)"/>
<path d="M0 0 C0.78375 0.04125 1.5675 0.0825 2.375 0.125 C0.395 1.115 0.395 1.115 -1.625 2.125 C-1.295 2.785 -0.965 3.445 -0.625 4.125 C-1.285 4.125 -1.945 4.125 -2.625 4.125 C-2.625 8.085 -2.625 12.045 -2.625 16.125 C-2.955 16.125 -3.285 16.125 -3.625 16.125 C-3.79334933 14.35432584 -3.95961909 12.58345388 -4.125 10.8125 C-4.2178125 9.82636719 -4.310625 8.84023437 -4.40625 7.82421875 C-4.625 5.125 -4.625 5.125 -4.625 2.125 C-2.625 0.125 -2.625 0.125 0 0 Z " fill="#858585" transform="translate(412.625,120.875)"/>
<path d="M0 0 C3 1 3 1 4 3 C4.13415472 5.6723621 4.04318541 8.32250488 4 11 C3.34 11 2.68 11 2 11 C0.80712589 7.12315913 0 4.08378077 0 0 Z " fill="#C1C1C1" transform="translate(101,120)"/>
<path d="M0 0 C5.42857143 -0.36190476 5.42857143 -0.36190476 7.875 1.1875 C9.34781139 3.56036279 9.22223194 5.25913944 9 8 C8.01 8 7.02 8 6 8 C5.7525 7.05125 5.505 6.1025 5.25 5.125 C4.3142923 1.91306809 4.3142923 1.91306809 1.875 0.625 C1.25625 0.41875 0.6375 0.2125 0 0 Z " fill="#999999" transform="translate(174,31)"/>
<path d="M0 0 C1.485 0.99 1.485 0.99 3 2 C2.67 4.31 2.34 6.62 2 9 C1.01 9.33 0.02 9.66 -1 10 C-1.125 3.375 -1.125 3.375 0 0 Z " fill="#ABABAB" transform="translate(194,354)"/>
<path d="M0 0 C2.97 0 5.94 0 9 0 C8.67 0.99 8.34 1.98 8 3 C5.36 3 2.72 3 0 3 C0 2.01 0 1.02 0 0 Z " fill="#C0C0C0" transform="translate(138,74)"/>
<path d="M0 0 C2.25245881 2.68841859 3.88213958 4.64641875 5 8 C1.74456771 7.65120368 0.98126893 6.97866739 -1.25 4.4375 C-2.11625 3.2309375 -2.11625 3.2309375 -3 2 C-2.01 2 -1.02 2 0 2 C0 1.34 0 0.68 0 0 Z " fill="#AAAAAA" transform="translate(224,32)"/>
<path d="M0 0 C1.32 0.99 2.64 1.98 4 3 C3.34 5.64 2.68 8.28 2 11 C1.67 10.34 1.34 9.68 1 9 C0.34 9 -0.32 9 -1 9 C-0.67 6.03 -0.34 3.06 0 0 Z " fill="#929292" transform="translate(211,20)"/>
<path d="M0 0 C2.4375 0.6875 2.4375 0.6875 5 2 C5.8125 4.625 5.8125 4.625 6 7 C3.50638429 5.79618552 1.31856917 4.54571278 -1 3 C-0.67 2.01 -0.34 1.02 0 0 Z " fill="#A2A2A2" transform="translate(102,89)"/>
<path d="M0 0 C3.65316671 1.24976756 4.78065836 1.67098753 7 5 C6.01 5.33 5.02 5.66 4 6 C0.8125 4.0625 0.8125 4.0625 -2 2 C-1.34 1.34 -0.68 0.68 0 0 Z " fill="#ABABAB" transform="translate(353,60)"/>
<path d="M0 0 C1.125 3.75 1.125 3.75 0 6 C0.66 6 1.32 6 2 6 C1.67 8.31 1.34 10.62 1 13 C0.01 12.34 -0.98 11.68 -2 11 C-1.125 3.375 -1.125 3.375 0 0 Z " fill="#838383" transform="translate(210,356)"/>
<path d="M0 0 C0 1.32 0 2.64 0 4 C-2.31 4 -4.62 4 -7 4 C-6.67 3.01 -6.34 2.02 -6 1 C-4 0 -4 0 0 0 Z " fill="#979797" transform="translate(94,115)"/>
<path d="M0 0 C0.33 0.99 0.66 1.98 1 3 C0.67 3.66 0.34 4.32 0 5 C0.66 5.66 1.32 6.32 2 7 C0.68 7.33 -0.64 7.66 -2 8 C-2.66 6.35 -3.32 4.7 -4 3 C-2.68 2.01 -1.36 1.02 0 0 Z " fill="#CECECE" transform="translate(352,53)"/>
<path d="M0 0 C0.66 0.66 1.32 1.32 2 2 C1.8125 4.5 1.8125 4.5 1 7 C0.01 7.66 -0.98 8.32 -2 9 C-2 8.34 -2 7.68 -2 7 C-2.66 6.67 -3.32 6.34 -4 6 C-2.68 4.02 -1.36 2.04 0 0 Z " fill="#8C8C8C" transform="translate(187,43)"/>
<path d="M0 0 C1.32 0 2.64 0 4 0 C4.33 1.65 4.66 3.3 5 5 C4.01 5.495 4.01 5.495 3 6 C1.5 4.6875 1.5 4.6875 0 3 C0 2.01 0 1.02 0 0 Z " fill="#C4C4C4" transform="translate(287,352)"/>
<path d="M0 0 C2.475 0.99 2.475 0.99 5 2 C4.34 3.32 3.68 4.64 3 6 C1.68 5.67 0.36 5.34 -1 5 C-0.67 3.35 -0.34 1.7 0 0 Z " fill="#999999" transform="translate(97,117)"/>
<path d="M0 0 C0.99 0.33 1.98 0.66 3 1 C2.01 2.98 1.02 4.96 0 7 C-0.99 7 -1.98 7 -3 7 C-3 3.48283697 -2.17554415 2.62878252 0 0 Z " fill="#9D9D9D" transform="translate(354,48)"/>
<path d="M0 0 C1 3 1 3 1 6 C0.01 6.33 -0.98 6.66 -2 7 C-2.66 5.68 -3.32 4.36 -4 3 C-2.68 2.01 -1.36 1.02 0 0 Z " fill="#C8C8C8" transform="translate(384,100)"/>
<path d="M0 0 C0 0.99 0 1.98 0 3 C-1.98 3.33 -3.96 3.66 -6 4 C-6.33 3.01 -6.66 2.02 -7 1 C-4 0 -4 0 0 0 Z " fill="#AFAFAF" transform="translate(391,101)"/>
<path d="M0 0 C-1.1875 1.5 -1.1875 1.5 -3 3 C-5.6875 3.1875 -5.6875 3.1875 -8 3 C-7.67 2.01 -7.34 1.02 -7 0 C-3.86650268 -1.04449911 -3.01031744 -0.93423645 0 0 Z " fill="#C1C1C1" transform="translate(391,87)"/>
<path d="M0 0 C0.33 0 0.66 0 1 0 C1.33 2.97 1.66 5.94 2 9 C1.01 9.66 0.02 10.32 -1 11 C-2.23076923 4.6 -2.23076923 4.6 -1.0625 1.5625 C-0.711875 1.046875 -0.36125 0.53125 0 0 Z " fill="#888888" transform="translate(319,39)"/>
<path d="M0 0 C0.33 0.66 0.66 1.32 1 2 C1.928125 1.773125 2.85625 1.54625 3.8125 1.3125 C7 1 7 1 8.875 2.4375 C9.431875 3.2109375 9.431875 3.2109375 10 4 C7.36 4.33 4.72 4.66 2 5 C2 4.34 2 3.68 2 3 C1.34 3 0.68 3 0 3 C0 2.01 0 1.02 0 0 Z " fill="#868686" transform="translate(211,32)"/>
<path d="M0 0 C1.32 0.33 2.64 0.66 4 1 C4.33 2.65 4.66 4.3 5 6 C3.68 6 2.36 6 1 6 C0.67 4.02 0.34 2.04 0 0 Z " fill="#A5A5A5" transform="translate(196,348)"/>
<path d="M0 0 C0.33 0 0.66 0 1 0 C3.125 6.75 3.125 6.75 2 9 C1.01 8.67 0.02 8.34 -1 8 C-2.2077558 4.37673261 -1.54311128 3.35853631 0 0 Z " fill="#939393" transform="translate(399,130)"/>
<path d="M0 0 C-0.33 0.66 -0.66 1.32 -1 2 C-3.32156597 2.40729228 -5.6568787 2.74438677 -8 3 C-8.33 2.34 -8.66 1.68 -9 1 C-6.04335481 -0.4783226 -3.25770263 -0.06032783 0 0 Z " fill="#CBCBCB" transform="translate(179,32)"/>
<path d="M0 0 C2.475 0.495 2.475 0.495 5 1 C4.67 2.32 4.34 3.64 4 5 C2.68 4.34 1.36 3.68 0 3 C0 2.01 0 1.02 0 0 Z " fill="#C7C7C7" transform="translate(116,100)"/>
<path d="M0 0 C2.475 0.99 2.475 0.99 5 2 C4.01 3.485 4.01 3.485 3 5 C1.68 4.67 0.36 4.34 -1 4 C-0.67 2.68 -0.34 1.36 0 0 Z " fill="#B0B0B0" transform="translate(372,90)"/>
<path d="M0 0 C0.99 0.99 1.98 1.98 3 3 C1.6875 4.5 1.6875 4.5 0 6 C-0.99 6 -1.98 6 -3 6 C-2 4 -1 2 0 0 Z " fill="#A6A6A6" transform="translate(347,57)"/>
<path d="M0 0 C1.99954746 -0.04254356 4.00041636 -0.04080783 6 0 C7 1 7 1 7.0625 4.0625 C7.041875 5.031875 7.02125 6.00125 7 7 C6.401875 6.21625 5.80375 5.4325 5.1875 4.625 C3.08914751 1.85425677 3.08914751 1.85425677 0 0 Z " fill="#E6E6E6" transform="translate(180,41)"/>
<path d="M0 0 C0.33 0.66 0.66 1.32 1 2 C1.99 2 2.98 2 4 2 C4 3.65 4 5.3 4 7 C3.01 7 2.02 7 1 7 C-0.0625 5.1875 -0.0625 5.1875 -1 3 C-0.67 2.01 -0.34 1.02 0 0 Z " fill="#8B8B8B" transform="translate(312,29)"/>
<path d="M0 0 C1.65 0 3.3 0 5 0 C5.33 0.66 5.66 1.32 6 2 C5.67 2.66 5.34 3.32 5 4 C3.02 4 1.04 4 -1 4 C-0.01 3.34 0.98 2.68 2 2 C1.34 1.34 0.68 0.68 0 0 Z " fill="#7D7D7D" transform="translate(139,53)"/>
<path d="M0 0 C0.33 0 0.66 0 1 0 C1 1.98 1 3.96 1 6 C0.34 5.67 -0.32 5.34 -1 5 C-0.67 3.35 -0.34 1.7 0 0 Z " fill="#030303" transform="translate(284,361)"/>
<path d="M0 0 C0.33 0 0.66 0 1 0 C1 1.65 1 3.3 1 5 C0.34 4.01 -0.32 3.02 -1 2 C-0.67 1.34 -0.34 0.68 0 0 Z " fill="#030303" transform="translate(298,359)"/>
<path d="M0 0 C0.33 1.32 0.66 2.64 1 4 C0.34 3.67 -0.32 3.34 -1 3 C-0.67 2.01 -0.34 1.02 0 0 Z " fill="#020202" transform="translate(314,37)"/>
<path d="M0 0 C0.66 0 1.32 0 2 0 C1.67 0.99 1.34 1.98 1 3 C0.67 2.01 0.34 1.02 0 0 Z " fill="#020202" transform="translate(197,360)"/>
<path d="" fill="#020202" transform="translate(0,0)"/>
<path d="" fill="#030303" transform="translate(0,0)"/>
<path d="" fill="#040404" transform="translate(0,0)"/>
<path d="" fill="#020202" transform="translate(0,0)"/>
<path d="" fill="#020202" transform="translate(0,0)"/>
<path d="" fill="#050505" transform="translate(0,0)"/>
<path d="" fill="#020202" transform="translate(0,0)"/>
<path d="M0 0 C2 1 2 1 2 1 Z " fill="#020202" transform="translate(381,93)"/>
<path d="M0 0 C2 1 2 1 2 1 Z " fill="#030303" transform="translate(349,62)"/>
<path d="" fill="#040404" transform="translate(0,0)"/>
<path d="" fill="#030303" transform="translate(0,0)"/>
<path d="" fill="#010101" transform="translate(0,0)"/>
<path d="" fill="#040404" transform="translate(0,0)"/>
<path d="" fill="#030303" transform="translate(0,0)"/>
<path d="" fill="#040404" transform="translate(0,0)"/>
<path d="" fill="#020202" transform="translate(0,0)"/>
<path d="" fill="#040404" transform="translate(0,0)"/>
<path d="" fill="#040404" transform="translate(0,0)"/>
<path d="" fill="#030303" transform="translate(0,0)"/>
<path d="" fill="#020202" transform="translate(0,0)"/>
<path d="" fill="#010101" transform="translate(0,0)"/>
<path d="" fill="#050505" transform="translate(0,0)"/>
<path d="" fill="#040404" transform="translate(0,0)"/>
<path d="" fill="#030303" transform="translate(0,0)"/>
<path d="" fill="#030303" transform="translate(0,0)"/>
<path d="" fill="#050505" transform="translate(0,0)"/>
<path d="" fill="#060606" transform="translate(0,0)"/>
<path d="" fill="#040404" transform="translate(0,0)"/>
<path d="" fill="#030303" transform="translate(0,0)"/>
<path d="" fill="#010101" transform="translate(0,0)"/>
<path d="" fill="#060606" transform="translate(0,0)"/>
<path d="" fill="#040404" transform="translate(0,0)"/>
<path d="" fill="#010101" transform="translate(0,0)"/>
<path d="" fill="#030303" transform="translate(0,0)"/>
<path d="" fill="#010101" transform="translate(0,0)"/>
<path d="" fill="#040404" transform="translate(0,0)"/>
<path d="" fill="#050505" transform="translate(0,0)"/>
<path d="" fill="#030303" transform="translate(0,0)"/>
<path d="" fill="#050505" transform="translate(0,0)"/>
<path d="" fill="#030303" transform="translate(0,0)"/>
<path d="" fill="#010101" transform="translate(0,0)"/>
</svg>
