<?xml version="1.0" encoding="UTF-8"?>
<svg version="1.1" xmlns="http://www.w3.org/2000/svg" width="500" height="400">
<path d="M0 0 C3.39074003 1.13024668 3.77974658 1.75803884 5.72875977 4.59375 C8.90384002 8.98602271 12.47425279 12.71482122 16.33984375 16.5 C17.02502579 17.17998047 17.71020782 17.85996094 18.41615295 18.56054688 C20.58516392 20.71191682 22.76079087 22.85642154 24.9375 25 C27.10975699 27.14443545 29.28044452 29.29040181 31.44813538 31.43945312 C32.78988126 32.76915645 34.13428749 34.09618322 35.48191833 35.41992188 C38.45828026 38.36497045 41.32255187 41.33616466 44.02954102 44.53125 C50.04782846 51.30483011 56.59292691 57.59292691 63 64 C63.33 44.2 63.66 24.4 64 4 C68.29 3.67 72.58 3.34 77 3 C77 33.36 77 63.72 77 95 C73.71862567 93.90620856 73.12381115 93.2313756 71.00488281 90.64257812 C66.26088682 85.05670037 61.09046415 79.90646302 55.921875 74.71875 C55.40247597 74.19652359 54.88307693 73.67429718 54.34793854 73.13624573 C51.61093461 70.38437846 48.8711699 67.6352975 46.12890625 64.88867188 C43.29865017 62.05288194 40.47782746 59.20789301 37.65897751 56.36077118 C35.48330548 54.16652857 33.30100608 51.97897124 31.1167984 49.79322815 C30.07288827 48.74628936 29.03148216 47.69684762 27.99263763 46.6448822 C26.54728591 45.18255205 25.09285413 43.72989569 23.63574219 42.27929688 C22.81080261 41.45071167 21.98586304 40.62212646 21.13592529 39.76843262 C19.07703779 37.68113372 19.07703779 37.68113372 16 38 C15.67 55.82 15.34 73.64 15 92 C10.05 92 5.1 92 0 92 C0 61.64 0 31.28 0 0 Z " fill="#202020" transform="translate(285,150)"/>
<path d="M0 0 C-0.50797009 4.3177458 -1.19682779 8.03302114 -3 12 C-6.46695412 11.36004252 -9.75894301 10.47746089 -13.125 9.4375 C-23.45451792 6.62287968 -32.85724842 7.44571213 -42.44921875 12.21875 C-49.56666085 16.45392216 -52.29070775 21.7674668 -55.3125 29.25 C-57.25905103 39.86755108 -56.38270965 49.41082263 -50.9375 58.83984375 C-47.71423695 63.23825479 -43.00497817 66.04078632 -38 68 C-34.20747213 68.25197243 -34.20747213 68.25197243 -31 68 C-30.01 68.99 -30.01 68.99 -29 70 C-23.99472983 70.59062188 -18.9141272 70.00802609 -14 69 C-14 68.34 -14 67.68 -14 67 C-13.34 66.67 -12.68 66.34 -12 66 C-12 61.71 -12 57.42 -12 53 C-18.93 52.505 -18.93 52.505 -26 52 C-26 47.71 -26 43.42 -26 39 C-16.1 39 -6.2 39 4 39 C4.13788435 44.05575957 4.25724899 49.10498954 4.32958984 54.16113281 C4.35974161 55.88010771 4.4006713 57.59892902 4.45263672 59.31738281 C4.52553181 61.79009864 4.55946901 64.26077994 4.5859375 66.734375 C4.61690521 67.50118591 4.64787292 68.26799683 4.67977905 69.05804443 C4.68115234 71.24121094 4.68115234 71.24121094 4 75 C-5.54030722 83.11925482 -19.00143135 84.43615511 -31.0625 83.8515625 C-42.61503107 82.46894575 -53.31310516 76.96053861 -61.1640625 68.39453125 C-67.52555429 60.09752175 -70.39408852 50.81267359 -70.375 40.4375 C-70.37556396 39.65826172 -70.37612793 38.87902344 -70.37670898 38.07617188 C-70.1901455 28.08534072 -68.19249701 18.19249701 -61 11 C-60.58878906 10.47019531 -60.17757812 9.94039062 -59.75390625 9.39453125 C-53.38088344 1.21611954 -44.1718166 -3.20704585 -34.25 -5.6875 C-22.03037498 -6.86246394 -11.1215495 -5.30801226 0 0 Z M-10 51 C-10.33 56.61 -10.66 62.22 -11 68 C-10.34 68 -9.68 68 -9 68 C-9 62.39 -9 56.78 -9 51 C-9.33 51 -9.66 51 -10 51 Z " fill="#1A1A1A" transform="translate(209,159)"/>
<path d="M0 0 C0 64.35 0 128.7 0 195 C-1.98 195 -3.96 195 -6 195 C-6 130.98 -6 66.96 -6 1 C-1 0 -1 0 0 0 Z " fill="#515151" transform="translate(253,102)"/>
<path d="M0 0 C0.99 0 1.98 0 3 0 C3.18451025 16.70842825 3.18451025 16.70842825 2 25 C-0.3125 24.8125 -0.3125 24.8125 -3 24 C-4.03013277 22.35178756 -5.03114628 20.68496298 -6 19 C-7.32 18.67 -8.64 18.34 -10 18 C-10 21.3 -10 24.6 -10 28 C-11.98 28.33 -13.96 28.66 -16 29 C-16.28721924 28.52054932 -16.57443848 28.04109863 -16.87036133 27.54711914 C-18.17545 25.38003557 -19.49374706 23.22129306 -20.8125 21.0625 C-21.49022461 19.93038086 -21.49022461 19.93038086 -22.18164062 18.77539062 C-22.62314453 18.05673828 -23.06464844 17.33808594 -23.51953125 16.59765625 C-23.92276611 15.93258057 -24.32600098 15.26750488 -24.74145508 14.58227539 C-26.00841644 12.69407879 -26.00841644 12.69407879 -29 12 C-28.34 10.35 -27.68 8.7 -27 7 C-23.29346269 8.23551244 -22.35084565 9.96665078 -20 13 C-19.34 13.33 -18.68 13.66 -18 14 C-17.96261719 13.30132812 -17.92523438 12.60265625 -17.88671875 11.8828125 C-17.82097656 10.97273438 -17.75523437 10.06265625 -17.6875 9.125 C-17.62949219 8.22007812 -17.57148438 7.31515625 -17.51171875 6.3828125 C-17 4 -17 4 -14 2 C-13.01 2 -12.02 2 -11 2 C-9.29305123 4.47640237 -7.78629988 6.8908806 -6.3125 9.5 C-5.89677734 10.21542969 -5.48105469 10.93085938 -5.05273438 11.66796875 C-4.025202 13.43957629 -3.01130764 15.21908088 -2 17 C-1.90912109 15.66195313 -1.90912109 15.66195313 -1.81640625 14.296875 C-1.73261719 13.12640625 -1.64882813 11.9559375 -1.5625 10.75 C-1.48128906 9.58984375 -1.40007812 8.4296875 -1.31640625 7.234375 C-1.06752213 4.69022624 -0.71885058 2.44046752 0 0 Z M-16 5 C-16.22119939 7.62450086 -16.42746669 10.24870486 -16.625 12.875 C-16.68945312 13.62136719 -16.75390625 14.36773437 -16.8203125 15.13671875 C-16.96087365 17.0870047 -16.98759849 19.04469467 -17 21 C-16.34 21.66 -15.68 22.32 -15 23 C-15 17.06 -15 11.12 -15 5 C-15.33 5 -15.66 5 -16 5 Z M-11 11 C-10.67 11.99 -10.34 12.98 -10 14 C-10 13.01 -10 12.02 -10 11 C-10.33 11 -10.66 11 -11 11 Z M-9 14 C-8 16 -8 16 -8 16 Z M-19 16 C-18 18 -18 18 -18 18 Z " fill="#787878" transform="translate(301,348)"/>
<path d="M0 0 C0.99 0.33 1.98 0.66 3 1 C2.44555211 4.88113524 0.71136783 6.28863217 -2 9 C-3.45376413 11.28167048 -4.71575372 13.61497119 -6 16 C-5.33613281 15.79503906 -4.67226563 15.59007813 -3.98828125 15.37890625 C-3.10527344 15.10949219 -2.22226562 14.84007813 -1.3125 14.5625 C-0.44238281 14.29566406 0.42773438 14.02882813 1.32421875 13.75390625 C3.87025921 13.03655471 6.4003423 12.482459 9 12 C9.99 13.485 9.99 13.485 11 15 C10.6390625 15.48210937 10.278125 15.96421875 9.90625 16.4609375 C9.21015625 17.40839844 9.21015625 17.40839844 8.5 18.375 C7.80390625 19.31472656 7.80390625 19.31472656 7.09375 20.2734375 C5.82161899 21.94094613 5.82161899 21.94094613 6 24 C11.445 22.515 11.445 22.515 17 21 C17.66 21.66 18.32 22.32 19 23 C19.66 23.33 20.32 23.66 21 24 C20.67 25.32 20.34 26.64 20 28 C19.071875 28.12375 18.14375 28.2475 17.1875 28.375 C13.86074765 28.81533082 13.86074765 28.81533082 11 31 C7.95953973 32.01348676 4.92325754 32.79317287 1.8125 33.5625 C0.72582031 33.83191406 -0.36085938 34.10132813 -1.48046875 34.37890625 C-2.31191406 34.58386719 -3.14335937 34.78882813 -4 35 C-4.65234375 33.234375 -4.65234375 33.234375 -5 31 C-4.00390625 29.078125 -4.00390625 29.078125 -2.5625 27.25 C-1.85287109 26.32960938 -1.85287109 26.32960938 -1.12890625 25.390625 C-0.75636719 24.93171875 -0.38382812 24.4728125 0 24 C-0.33 23.34 -0.66 22.68 -1 22 C-2.051875 22.495 -3.10375 22.99 -4.1875 23.5 C-7.25452609 24.82779788 -9.62134936 25.30715006 -13 25 C-13.86328125 22.546875 -13.86328125 22.546875 -14 19 C-12.43317254 15.81030581 -10.334108 13.0718094 -8.1875 10.25 C-7.62740234 9.48300781 -7.06730469 8.71601562 -6.49023438 7.92578125 C-4.43457944 5.13087645 -2.45578246 2.45578246 0 0 Z M1 1 C2 3 2 3 2 3 Z M3 17 C2.34 17.66 1.68 18.32 1 19 C1.66 19.66 2.32 20.32 3 21 C3.66 19.68 4.32 18.36 5 17 C4.34 17 3.68 17 3 17 Z M3 25 C1.515 27.475 1.515 27.475 0 30 C2.31 29.34 4.62 28.68 7 28 C6.01 27.67 5.02 27.34 4 27 C3.67 26.34 3.34 25.68 3 25 Z " fill="#4B4B4B" transform="translate(385,72)"/>
<path d="M0 0 C0.99 0.33 1.98 0.66 3 1 C3.88428909 3.78238437 4.40084439 6.56965097 4.9609375 9.43359375 C5.77350648 12.24036907 5.77350648 12.24036907 8.6015625 13.34765625 C9.39304687 13.56292969 10.18453125 13.77820312 11 14 C11.99 11.69 12.98 9.38 14 7 C14.99 7 15.98 7 17 7 C16.32509334 12.26427196 14.74580136 17.01877329 13 22 C12.67 22.99 12.34 23.98 12 25 C11.03126968 26.35622245 10.03565785 27.69417053 9 29 C8.38125 28.814375 7.7625 28.62875 7.125 28.4375 C4.95839822 27.76313824 4.95839822 27.76313824 3 29 C2.01 25.37 1.02 21.74 0 18 C-0.66 18 -1.32 18 -2 18 C-2.66 19.32 -3.32 20.64 -4 22 C-4.33 21.67 -4.66 21.34 -5 21 C-5.33 21.66 -5.66 22.32 -6 23 C-6.99 22.67 -7.98 22.34 -9 22 C-2.97560976 2.97560976 -2.97560976 2.97560976 0 0 Z M0 7 C1 10 1 10 1 10 Z M-1 10 C0 12 0 12 0 12 Z M1 11 C2 15 2 15 2 15 Z M-2 12 C-1 14 -1 14 -1 14 Z M-3 15 C-2 17 -2 17 -2 17 Z M2 15 C2 16.65 2 18.3 2 20 C2.33 20 2.66 20 3 20 C3 18.35 3 16.7 3 15 C2.67 15 2.34 15 2 15 Z M9 16 C10 18 10 18 10 18 Z M-4 17 C-3 19 -3 19 -3 19 Z M7 18 C7.33 19.32 7.66 20.64 8 22 C8.33 21.01 8.66 20.02 9 19 C8.34 18.67 7.68 18.34 7 18 Z M3 20 C3 21.65 3 23.3 3 25 C3.33 25 3.66 25 4 25 C4 23.35 4 21.7 4 20 C3.67 20 3.34 20 3 20 Z " fill="#626262" transform="translate(314,26)"/>
<path d="M0 0 C1.89355469 0.26147461 1.89355469 0.26147461 4 1 C5.00488281 2.67407227 5.00488281 2.67407227 5.703125 4.81640625 C5.9609375 5.58017578 6.21875 6.34394531 6.484375 7.13085938 C6.73703125 7.93330078 6.9896875 8.73574219 7.25 9.5625 C7.518125 10.36880859 7.78625 11.17511719 8.0625 12.00585938 C8.72298564 13.99911067 9.36341102 15.99898864 10 18 C11.90389849 15.14415227 12.69462177 13.0688238 13.625 9.8125 C13.88539063 8.91144531 14.14578125 8.01039063 14.4140625 7.08203125 C14.60742188 6.39496094 14.80078125 5.70789063 15 5 C16.32 5 17.64 5 19 5 C18.37650642 7.52121432 17.75124639 10.04196931 17.125 12.5625 C16.95097656 13.26697266 16.77695313 13.97144531 16.59765625 14.69726562 C15.48705185 19.16024998 14.28798784 23.58487052 13 28 C11.68 28 10.36 28 9 28 C4.90415689 23.90415689 4.27428684 21.64327031 3 16 C2.34 16 1.68 16 1 16 C0.67 17.98 0.34 19.96 0 22 C-0.66 22 -1.32 22 -2 22 C-2.33 22.66 -2.66 23.32 -3 24 C-3.99 23.67 -4.98 23.34 -6 23 C-5.38334864 17.60607261 -4.12077204 12.71604717 -2.4375 7.5625 C-2.20353516 6.83095703 -1.96957031 6.09941406 -1.72851562 5.34570312 C-1.15732778 3.56219821 -0.57936877 1.78086417 0 0 Z M1 8 C1 8.99 1 9.98 1 11 C1.66 11 2.32 11 3 11 C2.67 10.01 2.34 9.02 2 8 C1.67 8 1.34 8 1 8 Z M0 12 C1 15 1 15 1 15 Z M3 12 C3.33 13.65 3.66 15.3 4 17 C4.33 16.01 4.66 15.02 5 14 C4.34 13.34 3.68 12.68 3 12 Z M-1 15 C0 18 0 18 0 18 Z M5 17 C6 20 6 20 6 20 Z M6 20 C7 23 7 23 7 23 Z " fill="#9C9C9C" transform="translate(196,348)"/>
<path d="M0 0 C4.60670011 0.43688993 7.55607802 0.81909525 10.9375 4.0625 C11.52402344 4.61035156 12.11054688 5.15820312 12.71484375 5.72265625 C13.13894531 6.14417969 13.56304687 6.56570312 14 7 C13.67 8.32 13.34 9.64 13 11 C9.33118845 10.29445932 6.29549466 8.72264494 3 7 C2.67 7.66 2.34 8.32 2 9 C2.804375 9.391875 3.60875 9.78375 4.4375 10.1875 C7 12 7 12 7.8125 14.6875 C7.874375 15.450625 7.93625 16.21375 8 17 C5.9375 17.8125 5.9375 17.8125 3 18 C0.45310725 16.58973707 -1.76642506 14.86023965 -4 13 C-4.33 13.66 -4.66 14.32 -5 15 C-3.71034824 16.37562854 -2.37310707 17.70766393 -1 19 C-0.34 19 0.32 19 1 19 C1.98120464 22.05263664 1.98120464 23.94736336 1 27 C-3.22489602 26.46719784 -5.54080716 25.12321801 -8.8125 22.4375 C-9.99779297 21.47650391 -9.99779297 21.47650391 -11.20703125 20.49609375 C-11.79871094 20.00238281 -12.39039063 19.50867188 -13 19 C-11.68779266 16.22561876 -10.22517631 13.79209828 -8.3984375 11.328125 C-7.90859375 10.66425781 -7.41875 10.00039063 -6.9140625 9.31640625 C-6.40617187 8.63449219 -5.89828125 7.95257813 -5.375 7.25 C-4.859375 6.55261719 -4.34375 5.85523438 -3.8125 5.13671875 C-2.54440881 3.42244733 -1.2725711 1.71094844 0 0 Z M1 4 C1 4.66 1 5.32 1 6 C1.66 5.67 2.32 5.34 3 5 C2.34 4.67 1.68 4.34 1 4 Z M-8 17 C-7 19 -7 19 -7 19 Z " fill="#4E4E4E" transform="translate(354,48)"/>
<path d="M0 0 C0.4640625 0.9590625 0.4640625 0.9590625 0.9375 1.9375 C1.8345163 3.93610821 1.8345163 3.93610821 3 5 C3.04063832 6.66617115 3.042721 8.33388095 3 10 C3.61875 10.2475 4.2375 10.495 4.875 10.75 C7.43898664 12.25822744 8.11257047 13.17636058 9 16 C8.83617724 19.27645511 8.30743439 20.65157436 6.125 23.125 C5.42375 23.74375 4.7225 24.3625 4 25 C3.54625 25.5775 3.0925 26.155 2.625 26.75 C0.19936491 28.61587315 -2.02517556 28.08018395 -5 28 C-5.55429688 26.86820313 -6.10859375 25.73640625 -6.6796875 24.5703125 C-7.4112463 23.08843697 -8.14302878 21.60667185 -8.875 20.125 C-9.23980469 19.37863281 -9.60460937 18.63226563 -9.98046875 17.86328125 C-10.33496094 17.14785156 -10.68945312 16.43242188 -11.0546875 15.6953125 C-11.37937012 15.03547363 -11.70405273 14.37563477 -12.03857422 13.69580078 C-13.00275819 11.81965314 -13.00275819 11.81965314 -15 10 C-15.33 9.01 -15.66 8.02 -16 7 C-15.195625 6.38125 -14.39125 5.7625 -13.5625 5.125 C-10.96125481 3.25835959 -10.96125481 3.25835959 -10 1 C-6.52674819 -0.1577506 -3.63932552 -0.06866652 0 0 Z M-7.1875 6.4375 C-8.115625 6.953125 -9.04375 7.46875 -10 8 C-9.34 9.98 -8.68 11.96 -8 14 C-3.58477891 12.73025028 -3.58477891 12.73025028 0 10 C-0.08571661 7.90708843 -0.08571661 7.90708843 -1 6 C-4.07242053 4.59903754 -4.07242053 4.59903754 -7.1875 6.4375 Z M-6 17 C-5.34 18.98 -4.68 20.96 -4 23 C-0.17902761 22.46930939 2.06171403 21.50298434 5 19 C4.67 17.35 4.34 15.7 4 14 C-0.33094958 14 -2.27034861 14.96564469 -6 17 Z " fill="#3E3E3E" transform="translate(180,29)"/>
<path d="M0 0 C3.99255399 4.28469209 7.06758706 7.82340816 6.9375 13.9375 C5.69939974 17.98196086 3.91497613 19.94282991 1 23 C-2.22156083 24.61078041 -5.50668437 24.45536703 -9 24 C-13.06052181 22.08465952 -14.67719951 20.53463832 -17 16.6875 C-18.21507355 12.20691629 -17.87578856 10.22052427 -16 6 C-12.05240898 0.77524719 -6.53561388 -2.17853796 0 0 Z M-12 6 C-14.13342994 9.20014491 -14.25246655 9.722628 -13.8125 13.3125 C-13.544375 14.529375 -13.27625 15.74625 -13 17 C-12.01 17 -11.02 17 -10 17 C-9.05125 17.33 -8.1025 17.66 -7.125 18 C-4.14603799 18.95326784 -2.08155592 19.08356762 1 19 C2.35958033 11.93812204 2.35958033 11.93812204 0.5 5.3125 C-4.23081521 2.82882201 -7.57894781 3.05263187 -12 6 Z M2 10 C2 11.65 2 13.3 2 15 C2.33 15 2.66 15 3 15 C3 13.35 3 11.7 3 10 C2.67 10 2.34 10 2 10 Z M-7 20 C-3 21 -3 21 -3 21 Z " fill="#4D4D4D" transform="translate(147,53)"/>
<path d="M0 0 C0 1.32 0 2.64 0 4 C-0.94875 4.268125 -1.8975 4.53625 -2.875 4.8125 C-6.25267273 5.74986588 -6.25267273 5.74986588 -8 9 C-8.45185216 12.53950857 -8.42109443 14.33326715 -6.5 17.375 C-2.73102871 19.82483134 -0.45665069 19.5659239 4 19 C6.16666667 17.5 6.16666667 17.5 7 15 C7.25086724 11.83267579 7.25086724 11.83267579 7 9 C6.34 8.67 5.68 8.34 5 8 C4.01 10.31 3.02 12.62 2 15 C1.01 14.67 0.02 14.34 -1 14 C-0.33501617 9.61110675 1.18757677 6.0188515 3 2 C6.90181526 3.2654536 8.94481034 4.40341809 11 8 C12.31965215 11.4876521 12.01688158 12.94654166 10.875 16.5625 C8.87151664 20.23555282 7.64777869 21.97345628 4 24 C-0.8149809 24.61142615 -2.95976415 24.51030438 -7.3125 22.375 C-10.35498532 19.68629204 -11.71608379 17.85174864 -13 14 C-13 9.68647747 -12.26295003 6.96640337 -9.625 3.625 C-6.21236085 0.21236085 -4.81988535 0 0 0 Z " fill="#494949" transform="translate(94,115)"/>
<path d="M0 0 C3.00517444 0.20636391 3.91597408 0.90474795 5.9296875 3.1875 C6.57164062 4.115625 7.21359375 5.04375 7.875 6 C8.56335938 6.98871094 9.25171875 7.97742188 9.9609375 8.99609375 C10.63382813 9.98738281 11.30671875 10.97867187 12 12 C12.61101562 12.87785156 13.22203125 13.75570313 13.8515625 14.66015625 C18 20.70586493 18 20.70586493 18 23 C13.59113498 23.15887802 9.88223316 22.63526218 5.625 21.5 C4.56539062 21.2215625 3.50578125 20.943125 2.4140625 20.65625 C1.61742187 20.4396875 0.82078125 20.223125 0 20 C-0.33 22.31 -0.66 24.62 -1 27 C-2.32 26.67 -3.64 26.34 -5 26 C-4.87882813 25.45585449 -4.75765625 24.91170898 -4.6328125 24.35107422 C-4.08204403 21.86043565 -3.54095676 19.36778723 -3 16.875 C-2.71382812 15.59109375 -2.71382812 15.59109375 -2.421875 14.28125 C-1.44550797 9.74811737 -0.8808565 5.66148942 -1 1 C-0.67 0.67 -0.34 0.34 0 0 Z M3 6 C3 6.99 3 7.98 3 9 C3.66 8.67 4.32 8.34 5 8 C4.34 7.34 3.68 6.68 3 6 Z M5 9 C6 11 6 11 6 11 Z M2 10 C3 14 3 14 3 14 Z M7 12 C8 14 8 14 8 14 Z M1 15 C2 17 2 17 2 17 Z M3 15 C7 16 7 16 7 16 Z M5 19 C5 19.33 5 19.66 5 20 C6.65 20 8.3 20 10 20 C10 19.67 10 19.34 10 19 C8.35 19 6.7 19 5 19 Z " fill="#2F2F2F" transform="translate(211,17)"/>
<path d="M0 0 C3.07469523 1.70251719 5.40613254 3.81226508 7 7 C7.43032996 11.21226823 7.42629046 14.91059104 5.875 18.875 C3.0619932 22.06307437 0.34306084 23.84379594 -3.9921875 24.1328125 C-8.04061057 23.87310234 -9.73135675 23.22291674 -12.9375 20.5625 C-16.05959227 16.68353687 -16.39083049 14.2037258 -16.359375 9.328125 C-15.75455722 5.40995764 -13.83123243 3.69641184 -11 1 C-7.51556578 -0.74221711 -3.80112955 -0.58675154 0 0 Z M-7 3 C-7 3.33 -7 3.66 -7 4 C-5.35 4 -3.7 4 -2 4 C-2 3.67 -2 3.34 -2 3 C-3.65 3 -5.3 3 -7 3 Z M-11.875 7.125 C-13.26330768 10.6728974 -13.15364001 12.38526131 -12 16 C-10.5 18.5 -10.5 18.5 -8 20 C-4.0508385 20.56416593 -1.9535616 20.65243688 1.375 18.375 C3.34640997 15.4937085 3.85202291 13.47746165 4 10 C3.34 9.01 2.68 8.02 2 7 C1.34 7 0.68 7 0 7 C-0.763125 6.67 -1.52625 6.34 -2.3125 6 C-6.3903465 4.48266177 -8.81636205 3.65854366 -11.875 7.125 Z " fill="#353535" transform="translate(249,357)"/>
<path d="M0 0 C3.5 0.9375 3.5 0.9375 5.5 3.0625 C6.76620739 6.70284624 6.303528 9.212052 5.5 12.9375 C4.18 12.9375 2.86 12.9375 1.5 12.9375 C1.5 10.2975 1.5 7.6575 1.5 4.9375 C-0.975 4.4425 -0.975 4.4425 -3.5 3.9375 C-3.41298828 5.16726562 -3.41298828 5.16726562 -3.32421875 6.421875 C-2.95661584 15.20233319 -2.95661584 15.20233319 -5.625 18.8125 C-8.5 19.9375 -8.5 19.9375 -11.625 19.5 C-15.00651128 17.66222213 -16.11660345 16.51805577 -17.5 12.9375 C-17.26167267 9.89882655 -16.8610499 7.65959981 -15.5 4.9375 C-14.18 5.2675 -12.86 5.5975 -11.5 5.9375 C-11.83 6.5975 -12.16 7.2575 -12.5 7.9375 C-12.539992 9.93710012 -12.54346799 11.93797242 -12.5 13.9375 C-11.18 14.2675 -9.86 14.5975 -8.5 14.9375 C-7.82859108 11.86820206 -7.40379177 8.87360572 -7.125 5.75 C-6.91875 4.491875 -6.7125 3.23375 -6.5 1.9375 C-3.5 -0.0625 -3.5 -0.0625 0 0 Z " fill="#515151" transform="translate(413.5,121.0625)"/>
<path d="M0 0 C0.33 0 0.66 0 1 0 C1 49.17 1 98.34 1 149 C0.67 149 0.34 149 0 149 C0 99.83 0 50.66 0 0 Z " fill="#F0F0F0" transform="translate(245,147)"/>
<path d="M0 0 C1.32 0 2.64 0 4 0 C4.06058594 1.13179687 4.12117187 2.26359375 4.18359375 3.4296875 C4.26799917 4.91147145 4.35264717 6.3932416 4.4375 7.875 C4.47681641 8.62136719 4.51613281 9.36773437 4.55664062 10.13671875 C4.71573624 14.19986864 4.71573624 14.19986864 6 18 C8.31 18 10.62 18 13 18 C13.33 19.98 13.66 21.96 14 24 C9.38 24 4.76 24 0 24 C0 16.08 0 8.16 0 0 Z " fill="#C2C2C2" transform="translate(248,15)"/>
<path d="M0 0 C4.35647645 1.44950405 7.31757289 3.67747112 10.8125 6.625 C11.78832031 7.44226563 12.76414062 8.25953125 13.76953125 9.1015625 C14.87361328 10.04128906 14.87361328 10.04128906 16 11 C20.25295667 7.19793526 20.25295667 7.19793526 22 2 C22.99 2.33 23.98 2.66 25 3 C25.33 3.99 25.66 4.98 26 6 C24.34765625 8.48046875 24.34765625 8.48046875 22.0625 11.1875 C21.31097656 12.08855469 20.55945313 12.98960938 19.78515625 13.91796875 C19.19605469 14.60503906 18.60695313 15.29210937 18 16 C13.70938218 14.56459331 10.8113019 12.4156501 7.375 9.5 C4.62748625 7.18155004 1.99254012 4.99502675 -1 3 C-0.67 2.01 -0.34 1.02 0 0 Z " fill="#545454" transform="translate(102,89)"/>
<path d="M0 0 C0.33 0 0.66 0 1 0 C1 2.64 1 5.28 1 8 C1.99 7.67 2.98 7.34 4 7 C5.70506304 7.98369021 7.40777484 8.972558 9.08203125 10.0078125 C12.02728816 11.53142809 14.71581714 11.73190344 18 12 C17.814375 11.443125 17.62875 10.88625 17.4375 10.3125 C16.92448835 7.600867 17.3359276 5.65628961 18 3 C18.33 3 18.66 3 19 3 C19.33 5.31 19.66 7.62 20 10 C20.66 10 21.32 10 22 10 C20.60042311 13.38231081 19.26935579 15.27928642 16 17 C11.27699812 17.53324215 8.9896071 17.4667958 4.6875 15.4375 C1.42550621 12.47894749 0.23584394 10.21640873 -1 6 C-0.6875 2.5625 -0.6875 2.5625 0 0 Z M10 13 C14 14 14 14 14 14 Z " fill="#848484" transform="translate(130,60)"/>
<path d="M0 0 C0.33 0.66 0.66 1.32 1 2 C1.99 2 2.98 2 4 2 C3.96519531 2.90878906 3.96519531 2.90878906 3.9296875 3.8359375 C3.80961183 9.41087944 4.31121264 14.36002979 5.66015625 19.7734375 C6 22 6 22 5 26 C4.01 22.37 3.02 18.74 2 15 C1.34 15 0.68 15 0 15 C-0.66 16.32 -1.32 17.64 -2 19 C-2.33 18.67 -2.66 18.34 -3 18 C-3.33 18.66 -3.66 19.32 -4 20 C-4.99 19.67 -5.98 19.34 -7 19 C-4.94235079 12.54646385 -2.57616518 6.2638737 0 0 Z M2 4 C3 7 3 7 3 7 Z M1 7 C2 9 2 9 2 9 Z M0 9 C1 11 1 11 1 11 Z M-1 12 C0 14 0 14 0 14 Z M-2 14 C-1 16 -1 16 -1 16 Z " fill="#4A4A4A" transform="translate(312,29)"/>
<path d="M0 0 C0.99 0.33 1.98 0.66 3 1 C2.44555211 4.88113524 0.71136783 6.28863217 -2 9 C-3.45376413 11.28167048 -4.71575372 13.61497119 -6 16 C-5.01 16.99 -4.02 17.98 -3 19 C-6.20336822 21.83374881 -8.78087253 22.5205537 -13 23 C-13.65356445 21.25244141 -13.65356445 21.25244141 -14 19 C-13.04370117 17.01708984 -13.04370117 17.01708984 -11.54296875 14.9609375 C-11.00736328 14.21585938 -10.47175781 13.47078125 -9.91992188 12.703125 C-9.06237305 11.55070312 -9.06237305 11.55070312 -8.1875 10.375 C-7.34735352 9.21097656 -7.34735352 9.21097656 -6.49023438 8.0234375 C-2.41629464 2.41629464 -2.41629464 2.41629464 0 0 Z M1 1 C2 3 2 3 2 3 Z " fill="#4E4E4E" transform="translate(385,72)"/>
<path d="M0 0 C0.33 0 0.66 0 1 0 C1 19.47 1 38.94 1 59 C-3.36670004 55.25711426 -7.43141441 51.68596348 -11.4375 47.625 C-12.30246094 46.75101563 -13.16742188 45.87703125 -14.05859375 44.9765625 C-14.69925781 44.32429688 -15.33992188 43.67203125 -16 43 C-15.67 42.34 -15.34 41.68 -15 41 C-14.16855469 41.85464844 -13.33710938 42.70929688 -12.48046875 43.58984375 C-11.38307952 44.70599177 -10.28540855 45.82186282 -9.1875 46.9375 C-8.64029297 47.50146484 -8.09308594 48.06542969 -7.52929688 48.64648438 C-4.22039606 52.01029562 -4.22039606 52.01029562 0 54 C0 36.18 0 18.36 0 0 Z " fill="#EDEDED" transform="translate(347,154)"/>
<path d="M0 0 C4.59352602 1.47927109 7.30922029 3.82975695 10.6875 7.1875 C10.3575 8.5075 10.0275 9.8275 9.6875 11.1875 C6.53419446 10.58055845 4.49861133 9.5458335 1.9375 7.625 C1.01710938 6.94244141 1.01710938 6.94244141 0.078125 6.24609375 C-0.38078125 5.89675781 -0.8396875 5.54742187 -1.3125 5.1875 C-2.26125 6.0125 -3.21 6.8375 -4.1875 7.6875 C-7.0625 10.1875 -7.0625 10.1875 -9.3125 10.1875 C-5.93481996 0.33593321 -5.93481996 0.33593321 0 0 Z " fill="#A4A4A4" transform="translate(357.3125,47.8125)"/>
<path d="M0 0 C0.52078125 0.37898438 1.0415625 0.75796875 1.578125 1.1484375 C0.258125 3.4584375 -1.061875 5.7684375 -2.421875 8.1484375 C-2.751875 7.4884375 -3.081875 6.8284375 -3.421875 6.1484375 C-4.411875 5.8184375 -5.401875 5.4884375 -6.421875 5.1484375 C-6.66292969 5.77234375 -6.90398437 6.39625 -7.15234375 7.0390625 C-9.11290085 10.29660352 -11.65231445 10.5755646 -15.15625 11.62109375 C-17.64195063 12.199662 -19.87797365 12.3946215 -22.421875 12.1484375 C-19.50784238 10.20574909 -16.56378924 8.68448446 -13.421875 7.1484375 C-14.081875 6.1584375 -14.741875 5.1684375 -15.421875 4.1484375 C-13.3465068 3.25470957 -11.26120494 2.38402054 -9.171875 1.5234375 C-8.01171875 1.03617187 -6.8515625 0.54890625 -5.65625 0.046875 C-2.421875 -0.8515625 -2.421875 -0.8515625 0 0 Z " fill="#5D5D5D" transform="translate(394.421875,84.8515625)"/>
<path d="M0 0 C0.66 0.33 1.32 0.66 2 1 C1.67 1.33 1.34 1.66 1 2 C0.76346477 4.52596259 0.57826308 7.03107207 0.4375 9.5625 C0.39431641 10.27341797 0.35113281 10.98433594 0.30664062 11.71679688 C0.20028223 13.47761912 0.09961154 15.2387832 0 17 C-0.66 17 -1.32 17 -2 17 C-2 17.66 -2 18.32 -2 19 C-5.34116462 17.92605423 -6.47880121 16.42145757 -8.0625 13.4375 C-9.63488132 9.7488309 -9.63488132 9.7488309 -13 9 C-12.34 7.35 -11.68 5.7 -11 4 C-7.29346269 5.23551244 -6.35084565 6.96665078 -4 10 C-3.34 10.33 -2.68 10.66 -2 11 C-1.93941406 10.28972656 -1.87882812 9.57945312 -1.81640625 8.84765625 C-1.73261719 7.92855469 -1.64882813 7.00945312 -1.5625 6.0625 C-1.48128906 5.14597656 -1.40007812 4.22945313 -1.31640625 3.28515625 C-1 1 -1 1 0 0 Z M-3 13 C-2 15 -2 15 -2 15 Z " fill="#9C9C9C" transform="translate(285,351)"/>
<path d="M0 0 C2.5 0.125 2.5 0.125 5 1 C6.8115522 3.3056119 7.02115584 4.57688322 6.875 7.5 C5.81080387 10.54056036 4.39899744 11.88323755 2 14 C1.54625 14.5775 1.0925 15.155 0.625 15.75 C-1.82621903 17.6355531 -4.01077332 17.19928178 -7 17 C-7.33 16.01 -7.66 15.02 -8 14 C-5.41870212 12.45122127 -2.86943879 10.93326871 -0.1875 9.5625 C0.8953125 8.7890625 0.8953125 8.7890625 2 8 C2 6.68 2 5.36 2 4 C0.68 3.34 -0.64 2.68 -2 2 C-1.34 1.34 -0.68 0.68 0 0 Z " fill="#656565" transform="translate(182,40)"/>
<path d="M0 0 C0.99 0 1.98 0 3 0 C2.97679687 0.60328125 2.95359375 1.2065625 2.9296875 1.828125 C2.91164062 2.62734375 2.89359375 3.4265625 2.875 4.25 C2.84019531 5.43335938 2.84019531 5.43335938 2.8046875 6.640625 C3.02037609 9.24614317 3.6078822 10.79986977 5 13 C5.66 13.33 6.32 13.66 7 14 C7 14.66 7 15.32 7 16 C8.65 16 10.3 16 12 16 C12 16.66 12 17.32 12 18 C8.8125 18.3125 8.8125 18.3125 5 18 C2.36983839 15.8272578 0.52663106 14.05326212 -1 11 C-1.09499503 9.50243129 -1.12987198 8.00057068 -1.125 6.5 C-1.12757813 5.7059375 -1.13015625 4.911875 -1.1328125 4.09375 C-1 2 -1 2 0 0 Z " fill="#4C4C4C" transform="translate(234,362)"/>
<path d="M0 0 C0.66 0 1.32 0 2 0 C2 6.93 2 13.86 2 21 C0.68 21.33 -0.64 21.66 -2 22 C-3.32 19.69 -4.64 17.38 -6 15 C-5.34 15 -4.68 15 -4 15 C-3.67 14.34 -3.34 13.68 -3 13 C-2.67 13.33 -2.34 13.66 -2 14 C-0.99740493 10.99221479 -0.69685358 8.46179353 -0.4375 5.3125 C-0.35371094 4.31863281 -0.26992188 3.32476562 -0.18359375 2.30078125 C-0.12300781 1.54152344 -0.06242187 0.78226562 0 0 Z " fill="#333333" transform="translate(287,355)"/>
<path d="M0 0 C0.33 0 0.66 0 1 0 C1 2.64 1 5.28 1 8 C3.97 8.33 6.94 8.66 10 9 C10 9.33 10 9.66 10 10 C6.7 10.33 3.4 10.66 0 11 C-0.33 13.31 -0.66 15.62 -1 18 C-2.32 17.67 -3.64 17.34 -5 17 C-4.54971412 14.72755724 -4.08949383 12.45708123 -3.625 10.1875 C-3.36976563 8.92292969 -3.11453125 7.65835938 -2.8515625 6.35546875 C-2 3 -2 3 0 0 Z " fill="#505050" transform="translate(211,26)"/>
<path d="M0 0 C0.66 0.66 1.32 1.32 2 2 C0.02 2.99 0.02 2.99 -2 4 C-0.68 4.99 0.64 5.98 2 7 C1.67 7.99 1.34 8.98 1 10 C0.34 9.01 -0.32 8.02 -1 7 C-3.12376704 6.38175283 -3.12376704 6.38175283 -5.5 6.25 C-6.2940625 6.17265625 -7.088125 6.0953125 -7.90625 6.015625 C-10.06054111 5.84115564 -10.06054111 5.84115564 -12 7 C-12 6.34 -12 5.68 -12 5 C-12.66 4.67 -13.32 4.34 -14 4 C-9.77777553 -0.35842526 -5.82168687 -0.98362489 0 0 Z " fill="#838383" transform="translate(249,357)"/>
<path d="M0 0 C0.99 0 1.98 0 3 0 C4.75 2.375 4.75 2.375 6 5 C5.67 5.66 5.34 6.32 5 7 C4.15688424 8.87183587 4.15688424 8.87183587 4 11 C5.3516367 13.24755753 5.3516367 13.24755753 7 15 C6.67 15.66 6.34 16.32 6 17 C5.34 16.67 4.68 16.34 4 16 C4 19.3 4 22.6 4 26 C3.67 26 3.34 26 3 26 C2.67 19.07 2.34 12.14 2 5 C1.34 5 0.68 5 0 5 C0 8.63 0 12.26 0 16 C-0.33 16 -0.66 16 -1 16 C-1.02701408 13.89590361 -1.04640223 11.79170822 -1.0625 9.6875 C-1.07410156 8.51574219 -1.08570313 7.34398437 -1.09765625 6.13671875 C-1 3 -1 3 0 0 Z " fill="#858585" transform="translate(287,350)"/>
<path d="M0 0 C0 0.33 0 0.66 0 1 C-2.31 1.66 -4.62 2.32 -7 3 C-7 4.32 -7 5.64 -7 7 C-7.99 7.495 -7.99 7.495 -9 8 C-8.67 9.98 -8.34 11.96 -8 14 C-8.99 14.66 -9.98 15.32 -11 16 C-11.99 14.02 -12.98 12.04 -14 10 C-14.66 10 -15.32 10 -16 10 C-15.61012211 7.17338531 -15.26241942 6.21321578 -13 4.375 C-12.01 3.694375 -12.01 3.694375 -11 3 C-10.67 2.34 -10.34 1.68 -10 1 C-6.52674819 -0.1577506 -3.63932552 -0.06866652 0 0 Z " fill="#898989" transform="translate(180,29)"/>
<path d="M0 0 C0.66 0 1.32 0 2 0 C2 6.6 2 13.2 2 20 C5.3 20 8.6 20 12 20 C12 20.66 12 21.32 12 22 C8.04 22 4.08 22 0 22 C0 14.74 0 7.48 0 0 Z " fill="#080808" transform="translate(249,16)"/>
<path d="M0 0 C0 1.32 0 2.64 0 4 C-0.94875 4.268125 -1.8975 4.53625 -2.875 4.8125 C-6.25267273 5.74986588 -6.25267273 5.74986588 -8 9 C-8.39013716 10.9896995 -8.73202649 12.99019869 -9 15 C-9.66 13.68 -10.32 12.36 -11 11 C-11.66 11.99 -12.32 12.98 -13 14 C-12.63126118 7.85435306 -11.22746623 5.22746623 -7 1 C-4 0 -4 0 0 0 Z " fill="#6E6E6E" transform="translate(94,115)"/>
<path d="M0 0 C0.99 0.66 1.98 1.32 3 2 C3.66 2.33 4.32 2.66 5 3 C4.67 4.32 4.34 5.64 4 7 C-1.94 7.495 -1.94 7.495 -8 8 C-7.67 7.01 -7.34 6.02 -7 5 C-8.65 5.33 -10.3 5.66 -12 6 C-11.67 5.01 -11.34 4.02 -11 3 C-9.00390625 2.3046875 -9.00390625 2.3046875 -6.5625 1.875 C-3.1726922 1.26876383 -3.1726922 1.26876383 0 0 Z " fill="#636363" transform="translate(401,93)"/>
<path d="M0 0 C2.0625 0.4375 2.0625 0.4375 4 1 C3.01 1.495 3.01 1.495 2 2 C1.34444881 4.52733235 1.34444881 4.52733235 1 7 C1.66 7 2.32 7 3 7 C3 7.66 3 8.32 3 9 C3.66 9 4.32 9 5 9 C6.5 11 6.5 11 8 13 C8.66 13 9.32 13 10 13 C10 13.99 10 14.98 10 16 C6.04 16.495 6.04 16.495 2 17 C0.09321766 11.40677179 -1.26466016 6.95485358 -1 1 C-0.67 0.67 -0.34 0.34 0 0 Z M2 10 C3 14 3 14 3 14 Z " fill="#DADADA" transform="translate(211,17)"/>
<path d="M0 0 C0.99 0 1.98 0 3 0 C3.02684679 2.64590014 3.04676357 5.29153096 3.0625 7.9375 C3.07087891 8.69224609 3.07925781 9.44699219 3.08789062 10.22460938 C3.09652441 12.14994313 3.05224333 14.07535581 3 16 C2.67 16.33 2.34 16.66 2 17 C1.63239269 19.32817964 1.29758419 21.6618385 1 24 C0.34 23.67 -0.32 23.34 -1 23 C-0.67 15.41 -0.34 7.82 0 0 Z " fill="#424242" transform="translate(301,348)"/>
<path d="M0 0 C-1.216875 0.37125 -2.43375 0.7425 -3.6875 1.125 C-8.32488736 2.87635374 -10.30872328 4.84075415 -13 9 C-13.873938 12.22433127 -13.873938 12.22433127 -14 15 C-14.66 15 -15.32 15 -16 15 C-16.46259896 10.28149056 -16.73608764 7.08112873 -14 3.0625 C-9.61294622 0.04640052 -5.28469681 -1.7615656 0 0 Z " fill="#7B7B7B" transform="translate(147,53)"/>
<path d="M0 0 C1.32 0.33 2.64 0.66 4 1 C3.67 1.66 3.34 2.32 3 3 C2.75212983 7.14503661 2.75212983 7.14503661 4 11 C3.67 11.66 3.34 12.32 3 13 C4.98 13 6.96 13 9 13 C7.3125 14.1875 7.3125 14.1875 5 15 C2.17846143 13.79076918 0.48253166 12.63606446 -1.375 10.1875 C-2.40718168 6.57486411 -1.65930617 3.31861235 0 0 Z " fill="#727272" transform="translate(398,126)"/>
<path d="M0 0 C2 3 2 3 1.5 6.875 C0.17809419 11.40963893 -1.89010264 13.56450527 -6 16 C-8.81087894 16.3892764 -11.14194386 16.24638415 -14 16 C-14 15.67 -14 15.34 -14 15 C-11.69 15 -9.38 15 -7 15 C-6.8453125 14.13375 -6.8453125 14.13375 -6.6875 13.25 C-6 11 -6 11 -4.5 9.0625 C-2.77458921 6.69006017 -2.52495873 4.84977599 -2 2 C-1.34 1.34 -0.68 0.68 0 0 Z " fill="#727272" transform="translate(104,123)"/>
<path d="M0 0 C0.66 0.33 1.32 0.66 2 1 C2.2145758 4.14711179 2.23318878 6.44617664 1 9.375 C-1.70141622 11.56990068 -3.6697383 11.40019435 -7.0625 11.3359375 C-9 11 -9 11 -12 9 C-11.67 8.34 -11.34 7.68 -11 7 C-9.8553125 7.2784375 -9.8553125 7.2784375 -8.6875 7.5625 C-5.91032625 8.22819173 -5.91032625 8.22819173 -3 7 C-1.28432339 3.49705129 -1.28432339 3.49705129 0 0 Z M0 3 C1 5 1 5 1 5 Z " fill="#EEEEEE" transform="translate(99,123)"/>
<path d="M0 0 C0.99 0.33 1.98 0.66 3 1 C5.28020848 6.64051572 5.21802745 11.98001986 5 18 C2.75393573 16.22555028 2.04918998 15.41647515 1.70703125 12.51953125 C1.74183594 11.62621094 1.77664063 10.73289062 1.8125 9.8125 C1.83957031 8.91144531 1.86664063 8.01039062 1.89453125 7.08203125 C1.92933594 6.39496094 1.96414063 5.70789063 2 5 C1.01 5 0.02 5 -1 5 C-0.67 3.35 -0.34 1.7 0 0 Z " fill="#424242" transform="translate(314,26)"/>
<path d="M0 0 C1.0840428 2.1680856 1.26289724 3.66183451 1.5 6.0625 C1.58121094 6.8565625 1.66242188 7.650625 1.74609375 8.46875 C1.82988281 9.3040625 1.91367187 10.139375 2 11 C2.18554707 12.68771585 2.372949 14.37522915 2.5625 16.0625 C2.706875 17.361875 2.85125 18.66125 3 20 C0.54176828 16.31265242 -0.01242616 13.30300029 -1 9 C-1.66 9 -2.32 9 -3 9 C-3.66 10.32 -4.32 11.64 -5 13 C-4.64989059 4.80743982 -4.64989059 4.80743982 -1.9375 1.4375 C-1.298125 0.963125 -0.65875 0.48875 0 0 Z " fill="#ECECEC" transform="translate(315,35)"/>
<path d="M0 0 C0.33 0.66 0.66 1.32 1 2 C1.66 2 2.32 2 3 2 C2.03842826 5.55781542 1.34112089 6.78016654 -1.8125 8.8125 C-4.84538973 9.94240009 -6.81078211 10.28140158 -10 10 C-8.68 9.67 -7.36 9.34 -6 9 C-6 8.34 -6 7.68 -6 7 C-7.65 7 -9.3 7 -11 7 C-11 6.67 -11 6.34 -11 6 C-10.37351563 5.90203125 -9.74703125 5.8040625 -9.1015625 5.703125 C-7.87566406 5.47882813 -7.87566406 5.47882813 -6.625 5.25 C-5.81289062 5.11078125 -5.00078125 4.9715625 -4.1640625 4.828125 C-1.82290908 4.18250739 -1.82290908 4.18250739 -0.7109375 1.921875 C-0.47632813 1.28765625 -0.24171875 0.6534375 0 0 Z " fill="#6C6C6C" transform="translate(252,371)"/>
<path d="M0 0 C0.33 0.99 0.66 1.98 1 3 C2.6476038 3.71247732 4.31763529 4.37400383 6 5 C8.3125 6.4375 8.3125 6.4375 10 8 C10 8.99 10 9.98 10 11 C6.56049636 10.38801624 4.48435515 9.07941153 1.75 6.9375 C1.04359375 6.38964844 0.3371875 5.84179688 -0.390625 5.27734375 C-0.92171875 4.85582031 -1.4528125 4.43429688 -2 4 C-1.34 2.68 -0.68 1.36 0 0 Z " fill="#545454" transform="translate(344,64)"/>
<path d="M0 0 C2.475 0.99 2.475 0.99 5 2 C4.67 5.3 4.34 8.6 4 12 C3.01 11.67 2.02 11.34 1 11 C0.34 11.66 -0.32 12.32 -1 13 C-1.2236337 11.58566794 -1.42826476 10.16832382 -1.625 8.75 C-1.74101562 7.96109375 -1.85703125 7.1721875 -1.9765625 6.359375 C-2.00319395 3.67847541 -1.36592084 2.27305911 0 0 Z M2 6 C2.33 7.32 2.66 8.64 3 10 C3.33 9.01 3.66 8.02 4 7 C3.34 6.67 2.68 6.34 2 6 Z " fill="#9D9D9D" transform="translate(319,38)"/>
<path d="M0 0 C1.9375 0.8125 1.9375 0.8125 4 2 C4.33 2.99 4.66 3.98 5 5 C4.443125 5.0825 3.88625 5.165 3.3125 5.25 C0.31551677 6.22199456 -1.57606101 8.02257608 -4 10 C-4.66 10 -5.32 10 -6 10 C-4.6302836 6.00499382 -2.74277578 3.19990508 0 0 Z " fill="#414141" transform="translate(354,48)"/>
<path d="M0 0 C2.68478605 1.98440708 3.03631971 3.15645412 3.8125 6.5 C4 10 4 10 2 13 C1.01 12.67 0.02 12.34 -1 12 C-1.02712066 10.56260487 -1.04645067 9.12506137 -1.0625 7.6875 C-1.07410156 6.88699219 -1.08570313 6.08648437 -1.09765625 5.26171875 C-1 3 -1 3 0 0 Z " fill="#555555" transform="translate(416,122)"/>
<path d="M0 0 C2.25 0.125 2.25 0.125 5 1 C7.3125 4.0625 7.3125 4.0625 9 7 C8.67 7.66 8.34 8.32 8 9 C7.01 9 6.02 9 5 9 C3.9739266 7.68662604 2.97272675 6.35335895 2 5 C1.34 5 0.68 5 0 5 C0 3.35 0 1.7 0 0 Z " fill="#484848" transform="translate(212,19)"/>
<path d="M0 0 C0.99 0.33 1.98 0.66 3 1 C3.33 1.99 3.66 2.98 4 4 C2.78515625 6.04296875 2.78515625 6.04296875 1.0625 8.1875 C0.49660156 8.90292969 -0.06929688 9.61835937 -0.65234375 10.35546875 C-1.09707031 10.89816406 -1.54179688 11.44085938 -2 12 C-2.99 11.67 -3.98 11.34 -5 11 C-3.80065338 7.91596583 -2.52022974 4.93911083 -1 2 C-0.67 1.34 -0.34 0.68 0 0 Z " fill="#545454" transform="translate(124,91)"/>
<path d="M0 0 C4.43458973 1.3937282 6.87378374 3.60582235 10 7 C9.01 7.66 8.02 8.32 7 9 C4.36 7.02 1.72 5.04 -1 3 C-0.67 2.01 -0.34 1.02 0 0 Z " fill="#494949" transform="translate(102,89)"/>
<path d="M0 0 C0.495 0.391875 0.99 0.78375 1.5 1.1875 C1.5 2.1775 1.5 3.1675 1.5 4.1875 C0.2625 4.331875 -0.975 4.47625 -2.25 4.625 C-5.06504499 4.97438502 -7.7701497 5.39129366 -10.5 6.1875 C-10.5 4.8675 -10.5 3.5475 -10.5 2.1875 C-3.28774617 -1.06851751 -3.28774617 -1.06851751 0 0 Z " fill="#6D6D6D" transform="translate(394.5,99.8125)"/>
<path d="M0 0 C0.33 0 0.66 0 1 0 C1 7.92 1 15.84 1 24 C0.34 23.67 -0.32 23.34 -1 23 C-1.18451025 7.25512528 -1.18451025 7.25512528 0 0 Z " fill="#EEEEEE" transform="translate(246,15)"/>
<path d="M0 0 C0.33 0.99 0.66 1.98 1 3 C2.98 2.67 4.96 2.34 7 2 C3.92000054 5.67230705 1.7517398 6.56802365 -3 7 C-3.33 5.68 -3.66 4.36 -4 3 C-2.68 2.01 -1.36 1.02 0 0 Z " fill="#3A3A3A" transform="translate(375,88)"/>
<path d="M0 0 C1.485 0.99 1.485 0.99 3 2 C3 2.99 3 3.98 3 5 C3.66 5 4.32 5 5 5 C5.66 7.31 6.32 9.62 7 12 C5.68 12 4.36 12 3 12 C-0.42857143 4.71428571 -0.42857143 4.71428571 0 0 Z " fill="#373737" transform="translate(170,42)"/>
<path d="M0 0 C0.33 0 0.66 0 1 0 C1.19294408 4.82360189 0.75747614 8.49646738 -1 13 C-1.99 12.67 -2.98 12.34 -4 12 C-3.67 9.69 -3.34 7.38 -3 5 C-2.34 5 -1.68 5 -1 5 C-0.67 3.35 -0.34 1.7 0 0 Z " fill="#4F4F4F" transform="translate(194,359)"/>
<path d="M0 0 C1.18414294 3.55242882 0.69535532 4.69830562 -0.4375 8.1875 C-0.72496094 9.08855469 -1.01242188 9.98960937 -1.30859375 10.91796875 C-1.53675781 11.60503906 -1.76492187 12.29210937 -2 13 C-3.90318884 10.14521674 -4.4619099 8.58058692 -5.125 5.3125 C-5.29257813 4.50425781 -5.46015625 3.69601562 -5.6328125 2.86328125 C-5.75398437 2.24839844 -5.87515625 1.63351562 -6 1 C-5.67 1.66 -5.34 2.32 -5 3 C-4.34 3 -3.68 3 -3 3 C-2.67 3.99 -2.34 4.98 -2 6 C-1.855625 5.195625 -1.71125 4.39125 -1.5625 3.5625 C-1 1 -1 1 0 0 Z " fill="#EEEEEE" transform="translate(209,353)"/>
<path d="M0 0 C0.33 0 0.66 0 1 0 C1 11.88 1 23.76 1 36 C0.67 36 0.34 36 0 36 C0 24.12 0 12.24 0 0 Z " fill="#EFEFEF" transform="translate(363,208)"/>
<path d="M0 0 C0.33 0 0.66 0 1 0 C1 11.55 1 23.1 1 35 C0.67 35 0.34 35 0 35 C0 23.45 0 11.9 0 0 Z " fill="#EDEDED" transform="translate(214,199)"/>
<path d="M0 0 C6.93770492 4.22295082 6.93770492 4.22295082 8 8 C7.625 10.25 7.625 10.25 7 12 C6.773125 11.401875 6.54625 10.80375 6.3125 10.1875 C5.11458333 7.80208333 5.11458333 7.80208333 2.5 6.5 C-0.19008704 4.88594777 -0.9091174 3.87596323 -2 1 C-1.34 0.67 -0.68 0.34 0 0 Z " fill="#EFEFEF" transform="translate(348,63)"/>
<path d="M0 0 C0.66 0.33 1.32 0.66 2 1 C1.67 1.66 1.34 2.32 1 3 C1.804375 3.391875 2.60875 3.78375 3.4375 4.1875 C6 6 6 6 6.8125 8.6875 C6.874375 9.450625 6.93625 10.21375 7 11 C5.0625 10.6875 5.0625 10.6875 3 10 C2.67 9.01 2.34 8.02 2 7 C0.37347684 5.29413425 -1.29006566 3.6222454 -3 2 C-2.01 1.34 -1.02 0.68 0 0 Z " fill="#EBEBEB" transform="translate(355,54)"/>
<path d="M0 0 C1.9375 0.75 1.9375 0.75 4 2 C4.75 4.125 4.75 4.125 5 6 C0.18061476 6.23509196 -3.46298506 5.45184478 -8 4 C-8 3.67 -8 3.34 -8 3 C-5.36 2.67 -2.72 2.34 0 2 C0 1.34 0 0.68 0 0 Z " fill="#969696" transform="translate(224,34)"/>
<path d="M0 0 C3.78125 0.7109375 3.78125 0.7109375 5.75 3.3125 C7 6 7 6 7 10 C5.1875 9.5 5.1875 9.5 3 8 C1.73847391 5.4136076 0.84356955 2.74799171 0 0 Z " fill="#424242" transform="translate(290,356)"/>
<path d="M0 0 C0.66 0.33 1.32 0.66 2 1 C-2.29 5.29 -6.58 9.58 -11 14 C-11 10.30159372 -10.17133056 9.68584567 -7.75 7 C-7.14671875 6.319375 -6.5434375 5.63875 -5.921875 4.9375 C-4.06233388 3.06284066 -2.15205789 1.52358081 0 0 Z " fill="#575757" transform="translate(158,160)"/>
<path d="M0 0 C0.33 0 0.66 0 1 0 C1 10.89 1 21.78 1 33 C0.67 33 0.34 33 0 33 C0 22.11 0 11.22 0 0 Z " fill="#F0F0F0" transform="translate(245,104)"/>
<path d="M0 0 C0.33 0 0.66 0 1 0 C1.33 2.31 1.66 4.62 2 7 C2.66 7 3.32 7 4 7 C2.95125002 9.62187494 2.35068687 10.79371361 -0.125 12.25 C-0.74375 12.4975 -1.3625 12.745 -2 13 C-2.66 12.01 -3.32 11.02 -4 10 C-2.68 9.67 -1.36 9.34 0 9 C-0.185625 8.443125 -0.37125 7.88625 -0.5625 7.3125 C-1.07551165 4.600867 -0.6640724 2.65628961 0 0 Z " fill="#868686" transform="translate(148,63)"/>
<path d="M0 0 C0.99 0.495 0.99 0.495 2 1 C2.36871088 2.65919896 2.69595322 4.32774271 3 6 C3.63437344 7.6792238 4.29289322 9.35008418 5 11 C4.01 10.67 3.02 10.34 2 10 C2 13.3 2 16.6 2 20 C1.67 20 1.34 20 1 20 C0.67 13.4 0.34 6.8 0 0 Z " fill="#E5E5E5" transform="translate(289,356)"/>
<path d="M0 0 C3 1 3 1 5 4 C4.625 6.1875 4.625 6.1875 4 8 C2.02 7.01 0.04 6.02 -2 5 C-1.34 3.35 -0.68 1.7 0 0 Z " fill="#6A6A6A" transform="translate(274,355)"/>
<path d="M0 0 C0.99 0 1.98 0 3 0 C3.33 3.3 3.66 6.6 4 10 C2.68 10.33 1.36 10.66 0 11 C-1 10 -1 10 -1.125 7.1875 C-1.02241728 4.57164058 -0.76328117 2.4806638 0 0 Z M1 4 C0.67 5.65 0.34 7.3 0 9 C0.66 9 1.32 9 2 9 C2 7.35 2 5.7 2 4 C1.67 4 1.34 4 1 4 Z " fill="#EEEEEE" transform="translate(402,125)"/>
<path d="M0 0 C1.32 0.33 2.64 0.66 4 1 C3.875 2.875 3.875 2.875 3 5 C-0.0625 6.25 -0.0625 6.25 -3 7 C-3.66 5.35 -4.32 3.7 -5 2 C-3.68 1.67 -2.36 1.34 -1 1 C-1.33 1.66 -1.66 2.32 -2 3 C-0.68 3 0.64 3 2 3 C2 2.34 2 1.68 2 1 C1.34 0.67 0.68 0.34 0 0 Z " fill="#EEEEEE" transform="translate(180,44)"/>
<path d="M0 0 C-0.1875 1.875 -0.1875 1.875 -1 4 C-3.5625 5.25 -3.5625 5.25 -6 6 C-6.66 4.35 -7.32 2.7 -8 1 C-3.375 -1.125 -3.375 -1.125 0 0 Z M-5 1 C-5.33 1.66 -5.66 2.32 -6 3 C-5.01 2.67 -4.02 2.34 -3 2 C-3.66 1.67 -4.32 1.34 -5 1 Z " fill="#EEEEEE" transform="translate(179,36)"/>
<path d="M0 0 C1.37095624 3.69037278 0.60010967 5.70883835 -0.9375 9.25 C-1.31777344 10.14203125 -1.69804688 11.0340625 -2.08984375 11.953125 C-2.54037109 12.96632812 -2.54037109 12.96632812 -3 14 C-3.33 14 -3.66 14 -4 14 C-3.67 11.36 -3.34 8.72 -3 6 C-4.32 5.67 -5.64 5.34 -7 5 C-5.5459375 4.5978125 -5.5459375 4.5978125 -4.0625 4.1875 C-3.051875 3.795625 -2.04125 3.40375 -1 3 C-0.67 2.01 -0.34 1.02 0 0 Z " fill="#EEEEEE" transform="translate(95,116)"/>
<path d="M0 0 C0.99 0.33 1.98 0.66 3 1 C2.62005832 3.75457718 2.1926367 4.82020574 0.125 6.75 C-2 8 -2 8 -5 8 C-3.8141763 4.62496331 -2.72426311 2.35277269 0 0 Z M1 1 C2 3 2 3 2 3 Z " fill="#808080" transform="translate(385,72)"/>
<path d="M0 0 C1.32 1.32 2.64 2.64 4 4 C4.33 3.34 4.66 2.68 5 2 C4.67 4.31 4.34 6.62 4 9 C2.68 8.67 1.36 8.34 0 8 C0 5.36 0 2.72 0 0 Z " fill="#2C2C2C" transform="translate(319,46)"/>
<path d="M0 0 C1.32 0 2.64 0 4 0 C3.34 2.97 2.68 5.94 2 9 C1.34 8.34 0.68 7.68 0 7 C-0.66 7.99 -1.32 8.98 -2 10 C-1.54177532 6.53058454 -1.10868317 3.32604951 0 0 Z " fill="#767676" transform="translate(211,353)"/>
<path d="M0 0 C0.33 0 0.66 0 1 0 C1.14285714 8.57142857 1.14285714 8.57142857 0 12 C-0.66 12 -1.32 12 -2 12 C-2.33 12.66 -2.66 13.32 -3 14 C-2.48594831 9.03083364 -1.76615118 4.70973649 0 0 Z " fill="#2A2A2A" transform="translate(211,357)"/>
<path d="M0 0 C2.4375 0.1875 2.4375 0.1875 5 1 C6.3125 3.0625 6.3125 3.0625 7 5 C6.34 5 5.68 5 5 5 C4.67 5.99 4.34 6.98 4 8 C3.54625 7.21625 3.0925 6.4325 2.625 5.625 C1.11571258 2.96301969 1.11571258 2.96301969 -1 1 C-0.67 0.67 -0.34 0.34 0 0 Z " fill="#575757" transform="translate(248,359)"/>
<path d="M0 0 C1.125 3.75 1.125 3.75 0 6 C0.66 6 1.32 6 2 6 C1.67 8.31 1.34 10.62 1 13 C0.34 12.34 -0.32 11.68 -1 11 C-1.66 11.99 -2.32 12.98 -3 14 C-2.40380045 9.13103697 -1.43023178 4.67209049 0 0 Z " fill="#757575" transform="translate(195,350)"/>
<path d="M0 0 C1.32 0.33 2.64 0.66 4 1 C2.68 3.64 1.36 6.28 0 9 C-0.66 8.67 -1.32 8.34 -2 8 C-1.125 2.25 -1.125 2.25 0 0 Z " fill="#4C4C4C" transform="translate(398,126)"/>
<path d="M0 0 C0.598125 0.350625 1.19625 0.70125 1.8125 1.0625 C1.1525 2.3825 0.4925 3.7025 -0.1875 5.0625 C-2.1675 4.4025 -4.1475 3.7425 -6.1875 3.0625 C-5.8575 2.0725 -5.5275 1.0825 -5.1875 0.0625 C-2.1875 -0.9375 -2.1875 -0.9375 0 0 Z " fill="#424242" transform="translate(394.1875,84.9375)"/>
<path d="M0 0 C-2.12124966 0.86343824 -4.24713072 1.71550648 -6.375 2.5625 C-8.15003906 3.27599609 -8.15003906 3.27599609 -9.9609375 4.00390625 C-13 5 -13 5 -15 4 C-13.68 2.68 -12.36 1.36 -11 0 C-10.34 0.33 -9.68 0.66 -9 1 C-8.030625 0.67 -7.06125 0.34 -6.0625 0 C-3 -1 -3 -1 0 0 Z " fill="#EEEEEE" transform="translate(394,83)"/>
<path d="M0 0 C0.33 0 0.66 0 1 0 C1 8.58 1 17.16 1 26 C0.67 26 0.34 26 0 26 C0 17.42 0 8.84 0 0 Z " fill="#EFEFEF" transform="translate(363,156)"/>
<path d="M0 0 C0.33 0 0.66 0 1 0 C1 1.98 1 3.96 1 6 C1.66 6 2.32 6 3 6 C3.33 6.99 3.66 7.98 4 9 C3.01 9.66 2.02 10.32 1 11 C-1.30441554 7.54337669 -1.25860135 6.05142119 -1 2 C-0.67 1.34 -0.34 0.68 0 0 Z " fill="#393939" transform="translate(83,124)"/>
<path d="M0 0 C0.99 0.33 1.98 0.66 3 1 C2 4 2 4 0.109375 4.94921875 C-7.75674619 7.41063747 -7.75674619 7.41063747 -12 7 C-9.4347341 5.28982274 -7.12039035 4.09582189 -4.3125 2.875 C-3.50425781 2.52179688 -2.69601562 2.16859375 -1.86328125 1.8046875 C-1.24839844 1.53914063 -0.63351562 1.27359375 0 1 C0 0.67 0 0.34 0 0 Z " fill="#ECECEC" transform="translate(384,90)"/>
<path d="M0 0 C0.33 1.32 0.66 2.64 1 4 C-1.31856917 5.54571278 -3.50638429 6.79618552 -6 8 C-6.33 6.68 -6.66 5.36 -7 4 C-4.69 2.68 -2.38 1.36 0 0 Z " fill="#5B5B5B" transform="translate(179,39)"/>
<path d="M0 0 C1.04449911 3.13349732 0.93423645 3.98968256 0 7 C-1.32 7 -2.64 7 -4 7 C-4 5.02 -4 3.04 -4 1 C-2.68 0.67 -1.36 0.34 0 0 Z " fill="#474747" transform="translate(209,369)"/>
<path d="M0 0 C0.99 0 1.98 0 3 0 C2.67 3.3 2.34 6.6 2 10 C1.34 10 0.68 10 0 10 C0 6.7 0 3.4 0 0 Z " fill="#313131" transform="translate(234,362)"/>
<path d="M0 0 C0.99 0.66 1.98 1.32 3 2 C-1.79872101 4.23940314 -6.82855847 5.0560864 -12 6 C-11.67 5.01 -11.34 4.02 -11 3 C-9.00390625 2.3046875 -9.00390625 2.3046875 -6.5625 1.875 C-3.1726922 1.26876383 -3.1726922 1.26876383 0 0 Z " fill="#ECECEC" transform="translate(401,93)"/>
<path d="M0 0 C2.97 0 5.94 0 9 0 C8.67 0.99 8.34 1.98 8 3 C5.36 3 2.72 3 0 3 C0 2.01 0 1.02 0 0 Z " fill="#3A3A3A" transform="translate(138,74)"/>
<path d="M0 0 C2.875 0.1875 2.875 0.1875 6 1 C7.375 3.5625 7.375 3.5625 8 6 C5.0280615 4.87548273 2.66559313 3.77706209 0 2 C0 1.34 0 0.68 0 0 Z " fill="#474747" transform="translate(351,60)"/>
<path d="M0 0 C1.98 0.495 1.98 0.495 4 1 C4 2.65 4 4.3 4 6 C3.01 5.67 2.02 5.34 1 5 C1 5.99 1 6.98 1 8 C0.34 8 -0.32 8 -1 8 C-0.67 5.36 -0.34 2.72 0 0 Z " fill="#303030" transform="translate(196,348)"/>
<path d="M0 0 C0.33 0.66 0.66 1.32 1 2 C1.66 2 2.32 2 3 2 C2.34 3.98 1.68 5.96 1 8 C0.01 7.67 -0.98 7.34 -2 7 C-1.125 2.25 -1.125 2.25 0 0 Z " fill="#6B6B6B" transform="translate(95,122)"/>
<path d="M0 0 C2.0625 0.4375 2.0625 0.4375 4 1 C3.01 1.495 3.01 1.495 2 2 C2 5.3 2 8.6 2 12 C1.01 11.67 0.02 11.34 -1 11 C-1.02688151 9.35425434 -1.04634123 7.70838587 -1.0625 6.0625 C-1.07410156 5.14597656 -1.08570313 4.22945312 -1.09765625 3.28515625 C-1 1 -1 1 0 0 Z " fill="#989898" transform="translate(211,17)"/>
<path d="M0 0 C0.99 0 1.98 0 3 0 C2.625 1.9375 2.625 1.9375 2 4 C-1.21451269 5.60725635 -4.43612536 5.05748185 -8 5 C-8 4.67 -8 4.34 -8 4 C-5.69 4 -3.38 4 -1 4 C-0.67 2.68 -0.34 1.36 0 0 Z " fill="#6C6C6C" transform="translate(98,134)"/>
<path d="M0 0 C1.2380014 3.57644848 0.74926071 6.33694766 0 10 C-0.66 10 -1.32 10 -2 10 C-2 7.03 -2 4.06 -2 1 C-1.34 0.67 -0.68 0.34 0 0 Z " fill="#303030" transform="translate(133,58)"/>
<path d="M0 0 C1.51553092 3.97450493 0.49888623 7.20481149 -0.4375 11.25 C-0.72496094 12.51328125 -1.01242188 13.7765625 -1.30859375 15.078125 C-1.53675781 16.04234375 -1.76492187 17.0065625 -2 18 C-2.33 18 -2.66 18 -3 18 C-2.57045059 11.74892565 -1.98598493 5.95795479 0 0 Z " fill="#EEEEEE" transform="translate(208,25)"/>
<path d="M0 0 C0.86476686 2.42134721 1.1422798 3.60873054 0.25 6.0625 C-0.99443419 7.99137299 -2.30547429 9.45952209 -4 11 C-4.625 8.625 -4.625 8.625 -5 6 C-4.34 5.34 -3.68 4.68 -3 4 C-2.67 4.33 -2.34 4.66 -2 5 C-1.34 3.35 -0.68 1.7 0 0 Z " fill="#6D6D6D" transform="translate(208,363)"/>
<path d="M0 0 C0 3 0 3 -2 5.1875 C-2.66 5.785625 -3.32 6.38375 -4 7 C-4.99 5.68 -5.98 4.36 -7 3 C-4.69 2.01 -2.38 1.02 0 0 Z " fill="#EFEFEF" transform="translate(122,93)"/>
<path d="M0 0 C0.33 0.99 0.66 1.98 1 3 C3.00016466 4.20882096 3.00016466 4.20882096 5 5 C4.01 5.66 3.02 6.32 2 7 C0.68 6.01 -0.64 5.02 -2 4 C-1.34 2.68 -0.68 1.36 0 0 Z " fill="#3C3C3C" transform="translate(344,64)"/>
<path d="M0 0 C0.33 0 0.66 0 1 0 C1 1.98 1 3.96 1 6 C-0.98 6.99 -0.98 6.99 -3 8 C-3.66 6.68 -4.32 5.36 -5 4 C-4.34 4 -3.68 4 -3 4 C-2.67 3.34 -2.34 2.68 -2 2 C-1.67 2.33 -1.34 2.66 -1 3 C-0.67 2.01 -0.34 1.02 0 0 Z " fill="#5A5A5A" transform="translate(286,366)"/>
<path d="M0 0 C4.875 1.75 4.875 1.75 6 4 C4.1875 4.625 4.1875 4.625 2 5 C1.01 4.34 0.02 3.68 -1 3 C-0.67 2.01 -0.34 1.02 0 0 Z " fill="#636363" transform="translate(102,89)"/>
<path d="M0 0 C0.99 0 1.98 0 3 0 C2.67 1.98 2.34 3.96 2 6 C1.01 6 0.02 6 -1 6 C-0.67 4.02 -0.34 2.04 0 0 Z " fill="#555555" transform="translate(328,33)"/>
<path d="M0 0 C2 3 2 3 2 5 C1.34 5 0.68 5 0 5 C-0.33 5.66 -0.66 6.32 -1 7 C-3 4 -3 4 -3 1 C-2.01 0.67 -1.02 0.34 0 0 Z " fill="#707070" transform="translate(200,352)"/>
<path d="M0 0 C1.52634923 3.05269846 0.83794444 5.75845689 0.5625 9.125 C0.40974609 11.04699219 0.40974609 11.04699219 0.25390625 13.0078125 C0.17011719 13.99523437 0.08632813 14.98265625 0 16 C-2.11672187 12.58567085 -2.12506778 10.26115378 -1.6875 6.3125 C-1.58824219 5.33925781 -1.48898437 4.36601562 -1.38671875 3.36328125 C-1 1 -1 1 0 0 Z " fill="#EEEEEE" transform="translate(299,348)"/>
<path d="M0 0 C1.32 0 2.64 0 4 0 C4 1.98 4 3.96 4 6 C3.67 6 3.34 6 3 6 C3 4.35 3 2.7 3 1 C2.34 1 1.68 1 1 1 C1 4.3 1 7.6 1 11 C0.67 11 0.34 11 0 11 C0 7.37 0 3.74 0 0 Z " fill="#EEEEEE" transform="translate(411,126)"/>
<path d="M0 0 C0.66 0.33 1.32 0.66 2 1 C1.649375 1.495 1.29875 1.99 0.9375 2.5 C-0.46011601 6.22697603 0.34967141 9.09802848 1 13 C-0.5 11.9375 -0.5 11.9375 -2 10 C-2.38991688 5.63293092 -2.46324069 3.69486103 0 0 Z " fill="#EFEFEF" transform="translate(396,125)"/>
<path d="M0 0 C0.99 0.33 1.98 0.66 3 1 C3 4.3 3 7.6 3 11 C2.67 11 2.34 11 2 11 C0.80712589 7.12315913 0 4.08378077 0 0 Z " fill="#242424" transform="translate(101,120)"/>
<path d="M0 0 C1.98 0.66 3.96 1.32 6 2 C5.67 3.32 5.34 4.64 5 6 C4.01 5.67 3.02 5.34 2 5 C0.8125 2.4375 0.8125 2.4375 0 0 Z " fill="#323232" transform="translate(115,99)"/>
<path d="M0 0 C0.66 0.33 1.32 0.66 2 1 C1.67 2.98 1.34 4.96 1 7 C0.34 6.34 -0.32 5.68 -1 5 C-1.99 5.66 -2.98 6.32 -4 7 C-2.79618552 4.50638429 -1.54571278 2.31856917 0 0 Z " fill="#5F5F5F" transform="translate(345,60)"/>
<path d="M0 0 C2.31 0 4.62 0 7 0 C6.67 1.32 6.34 2.64 6 4 C3.83125748 3.49396008 2.00032373 3.00016187 0 2 C0 1.34 0 0.68 0 0 Z " fill="#787878" transform="translate(361,55)"/>
<path d="M0 0 C0.99 0 1.98 0 3 0 C3 1.98 3 3.96 3 6 C1.68 5.67 0.36 5.34 -1 5 C-0.67 3.35 -0.34 1.7 0 0 Z " fill="#626262" transform="translate(207,38)"/>
<path d="M0 0 C1.13199353 0.9080162 2.25532363 1.82683826 3.375 2.75 C4.00148438 3.26046875 4.62796875 3.7709375 5.2734375 4.296875 C7.08312318 6.08199481 8.00117455 7.67949644 9 10 C7.86800647 9.0919838 6.74467637 8.17316174 5.625 7.25 C4.99851562 6.73953125 4.37203125 6.2290625 3.7265625 5.703125 C1.91687682 3.91800519 0.99882545 2.32050356 0 0 Z " fill="#EFEFEF" transform="translate(343,228)"/>
<path d="M0 0 C1.65 0 3.3 0 5 0 C5.33 1.32 5.66 2.64 6 4 C3.03 3.505 3.03 3.505 0 3 C0 2.01 0 1.02 0 0 Z " fill="#3A3A3A" transform="translate(410,121)"/>
<path d="M0 0 C0.66 1.32 1.32 2.64 2 4 C0.02 4.99 0.02 4.99 -2 6 C-2.33 4.68 -2.66 3.36 -3 2 C-2.01 1.34 -1.02 0.68 0 0 Z " fill="#353535" transform="translate(383,101)"/>
<path d="M0 0 C0.99 0.33 1.98 0.66 3 1 C3.33 1.99 3.66 2.98 4 4 C3.01 4.99 2.02 5.98 1 7 C1 6.34 1 5.68 1 5 C0.34 4.67 -0.32 4.34 -1 4 C-0.67 2.68 -0.34 1.36 0 0 Z " fill="#939393" transform="translate(124,91)"/>
<path d="M0 0 C0.66 1.32 1.32 2.64 2 4 C1.01 4.99 0.02 5.98 -1 7 C-1.33 6.01 -1.66 5.02 -2 4 C-2.99 4.495 -2.99 4.495 -4 5 C-3 2 -3 2 0 0 Z " fill="#6D6D6D" transform="translate(377,85)"/>
<path d="M0 0 C0.99 0.33 1.98 0.66 3 1 C3 2.65 3 4.3 3 6 C1.68 5.67 0.36 5.34 -1 5 C-0.67 3.35 -0.34 1.7 0 0 Z " fill="#3A3A3A" transform="translate(314,26)"/>
<path d="M0 0 C1.5 1.375 1.5 1.375 3 3 C3 3.66 3 4.32 3 5 C2.34 5 1.68 5 1 5 C1 6.65 1 8.3 1 10 C0.67 10 0.34 10 0 10 C-1.125 3.375 -1.125 3.375 0 0 Z " fill="#767676" transform="translate(416,122)"/>
<path d="M0 0 C1.23593891 3.70781672 0.5678132 4.67510253 -0.9375 8.1875 C-1.31777344 9.08855469 -1.69804687 9.98960938 -2.08984375 10.91796875 C-2.54037109 11.94857422 -2.54037109 11.94857422 -3 13 C-3.33 13 -3.66 13 -4 13 C-3.50269348 8.02693484 -2.44697666 4.36200187 0 0 Z " fill="#EEEEEE" transform="translate(307,36)"/>
<path d="M0 0 C0.33 0.66 0.66 1.32 1 2 C1.99 2 2.98 2 4 2 C3.625 3.9375 3.625 3.9375 3 6 C2.01 6.495 2.01 6.495 1 7 C-0.0625 5.1875 -0.0625 5.1875 -1 3 C-0.67 2.01 -0.34 1.02 0 0 Z " fill="#666666" transform="translate(312,29)"/>
<path d="M0 0 C0.33 0 0.66 0 1 0 C1 4.29 1 8.58 1 13 C0.67 13 0.34 13 0 13 C-0.19466332 11.20909747 -0.38051213 9.41723495 -0.5625 7.625 C-0.66691406 6.62726563 -0.77132812 5.62953125 -0.87890625 4.6015625 C-1 2 -1 2 0 0 Z " fill="#EDEDED" transform="translate(181,198)"/>
<path d="M0 0 C0.33 0 0.66 0 1 0 C1 4.29 1 8.58 1 13 C0.67 13 0.34 13 0 13 C0 8.71 0 4.42 0 0 Z " fill="#EDEDED" transform="translate(305,348)"/>
<path d="M0 0 C0 3.20395416 -0.74335022 5.09399739 -2 8 C-2.93423645 4.98968256 -3.04449911 4.13349732 -2 1 C-1.34 0.67 -0.68 0.34 0 0 Z " fill="#EFEFEF" transform="translate(381,98)"/>
<path d="M0 0 C0.33 0 0.66 0 1 0 C1 3.96 1 7.92 1 12 C0.67 12 0.34 12 0 12 C0 8.04 0 4.08 0 0 Z " fill="#EDEDED" transform="translate(153,192)"/>
<path d="M0 0 C0.33 0 0.66 0 1 0 C1.66 3.3 2.32 6.6 3 10 C0 7 0 7 -0.1875 3.3125 C-0.125625 2.219375 -0.06375 1.12625 0 0 Z " fill="#EFEFEF" transform="translate(79,124)"/>
<path d="M0 0 C0 2.62113708 -0.31292445 4.50935112 -1 7 C-1.66 7 -2.32 7 -3 7 C-3.1875 4.625 -3.1875 4.625 -3 2 C-2.01 1.34 -1.02 0.68 0 0 Z " fill="#EFEFEF" transform="translate(342,61)"/>
<path d="M0 0 C2.50298434 2.93828597 3.46930939 5.17902761 4 9 C1.49701566 6.06171403 0.53069061 3.82097239 0 0 Z " fill="#EEEEEE" transform="translate(168,45)"/>
<path d="M0 0 C0.33 0 0.66 0 1 0 C1 3.96 1 7.92 1 12 C0.67 12 0.34 12 0 12 C0 8.04 0 4.08 0 0 Z " fill="#EEEEEE" transform="translate(253,15)"/>
<path d="M0 0 C0.33 0 0.66 0 1 0 C1 3.63 1 7.26 1 11 C0.67 11 0.34 11 0 11 C0 7.37 0 3.74 0 0 Z " fill="#EFEFEF" transform="translate(283,213)"/>
<path d="M0 0 C3.63 0 7.26 0 11 0 C11 0.33 11 0.66 11 1 C7.37 1 3.74 1 0 1 C0 0.67 0 0.34 0 0 Z " fill="#EEEEEE" transform="translate(350,152)"/>
<path d="M0 0 C3 3 3 3 3.1875 6.1875 C3.0946875 7.5796875 3.0946875 7.5796875 3 9 C2.67 9 2.34 9 2 9 C1.34 6.03 0.68 3.06 0 0 Z " fill="#EEEEEE" transform="translate(419,123)"/>
<path d="M0 0 C1 2 1 2 0.0625 5.125 C-0.288125 6.07375 -0.63875 7.0225 -1 8 C-1.93065133 5.39417629 -2.14917407 4.35801776 -1.0625 1.75 C-0.711875 1.1725 -0.36125 0.595 0 0 Z " fill="#EFEFEF" transform="translate(216,354)"/>
<path d="M0 0 C0.33 0 0.66 0 1 0 C1 3.3 1 6.6 1 10 C0.67 10 0.34 10 0 10 C0 6.7 0 3.4 0 0 Z " fill="#EFEFEF" transform="translate(283,151)"/>
<path d="M0 0 C1.85776765 3.13498292 2.20140476 5.37471432 2 9 C0.14223235 5.86501708 -0.20140476 3.62528568 0 0 Z " fill="#EEEEEE" transform="translate(319,29)"/>
<path d="M0 0 C0.33 0 0.66 0 1 0 C1 2.97 1 5.94 1 9 C0.67 9 0.34 9 0 9 C0 6.03 0 3.06 0 0 Z " fill="#EEEEEE" transform="translate(231,364)"/>
<path d="M0 0 C2.97 0 5.94 0 9 0 C9 0.33 9 0.66 9 1 C6.03 1 3.06 1 0 1 C0 0.67 0 0.34 0 0 Z " fill="#EEEEEE" transform="translate(240,355)"/>
<path d="M0 0 C0.33 0 0.66 0 1 0 C1 2.97 1 5.94 1 9 C0.67 9 0.34 9 0 9 C0 6.03 0 3.06 0 0 Z " fill="#ECECEC" transform="translate(137,194)"/>
<path d="M0 0 C2.97 0 5.94 0 9 0 C9 0.33 9 0.66 9 1 C6.03 1 3.06 1 0 1 C0 0.67 0 0.34 0 0 Z " fill="#EEEEEE" transform="translate(203,196)"/>
<path d="M0 0 C2.97 0 5.94 0 9 0 C9 0.33 9 0.66 9 1 C6.03 1 3.06 1 0 1 C0 0.67 0 0.34 0 0 Z " fill="#EEEEEE" transform="translate(183,196)"/>
<path d="M0 0 C2.97 0 5.94 0 9 0 C9 0.33 9 0.66 9 1 C6.03 1 3.06 1 0 1 C0 0.67 0 0.34 0 0 Z " fill="#ECECEC" transform="translate(180,167)"/>
<path d="M0 0 C0.66 0.33 1.32 0.66 2 1 C0.35 2.32 -1.3 3.64 -3 5 C-1.125 1.125 -1.125 1.125 0 0 Z " fill="#EEEEEE" transform="translate(85,115)"/>
<path d="M0 0 C1.65 0.33 3.3 0.66 5 1 C4.38125 1.144375 3.7625 1.28875 3.125 1.4375 C0.96741678 1.93152225 0.96741678 1.93152225 -1 3 C-0.67 2.01 -0.34 1.02 0 0 Z " fill="#EFEFEF" transform="translate(101,87)"/>
<path d="M0 0 C1.98 0.495 1.98 0.495 4 1 C3.01 1 2.02 1 1 1 C0.67 2.32 0.34 3.64 0 5 C-0.33 4.34 -0.66 3.68 -1 3 C-0.67 2.01 -0.34 1.02 0 0 Z " fill="#EEEEEE" transform="translate(212,38)"/>
<path d="M0 0 C0.99 0.99 1.98 1.98 3 3 C2.67 3.99 2.34 4.98 2 6 C1.34 4.02 0.68 2.04 0 0 Z " fill="#EEEEEE" transform="translate(152,57)"/>
<path d="M0 0 C1 2 2 4 3 6 C2.01 5.67 1.02 5.34 0 5 C0 3.35 0 1.7 0 0 Z " fill="#EDEDED" transform="translate(184,34)"/>
<path d="M0 0 C0.33 0 0.66 0 1 0 C1 2.31 1 4.62 1 7 C0.67 7 0.34 7 0 7 C0 4.69 0 2.38 0 0 Z " fill="#EDEDED" transform="translate(304,365)"/>
<path d="M0 0 C0.66 0.33 1.32 0.66 2 1 C0.68 1.99 -0.64 2.98 -2 4 C-1.34 2.68 -0.68 1.36 0 0 Z " fill="#EEEEEE" transform="translate(235,358)"/>
<path d="M0 0 C1.32 1.32 2.64 2.64 4 4 C2.68 3.34 1.36 2.68 0 2 C0 1.34 0 0.68 0 0 Z " fill="#EFEFEF" transform="translate(159,217)"/>
<path d="M0 0 C2.31 0 4.62 0 7 0 C7 0.33 7 0.66 7 1 C4.69 1 2.38 1 0 1 C0 0.67 0 0.34 0 0 Z " fill="#EEEEEE" transform="translate(180,151)"/>
<path d="M0 0 C2.31 0 4.62 0 7 0 C7 0.33 7 0.66 7 1 C4.69 1 2.38 1 0 1 C0 0.67 0 0.34 0 0 Z " fill="#EDEDED" transform="translate(138,78)"/>
<path d="M0 0 C0.66 0.33 1.32 0.66 2 1 C0.68 1.99 -0.64 2.98 -2 4 C-1.34 2.68 -0.68 1.36 0 0 Z " fill="#EFEFEF" transform="translate(383,71)"/>
<path d="M0 0 C2.31 0 4.62 0 7 0 C7 0.33 7 0.66 7 1 C4.69 1 2.38 1 0 1 C0 0.67 0 0.34 0 0 Z " fill="#EEEEEE" transform="translate(138,58)"/>
<path d="M0 0 C0.33 0.66 0.66 1.32 1 2 C0.01 3.485 0.01 3.485 -1 5 C-0.67 3.35 -0.34 1.7 0 0 Z " fill="#EEEEEE" transform="translate(194,348)"/>
<path d="M0 0 C0.33 0 0.66 0 1 0 C1 1.98 1 3.96 1 6 C0.67 6 0.34 6 0 6 C0 4.02 0 2.04 0 0 Z " fill="#EFEFEF" transform="translate(283,235)"/>
<path d="M0 0 C1.98 0 3.96 0 6 0 C6 0.33 6 0.66 6 1 C4.02 1 2.04 1 0 1 C0 0.67 0 0.34 0 0 Z " fill="#EEEEEE" transform="translate(182,228)"/>
<path d="M0 0 C1.98 0 3.96 0 6 0 C6 0.33 6 0.66 6 1 C4.02 1 2.04 1 0 1 C0 0.67 0 0.34 0 0 Z " fill="#EDEDED" transform="translate(91,140)"/>
<path d="M0 0 C0.33 0 0.66 0 1 0 C1 1.98 1 3.96 1 6 C0.67 6 0.34 6 0 6 C0 4.02 0 2.04 0 0 Z " fill="#EDEDED" transform="translate(86,124)"/>
<path d="M0 0 C0 0.99 0 1.98 0 3 C-0.99 3.495 -0.99 3.495 -2 4 C-1.34 2.68 -0.68 1.36 0 0 Z " fill="#EEEEEE" transform="translate(126,98)"/>
<path d="M0 0 C1.98 0 3.96 0 6 0 C6 0.33 6 0.66 6 1 C4.02 1 2.04 1 0 1 C0 0.67 0 0.34 0 0 Z " fill="#EEEEEE" transform="translate(138,51)"/>
<path d="M0 0 C0 0.99 0 1.98 0 3 C-0.99 3.495 -0.99 3.495 -2 4 C-1.34 2.68 -0.68 1.36 0 0 Z " fill="#EEEEEE" transform="translate(351,49)"/>
<path d="M0 0 C0.33 0.99 0.66 1.98 1 3 C0.34 3.66 -0.32 4.32 -1 5 C-0.67 3.35 -0.34 1.7 0 0 Z " fill="#EEEEEE" transform="translate(310,29)"/>
<path d="M0 0 C0.99 0.495 0.99 0.495 2 1 C1.67 1.99 1.34 2.98 1 4 C0.67 2.68 0.34 1.36 0 0 Z " fill="#EEEEEE" transform="translate(201,350)"/>
<path d="M0 0 C0.33 0.66 0.66 1.32 1 2 C0.34 2.66 -0.32 3.32 -1 4 C-0.67 2.68 -0.34 1.36 0 0 Z " fill="#EEEEEE" transform="translate(81,120)"/>
<path d="M0 0 C1.65 0 3.3 0 5 0 C5 0.33 5 0.66 5 1 C3.35 1 1.7 1 0 1 C0 0.67 0 0.34 0 0 Z " fill="#EDEDED" transform="translate(410,119)"/>
<path d="M0 0 C0 0.99 0 1.98 0 3 C-0.66 2.67 -1.32 2.34 -2 2 C-1.34 1.34 -0.68 0.68 0 0 Z " fill="#EEEEEE" transform="translate(151,73)"/>
<path d="M0 0 C0.33 0 0.66 0 1 0 C1 1.65 1 3.3 1 5 C0.67 5 0.34 5 0 5 C0 3.35 0 1.7 0 0 Z " fill="#EDEDED" transform="translate(134,62)"/>
<path d="M0 0 C0.66 0.33 1.32 0.66 2 1 C1.01 1.66 0.02 2.32 -1 3 C-0.67 2.01 -0.34 1.02 0 0 Z " fill="#EDEDED" transform="translate(136,59)"/>
<path d="M0 0 C1.65 0 3.3 0 5 0 C5 0.33 5 0.66 5 1 C3.35 1 1.7 1 0 1 C0 0.67 0 0.34 0 0 Z " fill="#EEEEEE" transform="translate(256,40)"/>
<path d="M0 0 C0.33 0.66 0.66 1.32 1 2 C0.34 2.66 -0.32 3.32 -1 4 C-0.67 2.68 -0.34 1.36 0 0 Z " fill="#EEEEEE" transform="translate(326,33)"/>
<path d="M0 0 C0.33 0 0.66 0 1 0 C1 1.65 1 3.3 1 5 C0.67 5 0.34 5 0 5 C0 3.35 0 1.7 0 0 Z " fill="#EEEEEE" transform="translate(209,19)"/>
<path d="M0 0 C0.99 0.495 0.99 0.495 2 1 C1.67 1.66 1.34 2.32 1 3 C0.67 2.01 0.34 1.02 0 0 Z " fill="#EEEEEE" transform="translate(232,374)"/>
<path d="M0 0 C0.99 0.495 0.99 0.495 2 1 C1.67 1.66 1.34 2.32 1 3 C0.67 2.01 0.34 1.02 0 0 Z " fill="#EEEEEE" transform="translate(280,371)"/>
<path d="M0 0 C1 4 1 4 1 4 Z " fill="#EEEEEE" transform="translate(257,369)"/>
<path d="M0 0 C0.99 0.495 0.99 0.495 2 1 C1.67 1.66 1.34 2.32 1 3 C0.67 2.01 0.34 1.02 0 0 Z " fill="#EEEEEE" transform="translate(294,367)"/>
<path d="M0 0 C1 4 1 4 1 4 Z " fill="#EEEEEE" transform="translate(257,364)"/>
<path d="M0 0 C0.99 0.495 0.99 0.495 2 1 C1.67 1.66 1.34 2.32 1 3 C0.67 2.01 0.34 1.02 0 0 Z " fill="#EEEEEE" transform="translate(275,363)"/>
<path d="M0 0 C1 4 1 4 1 4 Z " fill="#EEEEEE" transform="translate(190,360)"/>
<path d="M0 0 C0.99 0.495 0.99 0.495 2 1 C1.67 1.66 1.34 2.32 1 3 C0.67 2.01 0.34 1.02 0 0 Z " fill="#EEEEEE" transform="translate(295,357)"/>
<path d="M0 0 C0.99 0.495 0.99 0.495 2 1 C1.67 1.66 1.34 2.32 1 3 C0.67 2.01 0.34 1.02 0 0 Z " fill="#EEEEEE" transform="translate(278,356)"/>
<path d="M0 0 C0.99 0.495 0.99 0.495 2 1 C1.34 1.66 0.68 2.32 0 3 C0 2.01 0 1.02 0 0 Z " fill="#EFEFEF" transform="translate(271,355)"/>
<path d="M0 0 C1 4 1 4 1 4 Z " fill="#EEEEEE" transform="translate(192,353)"/>
<path d="M0 0 C4 1 4 1 4 1 Z " fill="#F0F0F0" transform="translate(290,243)"/>
<path d="M0 0 C4 1 4 1 4 1 Z " fill="#EDEDED" transform="translate(189,243)"/>
<path d="M0 0 C4 1 4 1 4 1 Z " fill="#EDEDED" transform="translate(174,243)"/>
<path d="M0 0 C0.99 0.33 1.98 0.66 3 1 C2.01 1 1.02 1 0 1 C0 0.67 0 0.34 0 0 Z " fill="#EEEEEE" transform="translate(155,235)"/>
<path d="M0 0 C0.99 0.495 0.99 0.495 2 1 C1.67 1.66 1.34 2.32 1 3 C0.67 2.01 0.34 1.02 0 0 Z " fill="#EFEFEF" transform="translate(147,227)"/>
<path d="M0 0 C4 1 4 1 4 1 Z " fill="#EEEEEE" transform="translate(191,227)"/>
<path d="M0 0 C0.99 0.33 1.98 0.66 3 1 C2.01 1 1.02 1 0 1 C0 0.67 0 0.34 0 0 Z " fill="#EEEEEE" transform="translate(164,222)"/>
<path d="M0 0 C0 3 0 3 0 3 Z " fill="#EFEFEF" transform="translate(147,168)"/>
<path d="M0 0 C4 1 4 1 4 1 Z " fill="#EEEEEE" transform="translate(190,152)"/>
<path d="M0 0 C0.99 0.33 1.98 0.66 3 1 C2.01 1 1.02 1 0 1 C0 0.67 0 0.34 0 0 Z " fill="#EEEEEE" transform="translate(115,104)"/>
<path d="M0 0 C4 1 4 1 4 1 Z " fill="#EFEFEF" transform="translate(248,101)"/>
<path d="M0 0 C0 3 0 3 0 3 Z " fill="#EFEFEF" transform="translate(128,95)"/>
<path d="M0 0 C0 3 0 3 0 3 Z " fill="#EEEEEE" transform="translate(384,94)"/>
<path d="M0 0 C0.99 0.33 1.98 0.66 3 1 C2.01 1 1.02 1 0 1 C0 0.67 0 0.34 0 0 Z " fill="#EEEEEE" transform="translate(112,94)"/>
<path d="M0 0 C0.99 0.33 1.98 0.66 3 1 C2.01 1 1.02 1 0 1 C0 0.67 0 0.34 0 0 Z " fill="#EEEEEE" transform="translate(102,94)"/>
<path d="M0 0 C0.99 0.33 1.98 0.66 3 1 C2.01 1 1.02 1 0 1 C0 0.67 0 0.34 0 0 Z " fill="#EEEEEE" transform="translate(108,91)"/>
<path d="M0 0 C0 3 0 3 0 3 Z " fill="#EEEEEE" transform="translate(394,90)"/>
<path d="M0 0 C0 3 0 3 0 3 Z " fill="#EEEEEE" transform="translate(371,88)"/>
<path d="M0 0 C0 3 0 3 0 3 Z " fill="#EFEFEF" transform="translate(376,81)"/>
<path d="M0 0 C0 3 0 3 0 3 Z " fill="#EEEEEE" transform="translate(384,80)"/>
<path d="M0 0 C0 3 0 3 0 3 Z " fill="#EEEEEE" transform="translate(378,78)"/>
<path d="M0 0 C0 3 0 3 0 3 Z " fill="#EEEEEE" transform="translate(386,77)"/>
<path d="M0 0 C0 3 0 3 0 3 Z " fill="#EEEEEE" transform="translate(380,75)"/>
<path d="M0 0 C0.99 0.33 1.98 0.66 3 1 C2.01 1 1.02 1 0 1 C0 0.67 0 0.34 0 0 Z " fill="#EEEEEE" transform="translate(347,73)"/>
<path d="M0 0 C0.99 0.495 0.99 0.495 2 1 C1.67 1.66 1.34 2.32 1 3 C0.67 2.01 0.34 1.02 0 0 Z " fill="#EEEEEE" transform="translate(129,70)"/>
<path d="M0 0 C0.99 0.33 1.98 0.66 3 1 C2.01 1 1.02 1 0 1 C0 0.67 0 0.34 0 0 Z " fill="#EEEEEE" transform="translate(343,70)"/>
<path d="M0 0 C0 3 0 3 0 3 Z " fill="#EEEEEE" transform="translate(345,57)"/>
<path d="M0 0 C0.99 0.33 1.98 0.66 3 1 C2.01 1 1.02 1 0 1 C0 0.67 0 0.34 0 0 Z " fill="#EEEEEE" transform="translate(358,56)"/>
<path d="M0 0 C0 3 0 3 0 3 Z " fill="#EEEEEE" transform="translate(348,53)"/>
<path d="M0 0 C0.99 0.33 1.98 0.66 3 1 C2.01 1 1.02 1 0 1 C0 0.67 0 0.34 0 0 Z " fill="#EFEFEF" transform="translate(147,53)"/>
<path d="M0 0 C0.99 0.33 1.98 0.66 3 1 C2.01 1 1.02 1 0 1 C0 0.67 0 0.34 0 0 Z " fill="#EEEEEE" transform="translate(356,47)"/>
<path d="M0 0 C1 4 1 4 1 4 Z " fill="#EFEFEF" transform="translate(332,33)"/>
<path d="M0 0 C0.99 0.495 0.99 0.495 2 1 C1.67 1.66 1.34 2.32 1 3 C0.67 2.01 0.34 1.02 0 0 Z " fill="#EEEEEE" transform="translate(224,29)"/>
<path d="M0 0 C0.99 0.33 1.98 0.66 3 1 C2.01 1 1.02 1 0 1 C0 0.67 0 0.34 0 0 Z " fill="#EFEFEF" transform="translate(180,30)"/>
<path d="M0 0 C0.99 0.495 0.99 0.495 2 1 C1.67 1.66 1.34 2.32 1 3 C0.67 2.01 0.34 1.02 0 0 Z " fill="#EEEEEE" transform="translate(222,26)"/>
<path d="M0 0 C4 1 4 1 4 1 Z " fill="#EEEEEE" transform="translate(248,13)"/>
<path d="M0 0 C3 1 3 1 3 1 Z " fill="#EEEEEE" transform="translate(247,381)"/>
<path d="M0 0 C3 1 3 1 3 1 Z " fill="#EDEDED" transform="translate(245,375)"/>
<path d="M0 0 C0.33 0.66 0.66 1.32 1 2 C0.34 1.67 -0.32 1.34 -1 1 C-0.67 0.67 -0.34 0.34 0 0 Z " fill="#EEEEEE" transform="translate(249,373)"/>
<path d="" fill="#EEEEEE" transform="translate(0,0)"/>
<path d="" fill="#EEEEEE" transform="translate(0,0)"/>
<path d="" fill="#EFEFEF" transform="translate(0,0)"/>
<path d="" fill="#EFEFEF" transform="translate(0,0)"/>
<path d="" fill="#EEEEEE" transform="translate(0,0)"/>
<path d="" fill="#EEEEEE" transform="translate(0,0)"/>
<path d="" fill="#EEEEEE" transform="translate(0,0)"/>
<path d="" fill="#EEEEEE" transform="translate(0,0)"/>
<path d="M0 0 C0.66 0 1.32 0 2 0 C1.67 0.66 1.34 1.32 1 2 C0.67 1.34 0.34 0.68 0 0 Z " fill="#EFEFEF" transform="translate(253,359)"/>
<path d="" fill="#EDEDED" transform="translate(0,0)"/>
<path d="M0 0 C3 1 3 1 3 1 Z " fill="#EEEEEE" transform="translate(211,351)"/>
<path d="M0 0 C3 1 3 1 3 1 Z " fill="#EEEEEE" transform="translate(301,346)"/>
<path d="M0 0 C3 1 3 1 3 1 Z " fill="#EFEFEF" transform="translate(248,298)"/>
<path d="M0 0 C3 1 3 1 3 1 Z " fill="#EEEEEE" transform="translate(170,242)"/>
<path d="M0 0 C0.66 0.66 1.32 1.32 2 2 C1.34 2 0.68 2 0 2 C0 1.34 0 0.68 0 0 Z " fill="#EEEEEE" transform="translate(341,226)"/>
<path d="M0 0 C3 1 3 1 3 1 Z " fill="#EEEEEE" transform="translate(171,226)"/>
<path d="M0 0 C0.66 0.66 1.32 1.32 2 2 C1.34 2 0.68 2 0 2 C0 1.34 0 0.68 0 0 Z " fill="#EEEEEE" transform="translate(331,216)"/>
<path d="M0 0 C0.66 0.66 1.32 1.32 2 2 C1.34 2 0.68 2 0 2 C0 1.34 0 0.68 0 0 Z " fill="#EDEDED" transform="translate(329,214)"/>
<path d="" fill="#EEEEEE" transform="translate(0,0)"/>
<path d="" fill="#EEEEEE" transform="translate(0,0)"/>
<path d="" fill="#EDEDED" transform="translate(0,0)"/>
<path d="M0 0 C3 1 3 1 3 1 Z " fill="#EDEDED" transform="translate(191,168)"/>
<path d="M0 0 C3 1 3 1 3 1 Z " fill="#EEEEEE" transform="translate(174,168)"/>
<path d="" fill="#EEEEEE" transform="translate(0,0)"/>
<path d="" fill="#EEEEEE" transform="translate(0,0)"/>
<path d="M0 0 C3 1 3 1 3 1 Z " fill="#EEEEEE" transform="translate(202,155)"/>
<path d="M0 0 C3 1 3 1 3 1 Z " fill="#EEEEEE" transform="translate(199,154)"/>
<path d="M0 0 C3 1 3 1 3 1 Z " fill="#EEEEEE" transform="translate(166,154)"/>
<path d="M0 0 C3 1 3 1 3 1 Z " fill="#EEEEEE" transform="translate(196,153)"/>
<path d="M0 0 C3 1 3 1 3 1 Z " fill="#EEEEEE" transform="translate(169,153)"/>
<path d="M0 0 C3 1 3 1 3 1 Z " fill="#EDEDED" transform="translate(174,152)"/>
<path d="M0 0 C3 1 3 1 3 1 Z " fill="#EFEFEF" transform="translate(398,124)"/>
<path d="M0 0 C3 1 3 1 3 1 Z " fill="#EEEEEE" transform="translate(87,114)"/>
<path d="M0 0 C3 1 3 1 3 1 Z " fill="#EEEEEE" transform="translate(383,107)"/>
<path d="M0 0 C0.33 0.66 0.66 1.32 1 2 C0.34 1.67 -0.32 1.34 -1 1 C-0.67 0.67 -0.34 0.34 0 0 Z " fill="#EFEFEF" transform="translate(121,104)"/>
<path d="M0 0 C3 1 3 1 3 1 Z " fill="#EEEEEE" transform="translate(401,100)"/>
<path d="" fill="#EEEEEE" transform="translate(0,0)"/>
<path d="" fill="#EEEEEE" transform="translate(0,0)"/>
<path d="" fill="#EEEEEE" transform="translate(0,0)"/>
<path d="" fill="#F0F0F0" transform="translate(0,0)"/>
<path d="" fill="#EFEFEF" transform="translate(0,0)"/>
<path d="" fill="#EEEEEE" transform="translate(0,0)"/>
<path d="M0 0 C2 1 2 1 2 1 Z " fill="#EFEFEF" transform="translate(251,379)"/>
<path d="M0 0 C2 1 2 1 2 1 Z " fill="#EEEEEE" transform="translate(285,378)"/>
<path d="M0 0 C2 1 2 1 2 1 Z " fill="#EDEDED" transform="translate(206,377)"/>
<path d="" fill="#EFEFEF" transform="translate(0,0)"/>
<path d="" fill="#EEEEEE" transform="translate(0,0)"/>
<path d="M0 0 C2 1 2 1 2 1 Z " fill="#EDEDED" transform="translate(241,375)"/>
<path d="M0 0 C2 1 2 1 2 1 Z " fill="#EDEDED" transform="translate(300,374)"/>
<path d="" fill="#EFEFEF" transform="translate(0,0)"/>
<path d="M0 0 C2 1 2 1 2 1 Z " fill="#EEEEEE" transform="translate(239,374)"/>
<path d="" fill="#EDEDED" transform="translate(0,0)"/>
<path d="" fill="#EDEDED" transform="translate(0,0)"/>
<path d="" fill="#EFEFEF" transform="translate(0,0)"/>
<path d="" fill="#EEEEEE" transform="translate(0,0)"/>
<path d="" fill="#EDEDED" transform="translate(0,0)"/>
<path d="" fill="#EEEEEE" transform="translate(0,0)"/>
<path d="" fill="#EEEEEE" transform="translate(0,0)"/>
<path d="" fill="#EEEEEE" transform="translate(0,0)"/>
<path d="" fill="#EEEEEE" transform="translate(0,0)"/>
<path d="" fill="#EEEEEE" transform="translate(0,0)"/>
<path d="" fill="#EEEEEE" transform="translate(0,0)"/>
<path d="M0 0 C2 1 2 1 2 1 Z " fill="#EEEEEE" transform="translate(249,356)"/>
<path d="M0 0 C2 1 2 1 2 1 Z " fill="#EEEEEE" transform="translate(238,356)"/>
<path d="" fill="#EEEEEE" transform="translate(0,0)"/>
<path d="M0 0 C2 1 2 1 2 1 Z " fill="#EEEEEE" transform="translate(198,347)"/>
<path d="M0 0 C2 1 2 1 2 1 Z " fill="#F0F0F0" transform="translate(286,243)"/>
<path d="M0 0 C2 1 2 1 2 1 Z " fill="#EDEDED" transform="translate(195,242)"/>
<path d="M0 0 C2 1 2 1 2 1 Z " fill="#EDEDED" transform="translate(199,241)"/>
<path d="M0 0 C2 1 2 1 2 1 Z " fill="#EDEDED" transform="translate(167,241)"/>
<path d="M0 0 C2 1 2 1 2 1 Z " fill="#EDEDED" transform="translate(202,240)"/>
<path d="M0 0 C2 1 2 1 2 1 Z " fill="#EEEEEE" transform="translate(164,240)"/>
<path d="M0 0 C2 1 2 1 2 1 Z " fill="#EEEEEE" transform="translate(204,239)"/>
<path d="M0 0 C2 1 2 1 2 1 Z " fill="#EEEEEE" transform="translate(162,239)"/>
<path d="M0 0 C2 1 2 1 2 1 Z " fill="#EEEEEE" transform="translate(158,237)"/>
<path d="M0 0 C2 1 2 1 2 1 Z " fill="#EFEFEF" transform="translate(151,232)"/>
<path d="M0 0 C2 1 2 1 2 1 Z " fill="#EDEDED" transform="translate(169,225)"/>
<path d="M0 0 C2 1 2 1 2 1 Z " fill="#EEEEEE" transform="translate(167,224)"/>
<path d="" fill="#EEEEEE" transform="translate(0,0)"/>
<path d="" fill="#EEEEEE" transform="translate(0,0)"/>
<path d="" fill="#EEEEEE" transform="translate(0,0)"/>
<path d="" fill="#EEEEEE" transform="translate(0,0)"/>
<path d="" fill="#EEEEEE" transform="translate(0,0)"/>
<path d="" fill="#EDEDED" transform="translate(0,0)"/>
<path d="" fill="#EDEDED" transform="translate(0,0)"/>
<path d="" fill="#EDEDED" transform="translate(0,0)"/>
<path d="" fill="#EEEEEE" transform="translate(0,0)"/>
<path d="" fill="#EEEEEE" transform="translate(0,0)"/>
<path d="" fill="#EEEEEE" transform="translate(0,0)"/>
<path d="M0 0 C2 1 2 1 2 1 Z " fill="#EFEFEF" transform="translate(162,174)"/>
<path d="" fill="#EEEEEE" transform="translate(0,0)"/>
<path d="M0 0 C2 1 2 1 2 1 Z " fill="#EEEEEE" transform="translate(201,171)"/>
<path d="" fill="#EDEDED" transform="translate(0,0)"/>
<path d="M0 0 C2 1 2 1 2 1 Z " fill="#EDEDED" transform="translate(199,170)"/>
<path d="M0 0 C2 1 2 1 2 1 Z " fill="#EDEDED" transform="translate(196,169)"/>
<path d="M0 0 C2 1 2 1 2 1 Z " fill="#EDEDED" transform="translate(171,169)"/>
<path d="" fill="#EDEDED" transform="translate(0,0)"/>
<path d="M0 0 C2 1 2 1 2 1 Z " fill="#EFEFEF" transform="translate(154,161)"/>
<path d="" fill="#F0F0F0" transform="translate(0,0)"/>
<path d="M0 0 C2 1 2 1 2 1 Z " fill="#EEEEEE" transform="translate(158,158)"/>
<path d="M0 0 C2 1 2 1 2 1 Z " fill="#EEEEEE" transform="translate(207,157)"/>
<path d="M0 0 C2 1 2 1 2 1 Z " fill="#EEEEEE" transform="translate(160,157)"/>
<path d="M0 0 C2 1 2 1 2 1 Z " fill="#EEEEEE" transform="translate(205,156)"/>
<path d="M0 0 C2 1 2 1 2 1 Z " fill="#EEEEEE" transform="translate(162,156)"/>
<path d="M0 0 C2 1 2 1 2 1 Z " fill="#EDEDED" transform="translate(164,155)"/>
<path d="M0 0 C2 1 2 1 2 1 Z " fill="#EEEEEE" transform="translate(405,141)"/>
<path d="M0 0 C2 1 2 1 2 1 Z " fill="#EDEDED" transform="translate(88,139)"/>
<path d="" fill="#EEEEEE" transform="translate(0,0)"/>
<path d="" fill="#EEEEEE" transform="translate(0,0)"/>
<path d="" fill="#EDEDED" transform="translate(0,0)"/>
<path d="" fill="#EDEDED" transform="translate(0,0)"/>
<path d="" fill="#EEEEEE" transform="translate(0,0)"/>
<path d="M0 0 C2 1 2 1 2 1 Z " fill="#EEEEEE" transform="translate(415,120)"/>
<path d="M0 0 C2 1 2 1 2 1 Z " fill="#EEEEEE" transform="translate(408,120)"/>
<path d="M0 0 C2 1 2 1 2 1 Z " fill="#EEEEEE" transform="translate(99,116)"/>
<path d="M0 0 C2 1 2 1 2 1 Z " fill="#EEEEEE" transform="translate(386,106)"/>
<path d="M0 0 C2 1 2 1 2 1 Z " fill="#EEEEEE" transform="translate(118,106)"/>
<path d="M0 0 C2 1 2 1 2 1 Z " fill="#EEEEEE" transform="translate(388,105)"/>
<path d="M0 0 C2 1 2 1 2 1 Z " fill="#EEEEEE" transform="translate(391,104)"/>
<path d="M0 0 C2 1 2 1 2 1 Z " fill="#EEEEEE" transform="translate(396,102)"/>
<path d="M0 0 C2 1 2 1 2 1 Z " fill="#EDEDED" transform="translate(399,101)"/>
<path d="M0 0 C2 1 2 1 2 1 Z " fill="#EEEEEE" transform="translate(111,101)"/>
<path d="M0 0 C2 1 2 1 2 1 Z " fill="#EFEFEF" transform="translate(106,97)"/>
<path d="" fill="#EEEEEE" transform="translate(0,0)"/>
<path d="" fill="#EEEEEE" transform="translate(0,0)"/>
<path d="" fill="#EFEFEF" transform="translate(0,0)"/>
<path d="" fill="#EEEEEE" transform="translate(0,0)"/>
<path d="M0 0 C2 1 2 1 2 1 Z " fill="#EEEEEE" transform="translate(146,77)"/>
<path d="M0 0 C2 1 2 1 2 1 Z " fill="#EFEFEF" transform="translate(134,76)"/>
<path d="" fill="#EFEFEF" transform="translate(0,0)"/>
<path d="M0 0 C2 1 2 1 2 1 Z " fill="#EEEEEE" transform="translate(357,67)"/>
<path d="M0 0 C2 1 2 1 2 1 Z " fill="#EEEEEE" transform="translate(352,64)"/>
<path d="M0 0 C2 1 2 1 2 1 Z " fill="#EDEDED" transform="translate(349,62)"/>
<path d="" fill="#EDEDED" transform="translate(0,0)"/>
<path d="M0 0 C2 1 2 1 2 1 Z " fill="#EEEEEE" transform="translate(364,60)"/>
<path d="M0 0 C2 1 2 1 2 1 Z " fill="#EEEEEE" transform="translate(362,59)"/>
<path d="" fill="#EFEFEF" transform="translate(0,0)"/>
<path d="M0 0 C2 1 2 1 2 1 Z " fill="#EEEEEE" transform="translate(176,57)"/>
<path d="M0 0 C2 1 2 1 2 1 Z " fill="#EEEEEE" transform="translate(320,56)"/>
<path d="" fill="#EEEEEE" transform="translate(0,0)"/>
<path d="" fill="#EEEEEE" transform="translate(0,0)"/>
<path d="M0 0 C2 1 2 1 2 1 Z " fill="#EFEFEF" transform="translate(184,53)"/>
<path d="M0 0 C2 1 2 1 2 1 Z " fill="#EEEEEE" transform="translate(134,53)"/>
<path d="" fill="#EEEEEE" transform="translate(0,0)"/>
<path d="M0 0 C2 1 2 1 2 1 Z " fill="#EDEDED" transform="translate(136,52)"/>
<path d="" fill="#EEEEEE" transform="translate(0,0)"/>
<path d="" fill="#EEEEEE" transform="translate(0,0)"/>
<path d="M0 0 C2 1 2 1 2 1 Z " fill="#EEEEEE" transform="translate(354,46)"/>
<path d="" fill="#EFEFEF" transform="translate(0,0)"/>
<path d="" fill="#EDEDED" transform="translate(0,0)"/>
<path d="M0 0 C2 1 2 1 2 1 Z " fill="#EEEEEE" transform="translate(207,45)"/>
<path d="" fill="#EEEEEE" transform="translate(0,0)"/>
<path d="" fill="#EEEEEE" transform="translate(0,0)"/>
<path d="M0 0 C2 1 2 1 2 1 Z " fill="#EDEDED" transform="translate(226,41)"/>
<path d="" fill="#EEEEEE" transform="translate(0,0)"/>
<path d="" fill="#EEEEEE" transform="translate(0,0)"/>
<path d="" fill="#EDEDED" transform="translate(0,0)"/>
<path d="" fill="#EFEFEF" transform="translate(0,0)"/>
<path d="" fill="#EEEEEE" transform="translate(0,0)"/>
<path d="" fill="#EEEEEE" transform="translate(0,0)"/>
<path d="M0 0 C2 1 2 1 2 1 Z " fill="#EEEEEE" transform="translate(165,33)"/>
<path d="M0 0 C2 1 2 1 2 1 Z " fill="#EEEEEE" transform="translate(167,32)"/>
<path d="M0 0 C2 1 2 1 2 1 Z " fill="#EEEEEE" transform="translate(329,31)"/>
<path d="" fill="#F0F0F0" transform="translate(0,0)"/>
<path d="" fill="#EEEEEE" transform="translate(0,0)"/>
<path d="M0 0 C2 1 2 1 2 1 Z " fill="#EEEEEE" transform="translate(315,25)"/>
<path d="" fill="#EEEEEE" transform="translate(0,0)"/>
<path d="" fill="#EEEEEE" transform="translate(0,0)"/>
<path d="" fill="#EDEDED" transform="translate(0,0)"/>
<path d="" fill="#EDEDED" transform="translate(0,0)"/>
<path d="" fill="#EDEDED" transform="translate(0,0)"/>
<path d="" fill="#EFEFEF" transform="translate(0,0)"/>
<path d="" fill="#EEEEEE" transform="translate(0,0)"/>
<path d="" fill="#EEEEEE" transform="translate(0,0)"/>
<path d="" fill="#EFEFEF" transform="translate(0,0)"/>
<path d="" fill="#EEEEEE" transform="translate(0,0)"/>
<path d="" fill="#EEEEEE" transform="translate(0,0)"/>
<path d="" fill="#EFEFEF" transform="translate(0,0)"/>
<path d="" fill="#EFEFEF" transform="translate(0,0)"/>
<path d="" fill="#F0F0F0" transform="translate(0,0)"/>
<path d="" fill="#EEEEEE" transform="translate(0,0)"/>
<path d="" fill="#EDEDED" transform="translate(0,0)"/>
<path d="" fill="#EDEDED" transform="translate(0,0)"/>
<path d="" fill="#ECECEC" transform="translate(0,0)"/>
<path d="" fill="#EDEDED" transform="translate(0,0)"/>
<path d="" fill="#EFEFEF" transform="translate(0,0)"/>
<path d="" fill="#EDEDED" transform="translate(0,0)"/>
<path d="" fill="#EDEDED" transform="translate(0,0)"/>
<path d="" fill="#EFEFEF" transform="translate(0,0)"/>
<path d="" fill="#EDEDED" transform="translate(0,0)"/>
<path d="" fill="#EFEFEF" transform="translate(0,0)"/>
<path d="" fill="#EFEFEF" transform="translate(0,0)"/>
<path d="" fill="#F0F0F0" transform="translate(0,0)"/>
<path d="" fill="#EFEFEF" transform="translate(0,0)"/>
<path d="" fill="#EFEFEF" transform="translate(0,0)"/>
<path d="" fill="#EEEEEE" transform="translate(0,0)"/>
<path d="" fill="#EEEEEE" transform="translate(0,0)"/>
<path d="" fill="#F0F0F0" transform="translate(0,0)"/>
<path d="" fill="#EFEFEF" transform="translate(0,0)"/>
<path d="" fill="#EFEFEF" transform="translate(0,0)"/>
<path d="" fill="#EFEFEF" transform="translate(0,0)"/>
<path d="" fill="#EFEFEF" transform="translate(0,0)"/>
<path d="" fill="#EDEDED" transform="translate(0,0)"/>
<path d="" fill="#EEEEEE" transform="translate(0,0)"/>
<path d="" fill="#EDEDED" transform="translate(0,0)"/>
<path d="" fill="#EDEDED" transform="translate(0,0)"/>
<path d="" fill="#EFEFEF" transform="translate(0,0)"/>
<path d="" fill="#EFEFEF" transform="translate(0,0)"/>
<path d="" fill="#EDEDED" transform="translate(0,0)"/>
<path d="" fill="#EDEDED" transform="translate(0,0)"/>
<path d="" fill="#EFEFEF" transform="translate(0,0)"/>
<path d="" fill="#EFEFEF" transform="translate(0,0)"/>
<path d="" fill="#EDEDED" transform="translate(0,0)"/>
<path d="" fill="#EEEEEE" transform="translate(0,0)"/>
<path d="" fill="#EDEDED" transform="translate(0,0)"/>
<path d="" fill="#EEEEEE" transform="translate(0,0)"/>
<path d="" fill="#EEEEEE" transform="translate(0,0)"/>
<path d="" fill="#EDEDED" transform="translate(0,0)"/>
<path d="" fill="#EDEDED" transform="translate(0,0)"/>
<path d="" fill="#EDEDED" transform="translate(0,0)"/>
<path d="" fill="#EEEEEE" transform="translate(0,0)"/>
<path d="" fill="#EDEDED" transform="translate(0,0)"/>
<path d="" fill="#EDEDED" transform="translate(0,0)"/>
<path d="" fill="#EDEDED" transform="translate(0,0)"/>
<path d="" fill="#EDEDED" transform="translate(0,0)"/>
<path d="" fill="#EDEDED" transform="translate(0,0)"/>
<path d="" fill="#ECECEC" transform="translate(0,0)"/>
<path d="" fill="#ECECEC" transform="translate(0,0)"/>
<path d="" fill="#ECECEC" transform="translate(0,0)"/>
<path d="" fill="#ECECEC" transform="translate(0,0)"/>
<path d="" fill="#F0F0F0" transform="translate(0,0)"/>
<path d="" fill="#ECECEC" transform="translate(0,0)"/>
<path d="" fill="#ECECEC" transform="translate(0,0)"/>
<path d="" fill="#ECECEC" transform="translate(0,0)"/>
<path d="" fill="#ECECEC" transform="translate(0,0)"/>
<path d="" fill="#ECECEC" transform="translate(0,0)"/>
<path d="" fill="#ECECEC" transform="translate(0,0)"/>
<path d="" fill="#ECECEC" transform="translate(0,0)"/>
<path d="" fill="#ECECEC" transform="translate(0,0)"/>
<path d="" fill="#ECECEC" transform="translate(0,0)"/>
<path d="" fill="#ECECEC" transform="translate(0,0)"/>
<path d="" fill="#ECECEC" transform="translate(0,0)"/>
<path d="" fill="#ECECEC" transform="translate(0,0)"/>
<path d="" fill="#ECECEC" transform="translate(0,0)"/>
<path d="" fill="#EDEDED" transform="translate(0,0)"/>
<path d="" fill="#F0F0F0" transform="translate(0,0)"/>
<path d="" fill="#EDEDED" transform="translate(0,0)"/>
<path d="" fill="#EDEDED" transform="translate(0,0)"/>
<path d="" fill="#EFEFEF" transform="translate(0,0)"/>
<path d="" fill="#EDEDED" transform="translate(0,0)"/>
<path d="" fill="#EFEFEF" transform="translate(0,0)"/>
<path d="" fill="#EDEDED" transform="translate(0,0)"/>
<path d="" fill="#EEEEEE" transform="translate(0,0)"/>
<path d="" fill="#EDEDED" transform="translate(0,0)"/>
<path d="" fill="#EEEEEE" transform="translate(0,0)"/>
<path d="" fill="#EDEDED" transform="translate(0,0)"/>
<path d="" fill="#EEEEEE" transform="translate(0,0)"/>
<path d="" fill="#EDEDED" transform="translate(0,0)"/>
<path d="" fill="#EEEEEE" transform="translate(0,0)"/>
<path d="" fill="#EDEDED" transform="translate(0,0)"/>
<path d="" fill="#EEEEEE" transform="translate(0,0)"/>
<path d="" fill="#EDEDED" transform="translate(0,0)"/>
<path d="" fill="#EEEEEE" transform="translate(0,0)"/>
<path d="" fill="#EDEDED" transform="translate(0,0)"/>
<path d="" fill="#EDEDED" transform="translate(0,0)"/>
<path d="" fill="#EDEDED" transform="translate(0,0)"/>
<path d="" fill="#EDEDED" transform="translate(0,0)"/>
<path d="" fill="#EDEDED" transform="translate(0,0)"/>
<path d="" fill="#EDEDED" transform="translate(0,0)"/>
<path d="" fill="#EDEDED" transform="translate(0,0)"/>
<path d="" fill="#EDEDED" transform="translate(0,0)"/>
<path d="" fill="#ECECEC" transform="translate(0,0)"/>
<path d="" fill="#ECECEC" transform="translate(0,0)"/>
<path d="" fill="#ECECEC" transform="translate(0,0)"/>
<path d="" fill="#ECECEC" transform="translate(0,0)"/>
<path d="" fill="#EDEDED" transform="translate(0,0)"/>
<path d="" fill="#ECECEC" transform="translate(0,0)"/>
<path d="" fill="#ECECEC" transform="translate(0,0)"/>
<path d="" fill="#EFEFEF" transform="translate(0,0)"/>
<path d="" fill="#EDEDED" transform="translate(0,0)"/>
<path d="" fill="#ECECEC" transform="translate(0,0)"/>
<path d="" fill="#EEEEEE" transform="translate(0,0)"/>
<path d="" fill="#ECECEC" transform="translate(0,0)"/>
<path d="" fill="#ECECEC" transform="translate(0,0)"/>
<path d="" fill="#EDEDED" transform="translate(0,0)"/>
<path d="" fill="#ECECEC" transform="translate(0,0)"/>
<path d="" fill="#EDEDED" transform="translate(0,0)"/>
<path d="" fill="#EDEDED" transform="translate(0,0)"/>
<path d="" fill="#EDEDED" transform="translate(0,0)"/>
<path d="" fill="#EDEDED" transform="translate(0,0)"/>
<path d="" fill="#EDEDED" transform="translate(0,0)"/>
<path d="" fill="#EDEDED" transform="translate(0,0)"/>
<path d="" fill="#EDEDED" transform="translate(0,0)"/>
<path d="" fill="#EDEDED" transform="translate(0,0)"/>
<path d="" fill="#EDEDED" transform="translate(0,0)"/>
<path d="" fill="#EDEDED" transform="translate(0,0)"/>
<path d="" fill="#EDEDED" transform="translate(0,0)"/>
<path d="" fill="#EEEEEE" transform="translate(0,0)"/>
<path d="" fill="#EDEDED" transform="translate(0,0)"/>
<path d="" fill="#EEEEEE" transform="translate(0,0)"/>
<path d="" fill="#ECECEC" transform="translate(0,0)"/>
<path d="" fill="#EFEFEF" transform="translate(0,0)"/>
<path d="" fill="#EDEDED" transform="translate(0,0)"/>
<path d="" fill="#EFEFEF" transform="translate(0,0)"/>
<path d="" fill="#EDEDED" transform="translate(0,0)"/>
<path d="" fill="#EFEFEF" transform="translate(0,0)"/>
<path d="" fill="#EEEEEE" transform="translate(0,0)"/>
<path d="" fill="#F0F0F0" transform="translate(0,0)"/>
<path d="" fill="#F0F0F0" transform="translate(0,0)"/>
<path d="" fill="#EDEDED" transform="translate(0,0)"/>
<path d="" fill="#F1F1F1" transform="translate(0,0)"/>
<path d="" fill="#EDEDED" transform="translate(0,0)"/>
<path d="" fill="#F0F0F0" transform="translate(0,0)"/>
<path d="" fill="#EEEEEE" transform="translate(0,0)"/>
<path d="" fill="#EEEEEE" transform="translate(0,0)"/>
<path d="" fill="#EEEEEE" transform="translate(0,0)"/>
<path d="" fill="#EEEEEE" transform="translate(0,0)"/>
<path d="" fill="#EEEEEE" transform="translate(0,0)"/>
<path d="" fill="#EFEFEF" transform="translate(0,0)"/>
<path d="" fill="#EDEDED" transform="translate(0,0)"/>
<path d="" fill="#EFEFEF" transform="translate(0,0)"/>
<path d="" fill="#EEEEEE" transform="translate(0,0)"/>
<path d="" fill="#EFEFEF" transform="translate(0,0)"/>
<path d="" fill="#EEEEEE" transform="translate(0,0)"/>
<path d="" fill="#EDEDED" transform="translate(0,0)"/>
<path d="" fill="#EEEEEE" transform="translate(0,0)"/>
<path d="" fill="#EEEEEE" transform="translate(0,0)"/>
<path d="" fill="#EEEEEE" transform="translate(0,0)"/>
<path d="" fill="#EEEEEE" transform="translate(0,0)"/>
<path d="" fill="#EDEDED" transform="translate(0,0)"/>
<path d="" fill="#EDEDED" transform="translate(0,0)"/>
<path d="" fill="#EDEDED" transform="translate(0,0)"/>
<path d="" fill="#EDEDED" transform="translate(0,0)"/>
<path d="" fill="#EEEEEE" transform="translate(0,0)"/>
<path d="" fill="#EDEDED" transform="translate(0,0)"/>
<path d="" fill="#EDEDED" transform="translate(0,0)"/>
<path d="" fill="#EEEEEE" transform="translate(0,0)"/>
<path d="" fill="#EEEEEE" transform="translate(0,0)"/>
<path d="" fill="#EEEEEE" transform="translate(0,0)"/>
<path d="" fill="#EDEDED" transform="translate(0,0)"/>
<path d="" fill="#EDEDED" transform="translate(0,0)"/>
<path d="" fill="#F0F0F0" transform="translate(0,0)"/>
<path d="" fill="#EDEDED" transform="translate(0,0)"/>
<path d="" fill="#EEEEEE" transform="translate(0,0)"/>
<path d="" fill="#EFEFEF" transform="translate(0,0)"/>
<path d="" fill="#ECECEC" transform="translate(0,0)"/>
<path d="" fill="#EEEEEE" transform="translate(0,0)"/>
<path d="" fill="#EFEFEF" transform="translate(0,0)"/>
<path d="" fill="#EDEDED" transform="translate(0,0)"/>
<path d="" fill="#EDEDED" transform="translate(0,0)"/>
<path d="" fill="#EEEEEE" transform="translate(0,0)"/>
<path d="" fill="#EDEDED" transform="translate(0,0)"/>
<path d="" fill="#EFEFEF" transform="translate(0,0)"/>
<path d="" fill="#EFEFEF" transform="translate(0,0)"/>
<path d="" fill="#EDEDED" transform="translate(0,0)"/>
<path d="" fill="#EEEEEE" transform="translate(0,0)"/>
<path d="" fill="#EEEEEE" transform="translate(0,0)"/>
<path d="" fill="#ECECEC" transform="translate(0,0)"/>
<path d="" fill="#EEEEEE" transform="translate(0,0)"/>
<path d="" fill="#EAEAEA" transform="translate(0,0)"/>
<path d="" fill="#EDEDED" transform="translate(0,0)"/>
<path d="" fill="#EDEDED" transform="translate(0,0)"/>
<path d="" fill="#EEEEEE" transform="translate(0,0)"/>
<path d="" fill="#EDEDED" transform="translate(0,0)"/>
<path d="" fill="#F0F0F0" transform="translate(0,0)"/>
<path d="" fill="#EEEEEE" transform="translate(0,0)"/>
<path d="" fill="#EEEEEE" transform="translate(0,0)"/>
<path d="" fill="#EFEFEF" transform="translate(0,0)"/>
<path d="" fill="#EDEDED" transform="translate(0,0)"/>
<path d="" fill="#EFEFEF" transform="translate(0,0)"/>
<path d="" fill="#EDEDED" transform="translate(0,0)"/>
<path d="" fill="#EEEEEE" transform="translate(0,0)"/>
<path d="" fill="#F0F0F0" transform="translate(0,0)"/>
<path d="" fill="#EFEFEF" transform="translate(0,0)"/>
<path d="" fill="#ECECEC" transform="translate(0,0)"/>
<path d="" fill="#EEEEEE" transform="translate(0,0)"/>
<path d="" fill="#EDEDED" transform="translate(0,0)"/>
<path d="" fill="#EDEDED" transform="translate(0,0)"/>
<path d="" fill="#EEEEEE" transform="translate(0,0)"/>
<path d="" fill="#EDEDED" transform="translate(0,0)"/>
<path d="" fill="#EFEFEF" transform="translate(0,0)"/>
<path d="" fill="#EDEDED" transform="translate(0,0)"/>
<path d="" fill="#EEEEEE" transform="translate(0,0)"/>
<path d="" fill="#EDEDED" transform="translate(0,0)"/>
<path d="" fill="#F0F0F0" transform="translate(0,0)"/>
<path d="" fill="#EDEDED" transform="translate(0,0)"/>
<path d="" fill="#EDEDED" transform="translate(0,0)"/>
<path d="" fill="#EDEDED" transform="translate(0,0)"/>
<path d="" fill="#EDEDED" transform="translate(0,0)"/>
<path d="" fill="#EDEDED" transform="translate(0,0)"/>
<path d="" fill="#EDEDED" transform="translate(0,0)"/>
<path d="" fill="#EDEDED" transform="translate(0,0)"/>
<path d="" fill="#EDEDED" transform="translate(0,0)"/>
<path d="" fill="#EEEEEE" transform="translate(0,0)"/>
<path d="" fill="#F0F0F0" transform="translate(0,0)"/>
<path d="" fill="#EEEEEE" transform="translate(0,0)"/>
<path d="" fill="#EEEEEE" transform="translate(0,0)"/>
<path d="" fill="#EDEDED" transform="translate(0,0)"/>
<path d="" fill="#F0F0F0" transform="translate(0,0)"/>
<path d="" fill="#EEEEEE" transform="translate(0,0)"/>
<path d="" fill="#ECECEC" transform="translate(0,0)"/>
<path d="" fill="#EDEDED" transform="translate(0,0)"/>
<path d="" fill="#EEEEEE" transform="translate(0,0)"/>
<path d="" fill="#EFEFEF" transform="translate(0,0)"/>
<path d="" fill="#EDEDED" transform="translate(0,0)"/>
<path d="" fill="#EEEEEE" transform="translate(0,0)"/>
<path d="" fill="#EEEEEE" transform="translate(0,0)"/>
<path d="" fill="#EDEDED" transform="translate(0,0)"/>
<path d="" fill="#EEEEEE" transform="translate(0,0)"/>
<path d="" fill="#EEEEEE" transform="translate(0,0)"/>
<path d="" fill="#EEEEEE" transform="translate(0,0)"/>
<path d="" fill="#EEEEEE" transform="translate(0,0)"/>
<path d="" fill="#EEEEEE" transform="translate(0,0)"/>
<path d="" fill="#EEEEEE" transform="translate(0,0)"/>
<path d="" fill="#EDEDED" transform="translate(0,0)"/>
<path d="" fill="#EDEDED" transform="translate(0,0)"/>
<path d="" fill="#EEEEEE" transform="translate(0,0)"/>
<path d="" fill="#EFEFEF" transform="translate(0,0)"/>
<path d="" fill="#EDEDED" transform="translate(0,0)"/>
<path d="" fill="#EFEFEF" transform="translate(0,0)"/>
<path d="" fill="#EEEEEE" transform="translate(0,0)"/>
<path d="" fill="#EDEDED" transform="translate(0,0)"/>
<path d="" fill="#EDEDED" transform="translate(0,0)"/>
<path d="" fill="#EFEFEF" transform="translate(0,0)"/>
<path d="" fill="#EFEFEF" transform="translate(0,0)"/>
<path d="" fill="#EEEEEE" transform="translate(0,0)"/>
<path d="" fill="#EDEDED" transform="translate(0,0)"/>
<path d="" fill="#F0F0F0" transform="translate(0,0)"/>
<path d="" fill="#EEEEEE" transform="translate(0,0)"/>
<path d="" fill="#F0F0F0" transform="translate(0,0)"/>
<path d="" fill="#EDEDED" transform="translate(0,0)"/>
<path d="" fill="#F0F0F0" transform="translate(0,0)"/>
<path d="" fill="#EDEDED" transform="translate(0,0)"/>
<path d="" fill="#EDEDED" transform="translate(0,0)"/>
<path d="" fill="#EEEEEE" transform="translate(0,0)"/>
<path d="" fill="#EFEFEF" transform="translate(0,0)"/>
<path d="" fill="#EFEFEF" transform="translate(0,0)"/>
<path d="" fill="#F0F0F0" transform="translate(0,0)"/>
</svg>
