<svg xmlns="http://www.w3.org/2000/svg" xmlns:xlink="http://www.w3.org/1999/xlink" width="500" zoomAndPan="magnify" viewBox="0 0 375 374.999991" height="500" preserveAspectRatio="xMidYMid meet" version="1.0"><defs><clipPath id="c4dac62e0e"><path d="M 3.308594 3.308594 L 371.558594 3.308594 L 371.558594 371.558594 L 3.308594 371.558594 Z M 3.308594 3.308594 " clip-rule="nonzero"/></clipPath></defs><g clip-path="url(#c4dac62e0e)"><path fill="#ffffff" d="M 111.585938 3.308594 C 52.152344 3.308594 3.308594 52.085938 3.308594 111.585938 L 3.308594 263.28125 C 3.308594 322.714844 52.085938 371.558594 111.585938 371.558594 L 263.28125 371.558594 C 322.714844 371.558594 371.558594 322.78125 371.558594 263.28125 L 371.558594 111.585938 C 371.558594 52.152344 322.78125 3.308594 263.28125 3.308594 Z M 111.585938 36.785156 L 263.28125 36.785156 C 304.667969 36.785156 338.082031 70.199219 338.082031 111.585938 L 338.082031 263.28125 C 338.082031 304.667969 304.667969 338.082031 263.28125 338.082031 L 111.585938 338.082031 C 70.199219 338.082031 36.785156 304.667969 36.785156 263.28125 L 36.785156 111.585938 C 36.785156 70.199219 70.199219 36.785156 111.585938 36.785156 Z M 286.296875 73.402344 C 277.863281 73.402344 271.128906 80.136719 271.128906 88.570312 C 271.128906 97.007812 277.863281 103.742188 286.296875 103.742188 C 294.730469 103.742188 301.464844 97.007812 301.464844 88.570312 C 301.464844 80.136719 294.730469 73.402344 286.296875 73.402344 Z M 187.433594 87.003906 C 132.183594 87.003906 87.003906 132.183594 87.003906 187.433594 C 87.003906 242.683594 132.183594 287.867188 187.433594 287.867188 C 242.683594 287.867188 287.867188 242.683594 287.867188 187.433594 C 287.867188 132.183594 242.683594 87.003906 187.433594 87.003906 Z M 187.433594 120.480469 C 224.636719 120.480469 254.386719 150.230469 254.386719 187.433594 C 254.386719 224.636719 224.636719 254.386719 187.433594 254.386719 C 150.230469 254.386719 120.480469 224.636719 120.480469 187.433594 C 120.480469 150.230469 150.230469 120.480469 187.433594 120.480469 Z M 187.433594 120.480469 " fill-opacity="1" fill-rule="nonzero"/></g></svg>