<?xml version="1.0" standalone="no"?>
<!DOCTYPE svg PUBLIC "-//W3C//DTD SVG 20010904//EN"
 "http://www.w3.org/TR/2001/REC-SVG-20010904/DTD/svg10.dtd">
<svg version="1.0" xmlns="http://www.w3.org/2000/svg"
 width="500.000000pt" height="500.000000pt" viewBox="0 0 500.000000 500.000000"
 preserveAspectRatio="xMidYMid meet">

<g transform="translate(0.000000,500.000000) scale(0.100000,-0.100000)"
fill="#000000" stroke="none">
<path d="M1790 2925 l0 -1185 45 0 45 0 0 1085 c0 597 3 1085 8 1085 4 -1 24
-25 45 -55 l37 -54 0 -1180 0 -1181 50 0 50 0 0 1092 0 1091 285 -399 285
-399 -250 -3 -250 -2 0 -45 0 -45 251 0 252 0 -7 -149 c-11 -229 -51 -364
-146 -484 -41 -51 -119 -120 -162 -143 -24 -13 -28 -21 -28 -59 0 -28 4 -45
12 -45 24 0 137 83 191 139 30 31 72 84 93 117 l39 59 7 -130 c5 -71 11 -158
14 -193 l6 -63 31 3 32 3 5 454 5 453 445 -623 c443 -620 446 -624 483 -627
l37 -3 0 1185 0 1186 -45 0 -45 0 -2 -1086 -3 -1087 -42 61 -43 60 0 1176 0
1176 -45 0 -45 0 -2 -1091 -3 -1092 -778 1092 -779 1091 -39 0 -39 0 0 -1185z"/>
<path d="M2140 4032 l0 -49 55 -12 c103 -23 212 -86 295 -170 42 -42 89 -100
106 -129 l31 -54 37 32 36 32 -28 50 c-40 73 -133 171 -216 226 -71 48 -202
102 -278 116 l-38 7 0 -49z"/>
<path d="M1640 4051 c-146 -48 -275 -128 -386 -239 -169 -169 -278 -403 -320
-684 -24 -165 -15 -452 19 -598 78 -330 237 -547 492 -670 86 -41 139 -59 263
-86 20 -4 22 -1 22 46 0 46 -2 50 -27 56 -115 25 -158 39 -228 73 -245 121
-391 347 -441 682 -21 143 -15 443 11 559 87 392 316 674 625 770 l55 18 3 46
c4 54 -1 55 -88 27z"/>
<path d="M970 1216 c0 -51 4 -86 10 -86 6 0 10 29 10 67 l0 67 45 -65 c25 -35
50 -65 55 -67 6 -2 10 31 10 82 0 51 -4 86 -10 86 -6 0 -10 -29 -10 -67 l0
-67 -45 65 c-25 35 -50 66 -55 67 -6 2 -10 -31 -10 -82z"/>
<path d="M1200 1215 l0 -85 50 0 c28 0 50 5 50 10 0 6 -18 10 -40 10 -38 0
-40 2 -40 30 0 28 2 30 43 31 l42 2 -40 6 c-34 5 -40 10 -43 34 -3 26 -1 27
37 27 23 0 41 5 41 10 0 6 -22 10 -50 10 l-50 0 0 -85z"/>
<path d="M1380 1293 c0 -5 4 -24 9 -43 6 -19 15 -54 21 -77 6 -26 17 -43 25
-43 8 0 15 5 15 11 0 6 7 36 16 67 18 61 24 58 44 -25 6 -29 18 -53 24 -53 7
0 22 34 34 79 25 89 25 91 14 91 -5 0 -14 -24 -21 -52 -16 -74 -28 -90 -36
-52 -20 86 -27 104 -40 104 -8 0 -15 -6 -15 -13 0 -7 -7 -38 -16 -67 -18 -60
-24 -56 -44 28 -6 28 -16 52 -21 52 -5 0 -9 -3 -9 -7z"/>
<path d="M1692 1288 c-21 -21 -15 -66 11 -73 40 -12 67 -34 61 -50 -8 -20 -63
-20 -70 0 -8 20 -24 19 -24 0 0 -21 43 -39 74 -31 58 14 48 77 -14 90 -26 5
-31 10 -28 28 3 26 46 38 59 17 4 -8 11 -10 15 -6 4 3 1 13 -6 22 -15 18 -61
20 -78 3z"/>
<path d="M2016 1278 c-36 -33 -39 -95 -6 -128 21 -21 74 -27 85 -10 5 8 11 7
21 -1 12 -9 14 -5 14 30 0 40 -1 41 -32 40 -24 -1 -27 -3 -10 -6 42 -8 19 -53
-28 -53 -14 0 -31 5 -38 12 -19 19 -15 82 6 101 21 19 67 23 77 7 4 -6 11 -7
17 -4 17 10 -21 34 -53 34 -15 0 -39 -10 -53 -22z"/>
<path d="M2230 1215 l0 -85 45 0 c25 0 45 5 45 10 0 6 -16 10 -35 10 l-35 0 0
75 c0 43 -4 75 -10 75 -6 0 -10 -35 -10 -85z"/>
<path d="M2425 1275 c-18 -17 -25 -35 -25 -62 0 -44 6 -55 37 -72 56 -29 113
10 113 78 0 74 -74 108 -125 56z m95 -14 c26 -49 0 -111 -46 -111 -49 0 -73
72 -37 112 22 24 69 24 83 -1z"/>
<path d="M2650 1215 l0 -85 36 0 c19 0 44 5 55 10 20 11 26 54 9 65 -7 4 -6
13 1 26 22 42 -7 69 -73 69 l-28 0 0 -85z m87 49 c7 -19 -21 -44 -49 -44 -13
0 -18 8 -18 30 0 27 3 30 30 30 19 0 33 -6 37 -16z m-9 -63 c25 -16 9 -46 -26
-49 -30 -3 -32 -1 -32 27 0 26 4 31 23 31 12 0 28 -4 35 -9z"/>
<path d="M2878 1232 c-40 -100 -41 -102 -30 -102 6 0 14 9 17 20 5 16 15 20
50 20 35 0 45 -4 50 -20 3 -11 11 -20 17 -20 5 0 8 4 6 8 -1 5 -16 43 -33 85
-16 42 -34 77 -40 77 -5 0 -22 -31 -37 -68z m62 -29 c0 -8 -12 -13 -30 -13
l-30 0 15 36 c8 20 15 39 16 43 1 10 28 -53 29 -66z"/>
<path d="M3080 1215 l0 -85 45 0 c25 0 45 5 45 10 0 6 -16 10 -35 10 l-35 0 0
75 c0 43 -4 75 -10 75 -6 0 -10 -35 -10 -85z"/>
<path d="M3370 1216 c0 -51 4 -86 10 -86 6 0 10 29 10 67 l0 67 45 -65 c25
-35 50 -65 55 -67 6 -2 10 31 10 82 0 51 -4 86 -10 86 -6 0 -10 -29 -10 -67
l0 -67 -45 65 c-25 35 -50 66 -55 67 -6 2 -10 -31 -10 -82z"/>
<path d="M3623 1278 c-33 -36 -34 -97 -3 -128 46 -46 130 -6 130 63 0 76 -80
116 -127 65z m91 -14 c36 -36 7 -114 -43 -114 -37 0 -51 17 -51 61 0 43 21 69
55 69 13 0 31 -7 39 -16z"/>
<path d="M3853 1215 c13 -51 26 -85 34 -85 7 0 20 26 29 58 24 83 26 83 44 12
10 -40 21 -65 29 -65 14 0 65 154 55 164 -8 9 -21 -18 -34 -75 -7 -30 -16 -54
-20 -54 -4 0 -13 29 -20 65 -8 41 -17 65 -25 65 -12 0 -45 -88 -45 -119 0 -6
-4 -11 -8 -11 -5 0 -15 28 -23 62 -8 34 -19 63 -25 65 -8 3 -4 -27 9 -82z"/>
</g>
</svg>
