<svg xmlns="http://www.w3.org/2000/svg" xmlns:xlink="http://www.w3.org/1999/xlink" width="500" zoomAndPan="magnify" viewBox="0 0 375 374.999991" height="500" preserveAspectRatio="xMidYMid meet" version="1.0"><defs><clipPath id="e57fe73865"><path d="M 2.757812 2.757812 L 372.507812 2.757812 L 372.507812 372.507812 L 2.757812 372.507812 Z M 2.757812 2.757812 " clip-rule="nonzero"/></clipPath></defs><g clip-path="url(#e57fe73865)"><path fill="#000000" d="M 187.632812 2.757812 C 85.695312 2.757812 2.757812 85.695312 2.757812 187.632812 C 2.757812 289.566406 85.695312 372.507812 187.632812 372.507812 C 289.566406 372.507812 372.507812 289.566406 372.507812 187.632812 C 372.507812 85.695312 289.566406 2.757812 187.632812 2.757812 Z M 83.800781 311.511719 C 85.523438 255.667969 131.371094 210.742188 187.632812 210.742188 C 243.890625 210.742188 289.742188 255.667969 291.460938 311.511719 C 263.339844 335.117188 227.136719 349.398438 187.632812 349.398438 C 148.125 349.398438 111.925781 335.117188 83.800781 311.511719 Z M 129.859375 129.859375 C 129.859375 98.003906 155.777344 72.085938 187.632812 72.085938 C 219.488281 72.085938 245.40625 98.003906 245.40625 129.859375 C 245.40625 161.714844 219.488281 187.632812 187.632812 187.632812 C 155.777344 187.632812 129.859375 161.714844 129.859375 129.859375 Z M 312.355469 290.527344 C 303.988281 247.335938 273.691406 211.976562 233.5625 196.34375 C 254.648438 181.738281 268.515625 157.394531 268.515625 129.859375 C 268.515625 85.269531 232.222656 48.976562 187.632812 48.976562 C 143.042969 48.976562 106.75 85.269531 106.75 129.859375 C 106.75 157.394531 120.613281 181.738281 141.703125 196.355469 C 101.574219 211.988281 71.277344 247.347656 62.898438 290.539062 C 39.777344 262.554688 25.867188 226.6875 25.867188 187.632812 C 25.867188 98.429688 98.429688 25.867188 187.632812 25.867188 C 276.835938 25.867188 349.398438 98.429688 349.398438 187.632812 C 349.398438 226.6875 335.484375 262.554688 312.355469 290.527344 Z M 312.355469 290.527344 " fill-opacity="1" fill-rule="nonzero"/></g></svg>